<?xml version="1.0" encoding="utf-8"?>
<!-- Generator: Adobe Illustrator 16.0.0, SVG Export Plug-In . SVG Version: 6.00 Build 0)  -->
<!DOCTYPE svg PUBLIC "-//W3C//DTD SVG 1.1//EN" "http://www.w3.org/Graphics/SVG/1.1/DTD/svg11.dtd">
<svg version="1.1" id="Camada_1" xmlns="http://www.w3.org/2000/svg" xmlns:xlink="http://www.w3.org/1999/xlink" x="0px" y="0px"
	 width="235.585px" height="101.427px" viewBox="0 0 235.585 101.427" enable-background="new 0 0 235.585 101.427"
	 xml:space="preserve">
<g>
	<g>
		<path fill="#4353A0" d="M120.685,91.88L120.685,91.88c0-0.325-0.042-0.645-0.125-0.958c-0.084-0.313-0.215-0.589-0.393-0.825
			c-0.179-0.236-0.409-0.427-0.692-0.573c-0.282-0.147-0.623-0.22-1.021-0.22c-0.733,0-1.304,0.225-1.712,0.676
			c-0.408,0.451-0.654,1.084-0.738,1.901H120.685z M115.972,92.745c0,1.067,0.246,1.854,0.738,2.356
			c0.492,0.502,1.23,0.754,2.215,0.754c0.398,0,0.767-0.034,1.107-0.102s0.673-0.159,0.998-0.275
			c0.052,0.116,0.095,0.257,0.125,0.424c0.032,0.167,0.052,0.32,0.063,0.456c-0.304,0.136-0.66,0.24-1.069,0.314
			c-0.408,0.073-0.854,0.11-1.335,0.11c-0.691,0-1.286-0.102-1.783-0.306c-0.497-0.204-0.905-0.489-1.225-0.856
			c-0.319-0.367-0.555-0.804-0.707-1.312c-0.152-0.509-0.228-1.066-0.228-1.673c0-0.586,0.071-1.136,0.212-1.649
			c0.141-0.513,0.356-0.964,0.644-1.351s0.657-0.691,1.107-0.912c0.45-0.22,0.99-0.33,1.618-0.33c0.523,0,0.99,0.09,1.398,0.267
			c0.408,0.179,0.751,0.427,1.029,0.747c0.277,0.319,0.487,0.702,0.628,1.147c0.141,0.445,0.212,0.929,0.212,1.453
			c0,0.094-0.002,0.214-0.008,0.36c-0.005,0.147-0.014,0.273-0.023,0.378H115.972z"/>
		<path fill="#4353A0" d="M123.057,88.581c0.083-0.01,0.165-0.018,0.243-0.023c0.079-0.005,0.155-0.008,0.228-0.008
			c0.084,0,0.163,0.002,0.236,0.008c0.073,0.005,0.152,0.014,0.236,0.023c0.02,0.189,0.037,0.424,0.047,0.707
			s0.016,0.528,0.016,0.738c0.104-0.188,0.241-0.379,0.409-0.573s0.364-0.369,0.588-0.526c0.226-0.157,0.485-0.286,0.778-0.385
			c0.293-0.1,0.613-0.149,0.959-0.149c0.921,0,1.591,0.275,2.01,0.825c0.419,0.55,0.628,1.323,0.628,2.317v5.059
			c-0.063,0.01-0.149,0.018-0.259,0.023c-0.11,0.005-0.196,0.007-0.259,0.007c-0.052,0-0.136-0.002-0.251-0.007
			c-0.115-0.006-0.204-0.014-0.267-0.023v-4.744c0-0.891-0.139-1.529-0.417-1.917c-0.278-0.387-0.694-0.581-1.249-0.581
			c-0.367,0-0.712,0.074-1.037,0.221c-0.325,0.146-0.605,0.358-0.841,0.636c-0.235,0.277-0.421,0.621-0.557,1.029
			c-0.137,0.409-0.204,0.875-0.204,1.398v3.959c-0.063,0.01-0.15,0.018-0.26,0.023c-0.109,0.005-0.196,0.007-0.259,0.007
			c-0.052,0-0.136-0.002-0.251-0.007c-0.115-0.006-0.204-0.014-0.267-0.023V88.581z"/>
		<path fill="#4353A0" d="M130.88,95.493c0.23,0.095,0.528,0.175,0.896,0.244c0.366,0.067,0.717,0.102,1.052,0.102
			c0.628,0,1.125-0.139,1.492-0.417c0.367-0.277,0.55-0.62,0.55-1.029c0-0.283-0.055-0.516-0.165-0.699
			c-0.109-0.183-0.256-0.338-0.439-0.463c-0.184-0.125-0.39-0.228-0.62-0.307c-0.231-0.078-0.466-0.159-0.708-0.243
			c-0.261-0.083-0.521-0.178-0.777-0.283c-0.257-0.105-0.485-0.238-0.684-0.401c-0.199-0.162-0.359-0.358-0.479-0.589
			c-0.12-0.23-0.18-0.519-0.18-0.865c0-0.638,0.233-1.156,0.699-1.554c0.466-0.398,1.186-0.597,2.16-0.597
			c0.408,0,0.804,0.036,1.186,0.11c0.382,0.073,0.678,0.152,0.888,0.236c-0.053,0.304-0.126,0.603-0.221,0.896
			c-0.22-0.073-0.5-0.147-0.84-0.22c-0.341-0.073-0.694-0.11-1.061-0.11c-0.638,0-1.092,0.113-1.359,0.338
			c-0.267,0.226-0.401,0.521-0.401,0.888c0,0.199,0.044,0.369,0.134,0.51c0.089,0.142,0.209,0.262,0.361,0.362
			c0.151,0.099,0.325,0.186,0.519,0.259c0.193,0.073,0.401,0.141,0.62,0.205c0.283,0.094,0.568,0.195,0.856,0.306
			c0.288,0.109,0.55,0.253,0.786,0.432c0.235,0.178,0.429,0.403,0.582,0.675c0.151,0.273,0.227,0.613,0.227,1.021
			c0,0.377-0.076,0.72-0.227,1.029c-0.152,0.309-0.365,0.57-0.637,0.785c-0.272,0.215-0.597,0.38-0.974,0.496
			c-0.377,0.115-0.791,0.172-1.242,0.172c-0.502,0-0.95-0.031-1.342-0.094c-0.393-0.063-0.709-0.146-0.95-0.251
			C130.644,96.122,130.743,95.808,130.88,95.493"/>
		<path fill="#4353A0" d="M137.226,86.618L137.226,86.618c-0.01-0.095-0.019-0.209-0.023-0.346
			c-0.005-0.135-0.008-0.251-0.008-0.345c0-0.083,0.002-0.188,0.008-0.314c0.005-0.125,0.013-0.23,0.023-0.314
			c0.095-0.01,0.209-0.018,0.346-0.023c0.135-0.005,0.25-0.007,0.345-0.007c0.083,0,0.188,0.002,0.314,0.007
			c0.125,0.006,0.23,0.014,0.314,0.023c0.01,0.084,0.018,0.189,0.023,0.314c0.005,0.126,0.008,0.231,0.008,0.314
			c0,0.094-0.002,0.21-0.008,0.345c-0.005,0.137-0.013,0.251-0.023,0.346c-0.084,0.011-0.188,0.019-0.314,0.023
			c-0.126,0.005-0.231,0.008-0.314,0.008c-0.095,0-0.21-0.003-0.345-0.008C137.436,86.636,137.321,86.628,137.226,86.618
			 M137.745,89.461h-1.005c-0.01-0.052-0.019-0.115-0.023-0.189c-0.005-0.073-0.008-0.151-0.008-0.236
			c0-0.083,0.003-0.167,0.008-0.25c0.005-0.084,0.013-0.151,0.023-0.205h2.042v8.012c-0.063,0.01-0.149,0.018-0.258,0.023
			c-0.111,0.005-0.197,0.007-0.26,0.007c-0.052,0-0.136-0.002-0.251-0.007c-0.116-0.006-0.204-0.014-0.267-0.023V89.461z"/>
		<path fill="#4353A0" d="M140.604,88.581c0.084-0.01,0.165-0.018,0.243-0.023c0.079-0.005,0.155-0.008,0.228-0.008
			c0.084,0,0.163,0.002,0.236,0.008c0.073,0.005,0.151,0.014,0.235,0.023c0.021,0.189,0.037,0.424,0.047,0.707
			c0.01,0.283,0.016,0.528,0.016,0.738c0.104-0.188,0.241-0.379,0.409-0.573c0.167-0.194,0.363-0.369,0.588-0.526
			c0.225-0.157,0.485-0.286,0.778-0.385c0.293-0.1,0.613-0.149,0.958-0.149c0.922,0,1.592,0.275,2.011,0.825
			c0.419,0.55,0.629,1.323,0.629,2.317v5.059c-0.063,0.01-0.15,0.018-0.26,0.023c-0.11,0.005-0.196,0.007-0.259,0.007
			c-0.052,0-0.136-0.002-0.251-0.007c-0.115-0.006-0.204-0.014-0.267-0.023v-4.744c0-0.891-0.139-1.529-0.417-1.917
			c-0.277-0.387-0.694-0.581-1.249-0.581c-0.367,0-0.712,0.074-1.037,0.221c-0.325,0.146-0.604,0.358-0.84,0.636
			c-0.235,0.277-0.421,0.621-0.557,1.029c-0.137,0.409-0.205,0.875-0.205,1.398v3.959c-0.063,0.01-0.15,0.018-0.259,0.023
			c-0.11,0.005-0.197,0.007-0.26,0.007c-0.053,0-0.136-0.002-0.252-0.007c-0.115-0.006-0.203-0.014-0.267-0.023V88.581z"/>
		<path fill="#4353A0" d="M151.772,95.87L151.772,95.87c0.837,0,1.464-0.293,1.877-0.88c0.414-0.585,0.621-1.388,0.621-2.403
			c0-1.015-0.207-1.817-0.621-2.404c-0.414-0.586-1.04-0.879-1.877-0.879c-0.838,0-1.464,0.293-1.877,0.879
			c-0.414,0.587-0.621,1.389-0.621,2.404c0,1.016,0.207,1.818,0.621,2.403C150.309,95.577,150.935,95.87,151.772,95.87
			 M151.772,96.781c-0.597,0-1.121-0.107-1.571-0.322s-0.825-0.511-1.123-0.887c-0.298-0.377-0.521-0.823-0.667-1.335
			c-0.147-0.513-0.22-1.063-0.22-1.65c0-0.586,0.073-1.135,0.22-1.649c0.146-0.513,0.369-0.958,0.667-1.336
			c0.298-0.377,0.673-0.672,1.123-0.888c0.45-0.214,0.974-0.322,1.571-0.322s1.118,0.107,1.563,0.322
			c0.445,0.215,0.817,0.511,1.116,0.888c0.298,0.377,0.523,0.823,0.676,1.336c0.151,0.514,0.227,1.063,0.227,1.649
			c0,0.587-0.076,1.137-0.227,1.65c-0.152,0.513-0.377,0.958-0.676,1.335c-0.299,0.376-0.67,0.672-1.116,0.887
			C152.891,96.674,152.37,96.781,151.772,96.781z"/>
		<path fill="#4353A0" d="M160.743,95.572L160.743,95.572c0.241,0.093,0.489,0.165,0.746,0.211c0.256,0.048,0.599,0.071,1.029,0.071
			c0.408,0,0.795-0.065,1.162-0.196s0.686-0.338,0.959-0.62c0.271-0.283,0.486-0.641,0.644-1.077
			c0.157-0.434,0.235-0.955,0.235-1.563c0-0.963-0.181-1.718-0.542-2.262c-0.361-0.544-0.945-0.817-1.751-0.817
			c-0.251,0-0.524,0.042-0.817,0.125c-0.293,0.084-0.563,0.228-0.808,0.433c-0.247,0.204-0.451,0.472-0.613,0.801
			c-0.163,0.33-0.243,0.746-0.243,1.249V95.572z M159.706,88.581c0.063-0.01,0.142-0.018,0.235-0.023
			c0.095-0.005,0.173-0.008,0.236-0.008c0.063,0,0.142,0.002,0.236,0.008s0.172,0.014,0.236,0.023l0.094,1.1
			c0.22-0.335,0.537-0.634,0.95-0.896c0.414-0.261,0.95-0.393,1.61-0.393c0.492,0,0.942,0.076,1.351,0.228
			c0.408,0.152,0.756,0.39,1.044,0.714c0.288,0.325,0.513,0.733,0.675,1.226c0.163,0.492,0.244,1.084,0.244,1.775
			s-0.094,1.312-0.283,1.862s-0.463,1.016-0.825,1.398c-0.361,0.382-0.807,0.675-1.335,0.879c-0.53,0.204-1.134,0.306-1.815,0.306
			c-0.251,0-0.523-0.021-0.817-0.063c-0.293-0.042-0.56-0.104-0.801-0.188v3.77c-0.063,0.011-0.152,0.019-0.267,0.024
			c-0.116,0.005-0.2,0.008-0.251,0.008c-0.063,0-0.149-0.003-0.26-0.008c-0.11-0.005-0.196-0.013-0.259-0.024V88.581z"/>
		<path fill="#4353A0" d="M168.016,88.581c0.083-0.01,0.165-0.018,0.244-0.023c0.079-0.005,0.154-0.008,0.228-0.008
			c0.083,0,0.162,0.002,0.235,0.008c0.073,0.005,0.152,0.014,0.236,0.023c0.021,0.189,0.036,0.411,0.046,0.667
			c0.011,0.257,0.017,0.49,0.017,0.7c0.208-0.387,0.502-0.715,0.879-0.982c0.377-0.268,0.874-0.401,1.492-0.401
			c0.052,0,0.107,0,0.165,0c0.057,0,0.123,0.006,0.196,0.016c0.031,0.178,0.047,0.346,0.047,0.503c0,0.167-0.016,0.33-0.047,0.487
			c-0.084-0.01-0.149-0.016-0.196-0.016s-0.097,0-0.149,0c-0.713,0-1.283,0.226-1.713,0.676c-0.429,0.45-0.644,1.199-0.644,2.247
			v4.116c-0.063,0.01-0.149,0.018-0.259,0.023c-0.109,0.005-0.196,0.007-0.259,0.007c-0.052,0-0.136-0.002-0.251-0.007
			c-0.115-0.006-0.205-0.014-0.267-0.023V88.581z"/>
		<path fill="#4353A0" d="M177.708,91.88L177.708,91.88c0-0.325-0.042-0.645-0.125-0.958c-0.084-0.313-0.215-0.589-0.393-0.825
			c-0.179-0.236-0.408-0.427-0.691-0.573c-0.283-0.147-0.624-0.22-1.021-0.22c-0.733,0-1.304,0.225-1.713,0.676
			c-0.408,0.451-0.654,1.084-0.738,1.901H177.708z M172.996,92.745c0,1.067,0.246,1.854,0.738,2.356
			c0.492,0.502,1.23,0.754,2.215,0.754c0.397,0,0.767-0.034,1.107-0.102c0.34-0.068,0.673-0.159,0.997-0.275
			c0.053,0.116,0.094,0.257,0.126,0.424c0.032,0.167,0.052,0.32,0.063,0.456c-0.304,0.136-0.66,0.24-1.068,0.314
			c-0.408,0.073-0.854,0.11-1.335,0.11c-0.69,0-1.285-0.102-1.783-0.306s-0.906-0.489-1.225-0.856
			c-0.32-0.367-0.555-0.804-0.707-1.312c-0.153-0.509-0.228-1.066-0.228-1.673c0-0.586,0.07-1.136,0.211-1.649
			c0.142-0.513,0.356-0.964,0.645-1.351c0.288-0.387,0.657-0.691,1.107-0.912c0.45-0.22,0.99-0.33,1.618-0.33
			c0.524,0,0.99,0.09,1.398,0.267c0.409,0.179,0.752,0.427,1.029,0.747c0.277,0.319,0.487,0.702,0.628,1.147
			c0.142,0.445,0.212,0.929,0.212,1.453c0,0.094-0.003,0.214-0.008,0.36c-0.005,0.147-0.014,0.273-0.024,0.378H172.996z"/>
		<path fill="#4353A0" d="M181.117,95.572L181.117,95.572c0.241,0.093,0.489,0.165,0.746,0.211c0.256,0.048,0.599,0.071,1.029,0.071
			c0.408,0,0.795-0.065,1.163-0.196c0.367-0.131,0.686-0.338,0.958-0.62c0.272-0.283,0.487-0.641,0.645-1.077
			c0.156-0.434,0.235-0.955,0.235-1.563c0-0.963-0.181-1.718-0.542-2.262c-0.362-0.544-0.946-0.817-1.752-0.817
			c-0.251,0-0.523,0.042-0.817,0.125c-0.293,0.084-0.563,0.228-0.809,0.433c-0.247,0.204-0.45,0.472-0.612,0.801
			c-0.164,0.33-0.244,0.746-0.244,1.249V95.572z M180.08,88.581c0.063-0.01,0.142-0.018,0.236-0.023s0.173-0.008,0.235-0.008
			s0.141,0.002,0.235,0.008c0.095,0.005,0.173,0.014,0.236,0.023l0.094,1.1c0.22-0.335,0.537-0.634,0.95-0.896
			c0.413-0.261,0.951-0.393,1.61-0.393c0.492,0,0.942,0.076,1.351,0.228c0.409,0.152,0.756,0.39,1.045,0.714
			c0.288,0.325,0.513,0.733,0.675,1.226s0.243,1.084,0.243,1.775s-0.093,1.312-0.283,1.862c-0.188,0.55-0.462,1.016-0.825,1.398
			c-0.361,0.382-0.806,0.675-1.335,0.879c-0.529,0.204-1.134,0.306-1.815,0.306c-0.25,0-0.523-0.021-0.816-0.063
			c-0.293-0.042-0.56-0.104-0.801-0.188v3.77c-0.063,0.011-0.152,0.019-0.268,0.024c-0.115,0.005-0.199,0.008-0.251,0.008
			c-0.063,0-0.149-0.003-0.259-0.008c-0.11-0.005-0.196-0.013-0.26-0.024V88.581z"/>
		<path fill="#4353A0" d="M192.805,92.697L192.805,92.697c-0.178-0.021-0.4-0.044-0.667-0.07c-0.267-0.026-0.521-0.04-0.762-0.04
			c-0.785,0-1.393,0.147-1.822,0.439c-0.429,0.294-0.644,0.712-0.644,1.257c0,0.346,0.065,0.623,0.196,0.833
			c0.13,0.209,0.301,0.369,0.51,0.479c0.21,0.11,0.44,0.183,0.692,0.219c0.251,0.037,0.502,0.055,0.754,0.055
			c0.324,0,0.628-0.016,0.911-0.046c0.283-0.032,0.56-0.074,0.833-0.127V92.697z M192.805,91.299c0-0.691-0.163-1.197-0.487-1.517
			c-0.324-0.319-0.806-0.479-1.445-0.479c-0.419,0-0.802,0.029-1.147,0.086c-0.345,0.058-0.654,0.129-0.927,0.212
			c-0.052-0.094-0.097-0.23-0.133-0.408c-0.037-0.178-0.055-0.345-0.055-0.503c0.272-0.083,0.606-0.154,1.005-0.212
			s0.807-0.086,1.226-0.086c1.016,0,1.77,0.223,2.262,0.668c0.493,0.445,0.739,1.145,0.739,2.097v5.294
			c-0.367,0.074-0.812,0.146-1.335,0.22c-0.524,0.073-1.021,0.11-1.492,0.11c-0.975,0-1.742-0.193-2.302-0.581
			c-0.561-0.388-0.84-1.016-0.84-1.886c0-0.419,0.08-0.793,0.243-1.123c0.162-0.33,0.387-0.607,0.675-0.833
			c0.288-0.225,0.634-0.396,1.037-0.51c0.403-0.116,0.846-0.173,1.327-0.173c0.377,0,0.702,0.014,0.975,0.039
			c0.272,0.026,0.497,0.049,0.675,0.07V91.299z"/>
		<path fill="#4353A0" d="M195.506,88.581c0.083-0.01,0.165-0.018,0.243-0.023s0.154-0.008,0.228-0.008
			c0.083,0,0.163,0.002,0.236,0.008s0.152,0.014,0.235,0.023c0.021,0.189,0.037,0.411,0.047,0.667c0.01,0.257,0.016,0.49,0.016,0.7
			c0.208-0.387,0.501-0.715,0.879-0.982c0.377-0.268,0.874-0.401,1.492-0.401c0.053,0,0.107,0,0.166,0
			c0.057,0,0.123,0.006,0.196,0.016c0.031,0.178,0.047,0.346,0.047,0.503c0,0.167-0.016,0.33-0.047,0.487
			c-0.084-0.01-0.149-0.016-0.196-0.016c-0.047,0-0.097,0-0.149,0c-0.713,0-1.283,0.226-1.713,0.676
			c-0.429,0.45-0.644,1.199-0.644,2.247v4.116c-0.063,0.01-0.149,0.018-0.26,0.023c-0.109,0.005-0.196,0.007-0.259,0.007
			c-0.053,0-0.136-0.002-0.251-0.007c-0.115-0.006-0.204-0.014-0.267-0.023V88.581z"/>
		<path fill="#4353A0" d="M204.319,92.697L204.319,92.697c-0.178-0.021-0.4-0.044-0.667-0.07c-0.268-0.026-0.521-0.04-0.762-0.04
			c-0.785,0-1.393,0.147-1.822,0.439c-0.43,0.294-0.645,0.712-0.645,1.257c0,0.346,0.066,0.623,0.197,0.833
			c0.13,0.209,0.301,0.369,0.51,0.479c0.209,0.11,0.44,0.183,0.691,0.219c0.251,0.037,0.502,0.055,0.754,0.055
			c0.324,0,0.627-0.016,0.91-0.046c0.283-0.032,0.561-0.074,0.833-0.127V92.697z M204.319,91.299c0-0.691-0.162-1.197-0.487-1.517
			c-0.325-0.319-0.807-0.479-1.446-0.479c-0.419,0-0.801,0.029-1.146,0.086c-0.345,0.058-0.655,0.129-0.927,0.212
			c-0.052-0.094-0.097-0.23-0.134-0.408c-0.037-0.178-0.055-0.345-0.055-0.503c0.272-0.083,0.607-0.154,1.006-0.212
			s0.807-0.086,1.226-0.086c1.016,0,1.77,0.223,2.262,0.668c0.493,0.445,0.738,1.145,0.738,2.097v5.294
			c-0.368,0.074-0.812,0.146-1.336,0.22c-0.523,0.073-1.02,0.11-1.492,0.11c-0.974,0-1.741-0.193-2.301-0.581
			c-0.561-0.388-0.841-1.016-0.841-1.886c0-0.419,0.082-0.793,0.244-1.123c0.162-0.33,0.387-0.607,0.676-0.833
			c0.287-0.225,0.633-0.396,1.036-0.51c0.404-0.116,0.845-0.173,1.327-0.173c0.378,0,0.702,0.014,0.975,0.039
			c0.271,0.026,0.497,0.049,0.675,0.07V91.299z"/>
		<path fill="#4353A0" d="M207.383,89.461h-1.367c-0.011-0.052-0.019-0.12-0.024-0.204s-0.007-0.167-0.007-0.252
			c0-0.083,0.002-0.162,0.007-0.235c0.005-0.073,0.013-0.136,0.024-0.189h1.367v-1.508l0.974-0.958h0.063v2.466h2.168
			c0.01,0.053,0.018,0.116,0.023,0.189c0.005,0.073,0.008,0.152,0.008,0.235c0,0.084-0.003,0.168-0.008,0.252
			s-0.014,0.152-0.023,0.204h-2.168v5.215c0,0.263,0.034,0.469,0.102,0.621s0.157,0.27,0.267,0.354
			c0.11,0.083,0.235,0.139,0.377,0.164c0.141,0.027,0.286,0.04,0.432,0.04c0.366,0,0.685-0.047,0.958-0.141
			c0.073,0.272,0.126,0.565,0.157,0.88c-0.377,0.115-0.817,0.173-1.319,0.173c-0.597,0-1.082-0.16-1.453-0.48
			c-0.372-0.318-0.557-0.84-0.557-1.563V89.461z"/>
		<path fill="#4353A0" d="M214.357,87.278L214.357,87.278c-0.188,0.031-0.403,0.047-0.644,0.047c-0.157,0-0.33-0.016-0.519-0.047
			l1.839-2.042c0.115-0.021,0.232-0.031,0.353-0.031c0.12,0,0.238,0,0.354,0c0.125,0,0.25,0.002,0.377,0.008
			c0.125,0.005,0.245,0.013,0.361,0.023L214.357,87.278z M214.529,95.87L214.529,95.87c0.837,0,1.464-0.293,1.878-0.88
			c0.414-0.585,0.621-1.388,0.621-2.403c0-1.015-0.207-1.817-0.621-2.404c-0.414-0.586-1.041-0.879-1.878-0.879
			s-1.463,0.293-1.876,0.879c-0.414,0.587-0.621,1.389-0.621,2.404c0,1.016,0.207,1.818,0.621,2.403
			C213.066,95.577,213.692,95.87,214.529,95.87z M214.529,96.781c-0.597,0-1.121-0.107-1.57-0.322
			c-0.451-0.215-0.824-0.511-1.124-0.887c-0.298-0.377-0.521-0.823-0.667-1.335c-0.146-0.513-0.22-1.063-0.22-1.65
			c0-0.586,0.073-1.135,0.22-1.649c0.147-0.513,0.369-0.958,0.667-1.336c0.299-0.377,0.673-0.672,1.124-0.888
			c0.45-0.214,0.974-0.322,1.57-0.322c0.598,0,1.118,0.107,1.563,0.322c0.446,0.215,0.818,0.511,1.116,0.888
			c0.298,0.377,0.524,0.823,0.676,1.336c0.151,0.514,0.228,1.063,0.228,1.649c0,0.587-0.076,1.137-0.228,1.65
			c-0.152,0.513-0.377,0.958-0.676,1.335c-0.298,0.376-0.67,0.672-1.116,0.887C215.647,96.674,215.127,96.781,214.529,96.781z"/>
		<path fill="#4353A0" d="M219.477,88.581c0.084-0.01,0.166-0.018,0.244-0.023s0.155-0.008,0.228-0.008
			c0.083,0,0.162,0.002,0.235,0.008s0.152,0.014,0.236,0.023c0.021,0.189,0.037,0.411,0.047,0.667c0.01,0.257,0.015,0.49,0.015,0.7
			c0.209-0.387,0.503-0.715,0.88-0.982c0.376-0.268,0.874-0.401,1.492-0.401c0.053,0,0.108,0,0.166,0
			c0.057,0,0.123,0.006,0.196,0.016c0.031,0.178,0.048,0.346,0.048,0.503c0,0.167-0.017,0.33-0.048,0.487
			c-0.083-0.01-0.149-0.016-0.196-0.016s-0.098,0-0.149,0c-0.713,0-1.284,0.226-1.712,0.676c-0.429,0.45-0.644,1.199-0.644,2.247
			v4.116c-0.063,0.01-0.149,0.018-0.26,0.023c-0.11,0.005-0.196,0.007-0.259,0.007c-0.053,0-0.137-0.002-0.251-0.007
			c-0.115-0.006-0.204-0.014-0.268-0.023V88.581z"/>
		<path fill="#4353A0" d="M224.002,86.618L224.002,86.618c-0.011-0.095-0.019-0.209-0.023-0.346
			c-0.006-0.135-0.008-0.251-0.008-0.345c0-0.083,0.001-0.188,0.008-0.314c0.004-0.125,0.012-0.23,0.023-0.314
			c0.095-0.01,0.209-0.018,0.346-0.023c0.135-0.005,0.251-0.007,0.345-0.007c0.084,0,0.188,0.002,0.314,0.007
			c0.125,0.006,0.23,0.014,0.313,0.023c0.011,0.084,0.019,0.189,0.024,0.314c0.005,0.126,0.007,0.231,0.007,0.314
			c0,0.094-0.002,0.21-0.007,0.345c-0.006,0.137-0.014,0.251-0.024,0.346c-0.083,0.011-0.188,0.019-0.313,0.023
			c-0.126,0.005-0.23,0.008-0.314,0.008c-0.094,0-0.21-0.003-0.345-0.008C224.211,86.636,224.097,86.628,224.002,86.618
			 M224.52,89.461h-1.004c-0.011-0.052-0.02-0.115-0.024-0.189c-0.005-0.073-0.008-0.151-0.008-0.236
			c0-0.083,0.003-0.167,0.008-0.25c0.004-0.084,0.013-0.151,0.024-0.205h2.042v8.012c-0.063,0.01-0.149,0.018-0.259,0.023
			c-0.11,0.005-0.196,0.007-0.26,0.007c-0.052,0-0.136-0.002-0.251-0.007c-0.115-0.006-0.204-0.014-0.267-0.023V89.461z"/>
		<path fill="#4353A0" d="M230.506,95.87L230.506,95.87c0.837,0,1.463-0.293,1.877-0.88c0.413-0.585,0.621-1.388,0.621-2.403
			c0-1.015-0.208-1.817-0.621-2.404c-0.414-0.586-1.04-0.879-1.877-0.879c-0.838,0-1.464,0.293-1.878,0.879
			c-0.414,0.587-0.621,1.389-0.621,2.404c0,1.016,0.207,1.818,0.621,2.403C229.042,95.577,229.667,95.87,230.506,95.87
			 M230.506,96.781c-0.598,0-1.121-0.107-1.571-0.322c-0.451-0.215-0.825-0.511-1.124-0.887c-0.298-0.377-0.521-0.823-0.668-1.335
			c-0.147-0.513-0.22-1.063-0.22-1.65c0-0.586,0.073-1.135,0.22-1.649c0.147-0.513,0.37-0.958,0.668-1.336
			c0.299-0.377,0.673-0.672,1.124-0.888c0.45-0.214,0.973-0.322,1.571-0.322c0.597,0,1.118,0.107,1.563,0.322
			c0.445,0.215,0.816,0.511,1.116,0.888c0.298,0.377,0.524,0.823,0.675,1.336c0.152,0.514,0.228,1.063,0.228,1.649
			c0,0.587-0.076,1.137-0.228,1.65c-0.151,0.513-0.377,0.958-0.675,1.335c-0.299,0.376-0.671,0.672-1.116,0.887
			S231.103,96.781,230.506,96.781z"/>
		<g>
			<defs>
				<path id="SVGID_1_" d="M124.756,36.804c0,0-9.709,1.288-10.78-10.25c-0.359-3.886-4.181-11.908-18.269-11.908
					c-13.268,0-7.458,0-7.458,0s-21.155,0.15-21.155-12.131h41.447c0,0,13.139-0.187,13.139,13.151L124.756,36.804z"/>
			</defs>
			<clipPath id="SVGID_2_">
				<use xlink:href="#SVGID_1_"  overflow="visible"/>
			</clipPath>
			<linearGradient id="SVGID_3_" gradientUnits="userSpaceOnUse" x1="124.7559" y1="20.2095" x2="67.0942" y2="20.2095">
				<stop  offset="0" style="stop-color:#4775B8"/>
				<stop  offset="0.5" style="stop-color:#65A9DF"/>
				<stop  offset="1" style="stop-color:#4775B8"/>
			</linearGradient>
			<rect x="67.094" y="2.328" clip-path="url(#SVGID_2_)" fill="url(#SVGID_3_)" width="57.662" height="35.764"/>
		</g>
		<g>
			<defs>
				<path id="SVGID_4_" d="M124.756,36.804c0,0-8.4,1.425-8.4-7.025c0-8.449-0.792-17.917-15.145-17.917
					c-14.354,0-22.907,0-22.907,0S66.648,12.885,66.648,0.205h43.827c0,0,14.217-0.205,14.217,14.226L124.756,36.804z"/>
			</defs>
			<clipPath id="SVGID_5_">
				<use xlink:href="#SVGID_4_"  overflow="visible"/>
			</clipPath>
			<linearGradient id="SVGID_6_" gradientUnits="userSpaceOnUse" x1="124.7559" y1="19.1143" x2="66.6484" y2="19.1143">
				<stop  offset="0" style="stop-color:#00ACEC"/>
				<stop  offset="1" style="stop-color:#4775B8"/>
			</linearGradient>
			<rect x="66.648" clip-path="url(#SVGID_5_)" fill="url(#SVGID_6_)" width="58.107" height="38.229"/>
		</g>
		<path fill="#2863A6" d="M113.976,26.553c-0.088-0.96-0.389-2.171-1.002-3.453c3.18,0.819,6.556,1.531,10.096,2.121l1.687,11.582
			C124.756,36.804,115.047,38.091,113.976,26.553"/>
		<path fill="#2863A6" d="M92.666,14.646c-2.159,0-3.552,0-4.417,0c0,0-21.155,0.15-21.155-12.131h17.367
			C84.461,6.923,87.442,11.063,92.666,14.646"/>
		<g>
			<defs>
				<path id="SVGID_7_" d="M116.356,29.779c0-1.967-0.043-3.986-0.29-5.93c2.76,0.626,5.648,1.175,8.656,1.637l0.033,11.318
					C124.756,36.804,116.356,38.229,116.356,29.779"/>
			</defs>
			<clipPath id="SVGID_8_">
				<use xlink:href="#SVGID_7_"  overflow="visible"/>
			</clipPath>
			<linearGradient id="SVGID_9_" gradientUnits="userSpaceOnUse" x1="124.7559" y1="31.0386" x2="116.0664" y2="31.0386">
				<stop  offset="0" style="stop-color:#4C97D4"/>
				<stop  offset="1" style="stop-color:#4775B8"/>
			</linearGradient>
			<rect x="116.066" y="23.849" clip-path="url(#SVGID_8_)" fill="url(#SVGID_9_)" width="8.689" height="14.38"/>
		</g>
		<g>
			<defs>
				<path id="SVGID_10_" d="M84.461,2.515c0,3.308,1.681,6.462,4.725,9.347c-6.97,0-10.881,0-10.881,0S66.648,12.885,66.648,0.205
					h18.089C84.555,0.966,84.461,1.736,84.461,2.515"/>
			</defs>
			<clipPath id="SVGID_11_">
				<use xlink:href="#SVGID_10_"  overflow="visible"/>
			</clipPath>
			<linearGradient id="SVGID_12_" gradientUnits="userSpaceOnUse" x1="89.1855" y1="6.5449" x2="66.6484" y2="6.5449">
				<stop  offset="0" style="stop-color:#4C97D4"/>
				<stop  offset="1" style="stop-color:#4775B8"/>
			</linearGradient>
			<rect x="66.648" y="0.205" clip-path="url(#SVGID_11_)" fill="url(#SVGID_12_)" width="22.537" height="12.68"/>
		</g>
		<g>
			<defs>
				<path id="SVGID_13_" d="M0,64.627c0,0,9.719-1.29,10.79,10.25c0.36,3.883,4.182,11.905,18.27,11.905c13.266,0,7.458,0,7.458,0
					s21.155-0.15,21.155,12.131H16.225c0,0-13.149,0.187-13.149-13.149L0,64.627z"/>
			</defs>
			<clipPath id="SVGID_14_">
				<use xlink:href="#SVGID_13_"  overflow="visible"/>
			</clipPath>
			<linearGradient id="SVGID_15_" gradientUnits="userSpaceOnUse" x1="0" y1="81.2192" x2="57.7697" y2="81.2192">
				<stop  offset="0" style="stop-color:#4775B8"/>
				<stop  offset="0.5" style="stop-color:#65A9DF"/>
				<stop  offset="1" style="stop-color:#4775B8"/>
			</linearGradient>
			<rect y="63.337" clip-path="url(#SVGID_14_)" fill="url(#SVGID_15_)" width="57.672" height="35.763"/>
		</g>
		<g>
			<defs>
				<path id="SVGID_16_" d="M0,64.627c0,0,8.411-1.425,8.411,7.023c0,8.45,0.791,17.918,15.145,17.918c14.354,0,22.906,0,22.906,0
					s11.657-1.027,11.657,11.657H14.291c0,0-14.226,0.201-14.226-14.229L0,64.627z"/>
			</defs>
			<clipPath id="SVGID_17_">
				<use xlink:href="#SVGID_16_"  overflow="visible"/>
			</clipPath>
			<linearGradient id="SVGID_18_" gradientUnits="userSpaceOnUse" x1="0" y1="82.3145" x2="58.2224" y2="82.3145">
				<stop  offset="0" style="stop-color:#00ACEC"/>
				<stop  offset="1" style="stop-color:#4775B8"/>
			</linearGradient>
			<rect y="63.202" clip-path="url(#SVGID_17_)" fill="url(#SVGID_18_)" width="58.118" height="38.225"/>
		</g>
		<path fill="#2863A6" d="M10.79,74.877c0.089,0.958,0.389,2.17,1.003,3.45c-3.181-0.818-6.562-1.53-10.108-2.121L0,64.627
			C0,64.627,9.719,63.337,10.79,74.877"/>
		<path fill="#2863A6" d="M32.101,86.783c2.158,0,3.551,0,4.417,0c0,0,21.155-0.15,21.155,12.131H40.305
			C40.305,94.506,37.324,90.366,32.101,86.783"/>
		<g>
			<defs>
				<path id="SVGID_19_" d="M8.411,71.65c0,1.967,0.042,3.987,0.289,5.929c-2.762-0.625-5.658-1.175-8.667-1.636L0,64.627
					C0,64.627,8.411,63.202,8.411,71.65"/>
			</defs>
			<clipPath id="SVGID_20_">
				<use xlink:href="#SVGID_19_"  overflow="visible"/>
			</clipPath>
			<linearGradient id="SVGID_21_" gradientUnits="userSpaceOnUse" x1="0" y1="70.3906" x2="8.7143" y2="70.3906">
				<stop  offset="0" style="stop-color:#4C97D4"/>
				<stop  offset="1" style="stop-color:#4775B8"/>
			</linearGradient>
			<rect y="63.202" clip-path="url(#SVGID_20_)" fill="url(#SVGID_21_)" width="8.699" height="14.377"/>
		</g>
		<g>
			<defs>
				<path id="SVGID_22_" d="M40.305,98.914c0-3.309-1.68-6.463-4.726-9.346c6.971,0,10.881,0,10.881,0s11.657-1.027,11.657,11.657
					h-18.09C40.21,100.463,40.305,99.691,40.305,98.914"/>
			</defs>
			<clipPath id="SVGID_23_">
				<use xlink:href="#SVGID_22_"  overflow="visible"/>
			</clipPath>
			<linearGradient id="SVGID_24_" gradientUnits="userSpaceOnUse" x1="35.5796" y1="94.8833" x2="58.16" y2="94.8833">
				<stop  offset="0" style="stop-color:#4C97D4"/>
				<stop  offset="1" style="stop-color:#4775B8"/>
			</linearGradient>
			<rect x="35.58" y="88.542" clip-path="url(#SVGID_23_)" fill="url(#SVGID_24_)" width="22.539" height="12.684"/>
		</g>
		<g>
			<defs>
				<path id="SVGID_25_" d="M71.947,36.125L71.947,36.125c-0.706,0-1.501-0.023-2.383-0.067c-0.881-0.043-1.718-0.132-2.486-0.269
					l-0.351-0.063l-0.061-0.35c-0.266-1.505-0.401-3.013-0.401-4.475c0-1.419,0.134-2.925,0.4-4.476l0.061-0.352l0.352-0.063
					c0.752-0.133,1.574-0.235,2.44-0.301c0.857-0.067,1.651-0.1,2.364-0.1c0.754,0,1.583,0.033,2.461,0.1
					c0.888,0.066,1.721,0.168,2.474,0.301l0.351,0.063l0.062,0.35c0.133,0.757,0.224,1.515,0.269,2.252
					c0.044,0.743,0.066,1.49,0.066,2.226c0,0.69-0.022,1.427-0.066,2.19c-0.044,0.76-0.135,1.53-0.269,2.285l-0.062,0.35
					l-0.351,0.063c-0.77,0.137-1.595,0.226-2.453,0.269C73.508,36.102,72.694,36.125,71.947,36.125 M60.289,75.75L60.289,75.75
					c-3.478,0-6.315-0.981-8.432-2.918c-2.131-1.944-3.21-5.124-3.21-9.446V26.54l0.425-0.069c1.593-0.266,3.187-0.401,4.733-0.401
					c1.504,0,3.075,0.135,4.669,0.401l0.424,0.069v34.816c0,1.324,0.075,2.391,0.222,3.183c0.137,0.752,0.351,1.333,0.634,1.73
					c0.266,0.372,0.601,0.623,1.023,0.762c0.468,0.157,1.075,0.237,1.804,0.237c0.338,0,0.705-0.023,1.093-0.062
					c0.4-0.042,0.788-0.105,1.154-0.188l0.476-0.108l0.126,0.473c0.49,1.828,0.739,3.632,0.739,5.371v0.95
					c0,0.326-0.048,0.677-0.146,1.072l-0.069,0.278l-0.273,0.085c-0.729,0.227-1.614,0.389-2.628,0.479
					C62.061,75.705,61.13,75.75,60.289,75.75z M73.06,75.75L73.06,75.75c-1.46,0-3.008-0.133-4.602-0.399l-0.426-0.071v-26.71
					h-4.284l-0.091-0.394c-0.134-0.584-0.237-1.21-0.305-1.862c-0.066-0.644-0.101-1.267-0.101-1.854
					c0-1.212,0.137-2.418,0.406-3.585l0.091-0.395h14.405v34.801l-0.424,0.071C76.135,75.617,74.564,75.75,73.06,75.75z
					 M37.104,76.143L37.104,76.143c-2.893,0-5.449-0.465-7.601-1.385c-2.155-0.918-3.969-2.207-5.39-3.832
					c-1.416-1.619-2.497-3.562-3.213-5.777c-0.711-2.201-1.072-4.625-1.072-7.199c0-2.531,0.349-4.917,1.039-7.094
					c0.693-2.195,1.763-4.149,3.176-5.81c1.42-1.668,3.211-2.992,5.322-3.932c2.108-0.944,4.579-1.421,7.346-1.421
					c0.947,0,1.849,0.022,2.68,0.067c0.822,0.043,1.625,0.135,2.387,0.268c0.754,0.133,1.521,0.315,2.281,0.537
					c0.753,0.224,1.604,0.514,2.528,0.864l0.327,0.125v0.349c0,1.038-0.136,2.207-0.405,3.48c-0.269,1.279-0.702,2.521-1.287,3.69
					l-0.197,0.395l-0.418-0.139c-1.274-0.425-2.403-0.715-3.356-0.866c-0.951-0.148-2.061-0.222-3.294-0.222
					c-2.565,0-4.438,0.804-5.722,2.457c-1.298,1.668-1.957,4.107-1.957,7.251c0,3.392,0.705,5.875,2.093,7.385
					c1.396,1.52,3.245,2.259,5.652,2.259c0.646,0,1.239-0.01,1.779-0.032c0.525-0.021,1.043-0.074,1.542-0.158
					c0.495-0.082,1.011-0.208,1.533-0.375c0.543-0.174,1.182-0.392,1.919-0.651l0.391-0.138l0.213,0.356
					c0.541,0.901,0.999,1.964,1.361,3.161c0.362,1.199,0.546,2.627,0.546,4.24v0.345l-0.32,0.128
					c-1.778,0.71-3.473,1.174-5.036,1.374C40.401,76.043,38.772,76.143,37.104,76.143z M96.988,76.143
					c-2.892,0-5.449-0.465-7.6-1.385c-2.156-0.918-3.968-2.207-5.39-3.832c-1.415-1.619-2.497-3.562-3.212-5.777
					c-0.711-2.201-1.072-4.625-1.072-7.199c0-2.531,0.349-4.917,1.039-7.094c0.693-2.195,1.763-4.149,3.176-5.81
					c1.421-1.668,3.211-2.992,5.321-3.932c2.108-0.944,4.58-1.421,7.346-1.421c0.948,0,1.85,0.022,2.68,0.067
					c0.822,0.043,1.624,0.135,2.386,0.268c0.755,0.133,1.523,0.315,2.281,0.537c0.754,0.224,1.604,0.514,2.527,0.864l0.328,0.125
					v0.349c0,1.038-0.136,2.207-0.405,3.48c-0.269,1.279-0.702,2.521-1.286,3.69l-0.197,0.395l-0.419-0.139
					c-1.274-0.425-2.403-0.715-3.356-0.866c-0.951-0.148-2.06-0.222-3.294-0.222c-2.566,0-4.438,0.804-5.723,2.457
					c-1.299,1.668-1.956,4.107-1.956,7.251c0,3.392,0.704,5.875,2.092,7.385c1.396,1.52,3.245,2.259,5.651,2.259
					c0.647,0,1.24-0.01,1.78-0.032c0.524-0.021,1.044-0.074,1.542-0.158c0.495-0.082,1.011-0.208,1.533-0.375
					c0.542-0.174,1.181-0.392,1.918-0.651l0.392-0.138l0.213,0.356c0.542,0.901,0.999,1.964,1.361,3.161
					c0.362,1.199,0.545,2.627,0.545,4.24v0.345l-0.319,0.128c-1.778,0.71-3.473,1.174-5.037,1.374
					C100.287,76.043,98.656,76.143,96.988,76.143z"/>
			</defs>
			<clipPath id="SVGID_26_">
				<use xlink:href="#SVGID_25_"  overflow="visible"/>
			</clipPath>
			<linearGradient id="SVGID_27_" gradientUnits="userSpaceOnUse" x1="65.1616" y1="67.3911" x2="61.8574" y2="34.3629">
				<stop  offset="0" style="stop-color:#9FC54C"/>
				<stop  offset="0.89" style="stop-color:#52934B"/>
				<stop  offset="1" style="stop-color:#52934B"/>
			</linearGradient>
			<rect x="19.828" y="25.611" clip-path="url(#SVGID_26_)" fill="url(#SVGID_27_)" width="87.362" height="50.532"/>
		</g>
		<g>
			<defs>
				<path id="SVGID_28_" d="M104.849,66.859L104.849,66.859c0.524,0.874,0.959,1.89,1.31,3.046c0.349,1.157,0.523,2.52,0.523,4.093
					c-1.747,0.7-3.384,1.146-4.912,1.343c-1.529,0.195-3.123,0.296-4.782,0.296c-2.838,0-5.305-0.45-7.4-1.345
					c-2.096-0.894-3.831-2.129-5.207-3.7c-1.375-1.572-2.414-3.438-3.111-5.598c-0.699-2.164-1.048-4.51-1.048-7.043
					c0-2.489,0.338-4.802,1.016-6.941c0.676-2.14,1.702-4.018,3.078-5.634c1.376-1.613,3.088-2.882,5.143-3.799
					c2.051-0.916,4.431-1.375,7.138-1.375c0.96,0,1.844,0.023,2.653,0.065c0.807,0.044,1.582,0.133,2.325,0.263
					c0.741,0.131,1.484,0.307,2.226,0.523c0.743,0.22,1.574,0.503,2.49,0.851c0,1.007-0.131,2.131-0.394,3.375
					c-0.261,1.245-0.677,2.435-1.245,3.569c-1.309-0.436-2.456-0.729-3.438-0.884c-0.981-0.153-2.107-0.229-3.372-0.229
					c-2.708,0-4.749,0.884-6.125,2.654c-1.375,1.767-2.063,4.289-2.063,7.563c0,3.538,0.742,6.115,2.227,7.729
					c1.483,1.615,3.493,2.422,6.025,2.422c0.655,0,1.254-0.008,1.801-0.031c0.545-0.023,1.08-0.076,1.605-0.165
					c0.523-0.086,1.058-0.218,1.604-0.394C103.461,67.338,104.106,67.119,104.849,66.859 M67.166,35.289L67.166,35.289
					c-0.262-1.484-0.393-2.946-0.393-4.386c0-1.397,0.131-2.86,0.393-4.389c0.742-0.132,1.54-0.231,2.391-0.295
					c0.852-0.067,1.626-0.097,2.325-0.097c0.742,0,1.549,0.03,2.423,0.097c0.873,0.064,1.68,0.163,2.423,0.295
					c0.131,0.742,0.218,1.472,0.262,2.193c0.043,0.719,0.066,1.451,0.066,2.195c0,0.696-0.023,1.417-0.066,2.16
					c-0.043,0.742-0.13,1.486-0.262,2.226c-0.743,0.132-1.539,0.219-2.391,0.263c-0.851,0.044-1.648,0.065-2.39,0.065
					c-0.698,0-1.484-0.021-2.358-0.065S67.908,35.42,67.166,35.289z M68.542,48.062L68.542,48.062h-4.389
					c-0.131-0.567-0.229-1.168-0.295-1.802c-0.064-0.632-0.097-1.233-0.097-1.801c0-1.179,0.131-2.335,0.393-3.47h13.492v33.86
					c-1.571,0.261-3.101,0.394-4.584,0.394c-1.44,0-2.947-0.133-4.519-0.394V48.062z M49.155,26.971L49.155,26.971
					c1.571-0.263,3.121-0.393,4.649-0.393c1.484,0,3.013,0.13,4.585,0.393v34.384c0,1.355,0.075,2.447,0.229,3.275
					c0.152,0.831,0.393,1.476,0.72,1.934c0.328,0.457,0.753,0.774,1.277,0.948c0.523,0.176,1.178,0.263,1.964,0.263
					c0.35,0,0.732-0.021,1.147-0.066c0.415-0.043,0.818-0.106,1.212-0.197c0.479,1.792,0.72,3.538,0.72,5.241c0,0.35,0,0.665,0,0.95
					c0,0.284-0.044,0.6-0.131,0.95c-0.699,0.217-1.539,0.371-2.522,0.457c-0.982,0.088-1.888,0.133-2.718,0.133
					c-3.362,0-6.058-0.928-8.088-2.785c-2.031-1.856-3.045-4.878-3.045-9.072V26.971z M44.964,66.859
					c0.524,0.874,0.958,1.89,1.31,3.046c0.349,1.157,0.523,2.52,0.523,4.093c-1.746,0.7-3.384,1.146-4.912,1.343
					c-1.529,0.195-3.122,0.296-4.782,0.296c-2.838,0-5.304-0.45-7.4-1.345c-2.097-0.894-3.833-2.129-5.208-3.7
					c-1.375-1.572-2.413-3.438-3.111-5.598c-0.699-2.164-1.047-4.51-1.047-7.043c0-2.489,0.337-4.802,1.016-6.941
					c0.676-2.14,1.702-4.018,3.077-5.634c1.376-1.613,3.089-2.882,5.142-3.799c2.052-0.916,4.431-1.375,7.139-1.375
					c0.96,0,1.844,0.023,2.653,0.065c0.807,0.044,1.582,0.133,2.325,0.263c0.741,0.131,1.483,0.307,2.227,0.523
					c0.742,0.22,1.572,0.503,2.488,0.851c0,1.007-0.131,2.131-0.393,3.375c-0.262,1.245-0.678,2.435-1.245,3.569
					c-1.311-0.436-2.457-0.729-3.438-0.884c-0.983-0.153-2.108-0.229-3.374-0.229c-2.708,0-4.748,0.884-6.123,2.654
					c-1.376,1.767-2.063,4.289-2.063,7.563c0,3.538,0.741,6.115,2.227,7.729c1.483,1.615,3.493,2.422,6.025,2.422
					c0.655,0,1.254-0.008,1.8-0.031c0.545-0.023,1.081-0.076,1.605-0.165c0.524-0.086,1.058-0.218,1.604-0.394
					C43.577,67.338,44.221,67.119,44.964,66.859z"/>
			</defs>
			<clipPath id="SVGID_29_">
				<use xlink:href="#SVGID_28_"  overflow="visible"/>
			</clipPath>
			<linearGradient id="SVGID_30_" gradientUnits="userSpaceOnUse" x1="65.1411" y1="67.0601" x2="61.8784" y2="34.6985">
				<stop  offset="0" style="stop-color:#52934B"/>
				<stop  offset="0.1" style="stop-color:#52934B"/>
				<stop  offset="1" style="stop-color:#9FC54C"/>
			</linearGradient>
			<rect x="20.337" y="26.121" clip-path="url(#SVGID_29_)" fill="url(#SVGID_30_)" width="86.345" height="49.515"/>
		</g>
		<path opacity="0.11" fill="#FFFFFF" d="M37.955,47.733L37.955,47.733c1.266,0,2.391,0.076,3.374,0.229
			c0.982,0.154,2.128,0.448,3.438,0.884c0.567-1.134,0.982-2.324,1.245-3.569c0.262-1.244,0.393-2.367,0.393-3.375
			c-0.916-0.347-1.747-0.631-2.488-0.851c-0.744-0.216-1.485-0.392-2.227-0.523c-0.744-0.13-1.519-0.219-2.325-0.263
			c-0.81-0.042-1.693-0.065-2.653-0.065c-2.708,0-5.087,0.459-7.139,1.375c-2.053,0.917-3.766,2.186-5.142,3.799
			c-1.375,1.617-2.401,3.495-3.077,5.634c-0.097,0.304-0.171,0.62-0.254,0.931c2.682,1.274,5.638,2.42,8.84,3.428
			c0.278-2.047,0.906-3.711,1.894-4.981C33.207,48.618,35.247,47.733,37.955,47.733 M68.542,60.482L68.542,60.482
			c2.98-0.011,6.018-0.099,9.103-0.269V40.989H64.153c-0.262,1.135-0.393,2.291-0.393,3.47c0,0.568,0.033,1.168,0.097,1.801
			c0.066,0.634,0.164,1.234,0.295,1.802h4.389V60.482z M74.305,26.218L74.305,26.218c-0.874-0.067-1.681-0.097-2.423-0.097
			c-0.699,0-1.474,0.03-2.325,0.097c-0.851,0.064-1.648,0.163-2.391,0.295c-0.262,1.528-0.393,2.991-0.393,4.389
			c0,1.44,0.131,2.902,0.393,4.386c0.742,0.132,1.549,0.219,2.423,0.263s1.66,0.065,2.358,0.065c0.742,0,1.539-0.021,2.39-0.065
			c0.852-0.044,1.648-0.131,2.391-0.263c0.131-0.74,0.218-1.484,0.262-2.226c0.043-0.743,0.066-1.464,0.066-2.16
			c0-0.744-0.023-1.476-0.066-2.195c-0.043-0.721-0.13-1.451-0.262-2.193C75.985,26.381,75.177,26.283,74.305,26.218z
			 M53.805,26.578L53.805,26.578c-1.529,0-3.079,0.13-4.649,0.393v32.417c2.979,0.367,6.063,0.642,9.235,0.828V26.971
			C56.818,26.708,55.289,26.578,53.805,26.578z M103.799,41.052c0.743,0.22,1.574,0.503,2.49,0.851c0,1.007-0.131,2.131-0.394,3.375
			c-0.261,1.245-0.677,2.435-1.245,3.569c-1.309-0.436-2.456-0.729-3.438-0.884c-0.981-0.153-2.107-0.229-3.372-0.229
			c-2.708,0-4.749,0.884-6.125,2.654c-1.375,1.767-2.063,4.289-2.063,7.563c0,0.417,0.012,0.818,0.033,1.207
			c-3.161,0.379-6.289,0.675-9.374,0.889c-0.055-0.685-0.091-1.381-0.091-2.096c0-2.489,0.338-4.802,1.016-6.941
			c0.676-2.14,1.702-4.018,3.078-5.634c1.376-1.613,3.088-2.882,5.143-3.799c2.051-0.916,4.431-1.375,7.138-1.375
			c0.96,0,1.844,0.023,2.653,0.065c0.807,0.044,1.582,0.133,2.325,0.263C102.315,40.66,103.058,40.836,103.799,41.052z"/>
		<g>
			<defs>
				<path id="SVGID_31_" d="M131.913,68.042L131.913,68.042c-0.031-0.794-0.15-1.586-0.355-2.357
					c-0.239-0.89-0.612-1.679-1.113-2.341c-0.497-0.656-1.15-1.198-1.94-1.61c-0.791-0.409-1.759-0.613-2.887-0.613
					c-2.076,0-3.708,0.638-4.851,1.896c-1.086,1.198-1.781,2.887-2.065,5.025H131.913z M126.707,83.673L126.707,83.673
					c-2.129,0-3.994-0.322-5.539-0.958c-1.557-0.637-2.854-1.545-3.855-2.696c-0.999-1.145-1.746-2.529-2.219-4.113
					c-0.467-1.563-0.704-3.303-0.704-5.167c0-1.798,0.22-3.51,0.654-5.088c0.439-1.591,1.117-3.01,2.011-4.214
					c0.906-1.218,2.082-2.188,3.495-2.876c1.41-0.688,3.114-1.037,5.066-1.037c1.63,0,3.106,0.282,4.386,0.84
					c1.285,0.561,2.38,1.354,3.255,2.36c0.872,1.005,1.538,2.219,1.978,3.609c0.438,1.377,0.66,2.895,0.66,4.51
					c0,0.289-0.008,0.657-0.023,1.104c-0.016,0.455-0.042,0.842-0.073,1.164l-0.037,0.383h-17.204
					c0.063,2.878,0.769,5.027,2.102,6.387c1.394,1.424,3.541,2.146,6.378,2.146c1.171,0,2.267-0.101,3.258-0.298
					c1.001-0.201,1.994-0.476,2.948-0.814l0.367-0.13l0.162,0.355c0.17,0.378,0.309,0.84,0.409,1.376
					c0.097,0.514,0.163,0.992,0.196,1.418l0.022,0.298l-0.271,0.121c-0.94,0.422-2.058,0.752-3.32,0.979
					C129.553,83.557,128.172,83.673,126.707,83.673z M143.905,83.673L143.905,83.673c-1.531,0-2.917-0.099-4.118-0.291
					c-1.217-0.196-2.215-0.459-2.968-0.788l-0.314-0.137l0.067-0.334c0.195-0.972,0.505-1.956,0.926-2.928l0.165-0.38l0.386,0.157
					c0.664,0.272,1.546,0.512,2.617,0.709c1.074,0.201,2.117,0.302,3.098,0.302c1.79,0,3.219-0.394,4.245-1.169
					c1.002-0.76,1.49-1.664,1.49-2.768c0-0.769-0.147-1.405-0.438-1.889c-0.298-0.499-0.702-0.926-1.202-1.266
					c-0.518-0.356-1.114-0.65-1.77-0.875c-0.695-0.236-1.408-0.48-2.135-0.734c-0.786-0.252-1.586-0.542-2.365-0.862
					c-0.812-0.33-1.541-0.756-2.169-1.271c-0.643-0.523-1.165-1.167-1.553-1.91c-0.393-0.75-0.593-1.694-0.593-2.803
					c0-2.045,0.759-3.731,2.257-5.012c1.478-1.261,3.761-1.9,6.79-1.9c1.248,0,2.477,0.113,3.657,0.339
					c1.153,0.221,2.07,0.465,2.724,0.721c0.009-0.052,0.094-0.493,0.094-0.493h4.047v-4.302l3.188-3.137h0.787v7.439h6.463
					l0.067,0.342c0.035,0.171,0.061,0.377,0.079,0.617c0.015,0.233,0.025,0.481,0.025,0.744c0,0.262-0.01,0.523-0.025,0.785
					c-0.018,0.276-0.044,0.5-0.079,0.671l-0.067,0.341h-6.462V76.9c0,0.726,0.091,1.297,0.271,1.696
					c0.175,0.393,0.401,0.696,0.674,0.905c0.28,0.214,0.595,0.35,0.958,0.418c0.396,0.073,0.808,0.109,1.227,0.109
					c1.053,0,1.979-0.135,2.751-0.402l0.43-0.148l0.118,0.439c0.226,0.842,0.389,1.757,0.486,2.721l0.034,0.346l-0.331,0.1
					c-1.175,0.359-2.555,0.541-4.105,0.541c-1.896,0-3.462-0.52-4.658-1.549c-1.215-1.042-1.83-2.736-1.83-5.033V61.592h-4.046
					l-0.067-0.341c-0.031-0.156-0.058-0.362-0.076-0.608c-0.1,0.398-0.214,0.791-0.338,1.177l-0.13,0.408l-0.407-0.136
					c-0.643-0.214-1.481-0.433-2.489-0.651c-0.997-0.211-2.042-0.32-3.109-0.32c-1.816,0-3.103,0.308-3.825,0.917
					c-0.713,0.6-1.058,1.37-1.058,2.353c0,0.516,0.113,0.96,0.336,1.315c0.236,0.372,0.56,0.695,0.964,0.96
					c0.429,0.282,0.928,0.531,1.481,0.739c0.575,0.219,1.193,0.422,1.839,0.605c0.857,0.285,1.732,0.599,2.617,0.937
					c0.9,0.344,1.732,0.802,2.473,1.36c0.755,0.573,1.383,1.302,1.869,2.169c0.49,0.882,0.74,1.987,0.74,3.286
					c0,1.199-0.246,2.306-0.731,3.29c-0.482,0.986-1.169,1.832-2.037,2.516c-0.859,0.677-1.894,1.204-3.077,1.565
					C146.599,83.49,145.298,83.673,143.905,83.673z M179.015,83.673L179.015,83.673c-1.508,0-2.95-0.147-4.284-0.438
					c-1.373-0.296-2.582-0.877-3.593-1.723c-1.013-0.847-1.828-2.026-2.418-3.506c-0.587-1.466-0.885-3.384-0.885-5.702V58.156
					l0.355-0.058c0.206-0.035,0.485-0.06,0.857-0.077c0.355-0.016,0.612-0.024,0.775-0.024c0.195,0,0.463,0.008,0.804,0.024
					c0.352,0.018,0.628,0.042,0.83,0.077l0.354,0.058v13.958c0,1.654,0.169,3.022,0.502,4.065c0.322,1.012,0.8,1.81,1.42,2.372
					c0.622,0.565,1.397,0.963,2.303,1.184c0.941,0.227,2.024,0.343,3.218,0.343c1.022,0,1.943-0.056,2.739-0.163
					c0.666-0.088,1.273-0.208,1.812-0.349V58.156l0.355-0.058c0.206-0.035,0.486-0.06,0.854-0.077
					c0.356-0.016,0.614-0.024,0.778-0.024c0.194,0,0.461,0.008,0.803,0.024c0.351,0.018,0.629,0.042,0.83,0.077l0.354,0.058v24.232
					l-0.312,0.084c-1.178,0.319-2.508,0.602-3.953,0.84C182.06,83.551,180.546,83.673,179.015,83.673z M202.706,61.167
					L202.706,61.167c-1.414,0-2.655,0.24-3.684,0.718c-1.026,0.474-1.891,1.144-2.572,1.989c-0.69,0.855-1.213,1.896-1.558,3.097
					c-0.351,1.22-0.528,2.583-0.528,4.054c0,3.15,0.744,5.46,2.215,6.871c1.475,1.416,3.614,2.132,6.363,2.132
					c1.025,0,2.014-0.054,2.937-0.162c0.749-0.088,1.37-0.189,1.852-0.307V62.029c-0.566-0.204-1.263-0.393-2.08-0.565
					C204.704,61.266,203.713,61.167,202.706,61.167z M203.085,83.673L203.085,83.673c-1.763,0-3.443-0.214-4.992-0.631
					c-1.57-0.426-2.949-1.14-4.097-2.126c-1.152-0.986-2.076-2.298-2.746-3.9c-0.666-1.591-1.004-3.576-1.004-5.897
					c0-2.122,0.295-4.04,0.876-5.707c0.586-1.673,1.43-3.111,2.507-4.27c1.081-1.162,2.399-2.065,3.917-2.687
					c1.515-0.618,3.203-0.931,5.016-0.931c1.058,0,2.126,0.09,3.175,0.266c0.766,0.13,1.433,0.273,1.993,0.433V47.495l0.355-0.058
					c0.203-0.033,0.486-0.059,0.855-0.076c0.355-0.015,0.614-0.023,0.777-0.023c0.195,0,0.461,0.008,0.802,0.023
					c0.352,0.017,0.629,0.043,0.83,0.076l0.356,0.058v34.923l-0.292,0.097c-0.991,0.318-2.241,0.596-3.715,0.821
					C206.223,83.559,204.671,83.673,203.085,83.673z M231.602,68.042L231.602,68.042c-0.031-0.794-0.149-1.587-0.356-2.357
					c-0.237-0.889-0.612-1.678-1.112-2.341c-0.498-0.656-1.151-1.198-1.944-1.61c-0.787-0.409-1.758-0.613-2.884-0.613
					c-2.076,0-3.708,0.638-4.852,1.896c-1.086,1.198-1.779,2.887-2.063,5.025H231.602z M226.395,83.673
					c-2.13,0-3.993-0.322-5.537-0.958c-1.559-0.64-2.854-1.545-3.855-2.696c-1-1.144-1.745-2.528-2.219-4.113
					c-0.468-1.563-0.705-3.303-0.705-5.167c0-1.799,0.22-3.511,0.654-5.088c0.439-1.591,1.118-3.01,2.011-4.214
					c0.907-1.218,2.082-2.189,3.494-2.876c1.409-0.688,3.114-1.037,5.066-1.037c1.629,0,3.105,0.282,4.388,0.84
					c1.284,0.561,2.378,1.354,3.252,2.36c0.873,1.006,1.538,2.222,1.98,3.609c0.437,1.376,0.66,2.894,0.66,4.51
					c0,0.289-0.009,0.657-0.025,1.104c-0.017,0.455-0.041,0.842-0.072,1.164l-0.038,0.383h-17.203
					c0.063,2.878,0.769,5.027,2.102,6.387c1.394,1.424,3.54,2.146,6.378,2.146c1.17,0,2.264-0.101,3.258-0.298
					c1.003-0.201,1.995-0.476,2.95-0.814l0.367-0.13l0.161,0.357c0.172,0.378,0.311,0.841,0.408,1.375
					c0.097,0.521,0.165,0.999,0.196,1.419l0.023,0.298l-0.272,0.121c-0.939,0.422-2.057,0.752-3.32,0.979
					C229.241,83.557,227.861,83.673,226.395,83.673z"/>
			</defs>
			<clipPath id="SVGID_32_">
				<use xlink:href="#SVGID_31_"  overflow="visible"/>
			</clipPath>
			<linearGradient id="SVGID_33_" gradientUnits="userSpaceOnUse" x1="114.3901" y1="65.5049" x2="235.5854" y2="65.5049">
				<stop  offset="0" style="stop-color:#9FC54C"/>
				<stop  offset="0.89" style="stop-color:#52934B"/>
				<stop  offset="1" style="stop-color:#52934B"/>
			</linearGradient>
			<rect x="114.39" y="47.337" clip-path="url(#SVGID_32_)" fill="url(#SVGID_33_)" width="121.195" height="36.336"/>
		</g>
		<g>
			<defs>
				<path id="SVGID_34_" d="M232.033,68.465L232.033,68.465c0-0.979-0.126-1.942-0.377-2.89c-0.253-0.947-0.649-1.779-1.185-2.488
					c-0.538-0.711-1.231-1.288-2.085-1.731c-0.853-0.441-1.88-0.663-3.08-0.663c-2.21,0-3.932,0.682-5.166,2.039
					c-1.231,1.357-1.974,3.271-2.226,5.732H232.033z M217.82,71.072L217.82,71.072c0,3.222,0.742,5.59,2.226,7.108
					c1.486,1.514,3.712,2.272,6.682,2.272c1.2,0,2.312-0.103,3.34-0.307c1.027-0.207,2.03-0.482,3.01-0.829
					c0.157,0.346,0.283,0.773,0.377,1.277c0.094,0.509,0.159,0.965,0.189,1.375c-0.915,0.412-1.989,0.727-3.221,0.949
					c-1.232,0.221-2.575,0.331-4.028,0.331c-2.084,0-3.877-0.309-5.377-0.924c-1.5-0.615-2.732-1.476-3.695-2.582
					c-0.964-1.105-1.675-2.424-2.133-3.956c-0.459-1.532-0.687-3.215-0.687-5.047c0-1.769,0.214-3.427,0.64-4.975
					c0.427-1.548,1.074-2.904,1.943-4.075c0.869-1.169,1.981-2.084,3.341-2.748c1.357-0.663,2.982-0.995,4.879-0.995
					c1.58,0,2.984,0.268,4.218,0.805c1.231,0.539,2.266,1.288,3.103,2.252c0.837,0.963,1.469,2.115,1.896,3.46
					c0.426,1.342,0.64,2.801,0.64,4.38c0,0.286-0.008,0.648-0.024,1.09c-0.017,0.444-0.041,0.822-0.071,1.138H217.82z
					 M208.154,61.737L208.154,61.737c-0.632-0.252-1.437-0.482-2.416-0.687c-0.979-0.203-1.99-0.307-3.032-0.307
					c-1.484,0-2.772,0.253-3.862,0.757c-1.089,0.506-1.999,1.208-2.725,2.108c-0.727,0.901-1.271,1.982-1.633,3.247
					c-0.364,1.263-0.545,2.653-0.545,4.169c0,3.286,0.78,5.678,2.344,7.176c1.564,1.501,3.783,2.251,6.657,2.251
					c1.042,0,2.038-0.053,2.985-0.166c0.948-0.111,1.688-0.244,2.226-0.402V61.737z M208.154,47.854L208.154,47.854
					c0.19-0.03,0.458-0.054,0.807-0.071c0.348-0.015,0.6-0.021,0.757-0.021c0.19,0,0.451,0.007,0.782,0.021
					c0.333,0.017,0.592,0.041,0.783,0.071v34.258c-0.981,0.316-2.197,0.583-3.649,0.806c-1.453,0.221-2.968,0.331-4.548,0.331
					c-1.738,0-3.364-0.204-4.881-0.615c-1.515-0.41-2.827-1.09-3.932-2.04c-1.107-0.944-1.982-2.193-2.631-3.742
					c-0.647-1.547-0.971-3.459-0.971-5.734c0-2.083,0.284-3.939,0.853-5.565c0.569-1.629,1.375-3.002,2.418-4.124
					c1.041-1.121,2.296-1.981,3.765-2.582c1.469-0.6,3.087-0.901,4.857-0.901c1.042,0,2.078,0.088,3.104,0.26
					c1.027,0.174,1.854,0.372,2.486,0.592V47.854z M168.259,58.516L168.259,58.516c0.191-0.031,0.457-0.057,0.806-0.071
					c0.347-0.017,0.6-0.026,0.757-0.026c0.189,0,0.451,0.009,0.782,0.026c0.333,0.015,0.592,0.04,0.783,0.071v13.598
					c0,1.706,0.173,3.103,0.521,4.194c0.346,1.089,0.86,1.942,1.539,2.558s1.508,1.042,2.488,1.279
					c0.978,0.236,2.085,0.354,3.317,0.354c1.042,0,1.974-0.052,2.796-0.166c0.821-0.109,1.546-0.26,2.18-0.449V58.516
					c0.188-0.031,0.457-0.057,0.804-0.071c0.347-0.017,0.6-0.026,0.759-0.026c0.19,0,0.449,0.009,0.781,0.026
					c0.331,0.015,0.593,0.04,0.782,0.071v23.548c-1.17,0.316-2.474,0.593-3.91,0.83c-1.438,0.236-2.914,0.354-4.43,0.354
					c-1.485,0-2.883-0.141-4.193-0.427c-1.311-0.284-2.449-0.828-3.412-1.634c-0.964-0.806-1.729-1.919-2.298-3.341
					c-0.569-1.422-0.853-3.27-0.853-5.543V58.516z M157.269,61.169L157.269,61.169h-4.124c-0.031-0.157-0.054-0.363-0.071-0.617
					c-0.017-0.251-0.023-0.505-0.023-0.758c0-0.252,0.007-0.49,0.023-0.711c0.017-0.219,0.04-0.409,0.071-0.567h4.124v-4.549
					l2.937-2.891h0.189v7.439h6.539c0.031,0.158,0.054,0.348,0.072,0.567c0.015,0.221,0.022,0.458,0.022,0.711
					c0,0.253-0.008,0.507-0.022,0.758c-0.018,0.254-0.042,0.46-0.072,0.617h-6.539V76.9c0,0.79,0.103,1.414,0.309,1.871
					c0.205,0.459,0.473,0.814,0.805,1.067c0.332,0.252,0.711,0.417,1.137,0.496c0.426,0.082,0.86,0.119,1.303,0.119
					c1.105,0,2.069-0.141,2.89-0.425c0.222,0.821,0.379,1.706,0.475,2.652c-1.137,0.347-2.464,0.521-3.981,0.521
					c-1.799,0-3.261-0.481-4.381-1.444c-1.122-0.966-1.682-2.537-1.682-4.714V61.169z M137.888,79.362L137.888,79.362
					c0.694,0.287,1.595,0.531,2.702,0.735c1.105,0.207,2.162,0.309,3.175,0.309c1.894,0,3.395-0.418,4.501-1.256
					c1.105-0.835,1.658-1.87,1.658-3.104c0-0.851-0.166-1.554-0.498-2.109c-0.332-0.55-0.775-1.018-1.326-1.396
					c-0.555-0.378-1.177-0.687-1.872-0.923c-0.696-0.238-1.406-0.482-2.132-0.735c-0.791-0.251-1.571-0.536-2.346-0.853
					c-0.773-0.314-1.461-0.718-2.061-1.207c-0.6-0.489-1.082-1.081-1.444-1.778c-0.365-0.693-0.545-1.564-0.545-2.607
					c0-1.924,0.703-3.488,2.109-4.688c1.404-1.2,3.577-1.801,6.514-1.801c1.231,0,2.423,0.113,3.577,0.332
					c1.153,0.221,2.044,0.458,2.678,0.712c-0.159,0.917-0.379,1.815-0.664,2.699c-0.664-0.22-1.508-0.442-2.535-0.663
					c-1.027-0.221-2.092-0.333-3.198-0.333c-1.928,0-3.293,0.341-4.099,1.02s-1.208,1.573-1.208,2.677
					c0,0.601,0.133,1.114,0.402,1.541c0.269,0.424,0.632,0.79,1.091,1.089c0.458,0.301,0.979,0.561,1.563,0.783
					c0.583,0.221,1.208,0.427,1.872,0.616c0.853,0.284,1.711,0.592,2.583,0.922c0.867,0.333,1.658,0.767,2.367,1.304
					c0.712,0.537,1.297,1.217,1.754,2.037c0.458,0.821,0.687,1.848,0.687,3.08c0,1.138-0.228,2.173-0.687,3.104
					c-0.458,0.932-1.099,1.722-1.919,2.369c-0.821,0.647-1.801,1.145-2.938,1.492c-1.137,0.347-2.384,0.521-3.743,0.521
					c-1.516,0-2.865-0.094-4.05-0.284c-1.186-0.191-2.141-0.442-2.866-0.757C137.178,81.259,137.478,80.311,137.888,79.362z
					 M132.346,68.465L132.346,68.465c0-0.979-0.127-1.942-0.379-2.89c-0.253-0.947-0.648-1.779-1.184-2.488
					c-0.538-0.711-1.233-1.288-2.086-1.731c-0.852-0.441-1.879-0.663-3.08-0.663c-2.211,0-3.933,0.682-5.166,2.039
					c-1.23,1.357-1.974,3.271-2.227,5.732H132.346z M118.13,71.072c0,3.222,0.742,5.59,2.227,7.108
					c1.484,1.514,3.71,2.272,6.68,2.272c1.201,0,2.315-0.103,3.342-0.307c1.025-0.207,2.028-0.482,3.008-0.829
					c0.158,0.346,0.284,0.773,0.379,1.277c0.095,0.509,0.157,0.965,0.189,1.375c-0.917,0.412-1.99,0.727-3.222,0.949
					c-1.233,0.221-2.575,0.331-4.028,0.331c-2.085,0-3.878-0.309-5.378-0.924c-1.5-0.615-2.733-1.476-3.695-2.582
					c-0.964-1.105-1.675-2.424-2.133-3.956s-0.687-3.215-0.687-5.047c0-1.769,0.213-3.427,0.641-4.975
					c0.426-1.548,1.072-2.904,1.943-4.075c0.868-1.169,1.98-2.084,3.34-2.748c1.357-0.663,2.984-0.995,4.88-0.995
					c1.58,0,2.985,0.268,4.216,0.805c1.234,0.539,2.269,1.288,3.106,2.252c0.835,0.963,1.469,2.115,1.895,3.46
					c0.426,1.342,0.64,2.801,0.64,4.38c0,0.286-0.008,0.648-0.024,1.09c-0.017,0.444-0.04,0.822-0.072,1.138H118.13z"/>
			</defs>
			<clipPath id="SVGID_35_">
				<use xlink:href="#SVGID_34_"  overflow="visible"/>
			</clipPath>
			<linearGradient id="SVGID_36_" gradientUnits="userSpaceOnUse" x1="114.813" y1="65.5044" x2="235.1616" y2="65.5044">
				<stop  offset="0" style="stop-color:#52934B"/>
				<stop  offset="0.1" style="stop-color:#52934B"/>
				<stop  offset="1" style="stop-color:#9FC54C"/>
			</linearGradient>
			<rect x="114.813" y="47.761" clip-path="url(#SVGID_35_)" fill="url(#SVGID_36_)" width="120.349" height="35.487"/>
		</g>
		<path opacity="0.11" fill="#FFFFFF" d="M211.283,63.762V47.854c-0.191-0.03-0.451-0.054-0.783-0.071
			c-0.331-0.015-0.591-0.021-0.782-0.021c-0.157,0-0.41,0.007-0.757,0.021c-0.349,0.017-0.617,0.041-0.807,0.071v10.946
			c-0.632-0.221-1.459-0.418-2.486-0.592c-1.026-0.172-2.062-0.26-3.104-0.26c-1.77,0-3.388,0.301-4.857,0.901
			c-1.469,0.601-2.724,1.46-3.765,2.582c-1.043,1.122-1.849,2.495-2.418,4.124c-0.314,0.899-0.533,1.878-0.673,2.92
			c1.146-0.206,2.277-0.419,3.395-0.638c0.068-0.335,0.148-0.663,0.241-0.979c0.362-1.264,0.906-2.345,1.633-3.247
			c0.727-0.9,1.636-1.602,2.725-2.108c1.089-0.504,2.377-0.757,3.862-0.757c1.042,0,2.053,0.104,3.032,0.307
			c0.979,0.205,1.784,0.435,2.416,0.687v2.897C209.219,64.349,210.263,64.058,211.283,63.762"/>
		<path opacity="0.11" fill="#FFFFFF" d="M187.355,58.516c-0.189-0.031-0.451-0.057-0.782-0.071
			c-0.332-0.017-0.591-0.026-0.781-0.026c-0.159,0-0.412,0.009-0.759,0.026c-0.348,0.015-0.616,0.04-0.804,0.071V69.58
			c1.052-0.163,2.093-0.33,3.126-0.503V58.516z"/>
		<path opacity="0.11" fill="#FFFFFF" d="M220.427,58.942c-1.36,0.663-2.472,1.579-3.341,2.748
			c-0.078,0.105-0.144,0.219-0.218,0.324c3.74-1.26,7.087-2.589,9.979-3.962c-0.497-0.063-1.005-0.104-1.541-0.104
			C223.409,57.947,221.784,58.279,220.427,58.942"/>
		<path opacity="0.11" fill="#FFFFFF" d="M120.451,62.733L120.451,62.733c1.233-1.357,2.954-2.039,5.166-2.039
			c1.201,0,2.228,0.222,3.08,0.663c0.853,0.443,1.548,1.02,2.086,1.731c0.536,0.709,0.931,1.541,1.184,2.488
			c0.252,0.948,0.379,1.911,0.379,2.89h-14.121C118.477,66.003,119.221,64.09,120.451,62.733 M118.13,71.072h17.247
			c0.032-0.316,0.055-0.694,0.072-1.138c0.016-0.442,0.024-0.804,0.024-1.09c0-1.579-0.214-3.039-0.64-4.38
			c-0.426-1.345-1.06-2.497-1.895-3.46c-0.837-0.964-1.872-1.713-3.106-2.252c-1.23-0.537-2.636-0.805-4.216-0.805
			c-1.896,0-3.523,0.332-4.88,0.995c-1.359,0.663-2.472,1.579-3.34,2.748c-0.871,1.171-1.517,2.527-1.943,4.075
			c-0.427,1.548-0.641,3.207-0.641,4.975c0,0.201,0.013,0.393,0.019,0.589c1.08,0.149,2.187,0.29,3.318,0.417
			C118.143,71.523,118.13,71.304,118.13,71.072z"/>
		<path opacity="0.11" fill="#FFFFFF" d="M160.395,72.224V61.169h6.539c0.031-0.157,0.054-0.363,0.072-0.617
			c0.015-0.251,0.022-0.505,0.022-0.758c0-0.252-0.008-0.49-0.022-0.711c-0.018-0.219-0.042-0.409-0.072-0.567h-6.539v-7.439h-0.189
			l-2.937,2.891v4.549h-4.124c-0.031,0.158-0.054,0.348-0.071,0.567c-0.017,0.221-0.023,0.458-0.023,0.711
			c0,0.253,0.007,0.507,0.023,0.758c0.017,0.254,0.04,0.46,0.071,0.617h4.124v11.259C158.303,72.368,159.346,72.299,160.395,72.224"
			/>
		<path opacity="0.11" fill="#FFFFFF" d="M171.387,58.516c-0.191-0.031-0.45-0.057-0.783-0.071
			c-0.331-0.017-0.593-0.026-0.782-0.026c-0.157,0-0.41,0.009-0.757,0.026c-0.35,0.015-0.615,0.04-0.806,0.071v13.051
			c1.048-0.101,2.091-0.208,3.128-0.318V58.516z"/>
		<path opacity="0.11" fill="#FFFFFF" d="M150.751,70.645c-0.709-0.538-1.5-0.971-2.367-1.304c-0.871-0.331-1.73-0.639-2.583-0.922
			c-0.664-0.189-1.288-0.395-1.872-0.616c-0.585-0.222-1.106-0.482-1.563-0.783c-0.458-0.3-0.822-0.665-1.091-1.089
			c-0.269-0.427-0.402-0.94-0.402-1.541c0-1.104,0.402-1.999,1.208-2.677s2.171-1.02,4.099-1.02c1.105,0,2.171,0.112,3.198,0.333
			c1.027,0.22,1.872,0.443,2.535,0.663c0.285-0.883,0.504-1.782,0.664-2.699c-0.633-0.254-1.524-0.491-2.678-0.712
			c-1.154-0.219-2.346-0.332-3.577-0.332c-2.937,0-5.109,0.601-6.514,1.801c-1.406,1.201-2.109,2.765-2.109,4.688
			c0,1.043,0.181,1.915,0.545,2.607c0.363,0.697,0.845,1.289,1.444,1.778c0.599,0.489,1.288,0.893,2.061,1.207
			c0.775,0.317,1.556,0.602,2.346,0.853c0.727,0.253,1.437,0.498,2.132,0.735c0.694,0.237,1.317,0.545,1.872,0.923
			c0.122,0.085,0.218,0.189,0.329,0.279c1.345-0.037,2.702-0.087,4.072-0.145C152.043,71.855,151.459,71.181,150.751,70.645"/>
	</g>
</g>
</svg>
