<?xml version="1.0" encoding="utf-8"?>
<!-- Generator: Adobe Illustrator 16.0.0, SVG Export Plug-In . SVG Version: 6.00 Build 0)  -->
<!DOCTYPE svg PUBLIC "-//W3C//DTD SVG 1.1//EN" "http://www.w3.org/Graphics/SVG/1.1/DTD/svg11.dtd">
<svg version="1.1" id="Camada_1" xmlns="http://www.w3.org/2000/svg" xmlns:xlink="http://www.w3.org/1999/xlink" x="0px" y="0px"
	 width="750.467px" height="195.792px" viewBox="0 0 750.467 195.792" enable-background="new 0 0 750.467 195.792"
	 xml:space="preserve">
<g>
	<g>
		<path fill="#FFFFFF" d="M74.112,194.977c0,0,12.802,2.288,11.565-0.804c0,0-0.371-0.742-3.648-1.795
			c-6.556-2.226-12.246-6.678-17.75-11.379C29.337,151.563,24.206,98.563,53.085,62.076c0,0,0.371-0.434,0.557-0.681
			c5.751-7.235,12.863-12.679,20.594-16.265c5.999-2.723,6.184-3.959,6.184-3.959c1.793-6.184-21.027-1.174-21.027-1.174
			c-15.77,4.267-30.427,13.604-41.559,27.644C7.506,80.752,1.631,96.09,0.147,111.612c3.092,24.119,14.595,47.001,34.199,63.451
			C46.283,185.144,59.951,191.761,74.112,194.977z"/>
		<path fill="#FFFFFF" d="M0.828,74.135c0,0-2.288,12.802,0.742,11.564c0,0,0.743-0.371,1.855-3.648
			c2.165-6.493,6.679-12.244,11.317-17.748C44.243,29.36,97.181,24.228,133.729,53.17c0,0,0.371,0.371,0.618,0.496
			c7.297,5.75,12.678,12.862,16.265,20.594c2.783,5.998,4.02,6.123,4.02,6.123c6.123,1.854,1.113-20.965,1.113-20.965
			c-4.267-15.771-13.605-30.428-27.644-41.56C115.054,7.467,99.715,1.654,84.193,0.17C60.075,3.263,37.191,14.766,20.68,34.369
			C10.6,46.306,3.981,59.974,0.828,74.135z"/>
		<path fill="#FFFFFF" d="M121.608,0.789c0,0-12.802-2.227-11.503,0.803c0,0,0.371,0.742,3.587,1.793
			c6.556,2.227,12.245,6.742,17.811,11.38c34.88,29.499,40.075,82.438,11.132,118.925c0,0-0.371,0.433-0.495,0.681
			c-5.751,7.234-12.864,12.678-20.656,16.264c-5.999,2.723-6.123,4.021-6.123,4.021c-1.855,6.123,21.027,1.113,21.027,1.113
			c15.708-4.267,30.365-13.604,41.497-27.644c10.39-13.051,16.203-28.388,17.749-43.91c-3.092-24.118-14.657-47-34.2-63.512
			C149.438,10.623,135.833,4.004,121.608,0.789z"/>
		<path fill="#FFFFFF" d="M194.956,121.63c0,0,2.288-12.801-0.804-11.504c0,0-0.68,0.373-1.793,3.588
			c-2.165,6.556-6.679,12.246-11.379,17.812c-29.438,34.88-82.438,40.013-118.926,11.132c0,0-0.433-0.371-0.618-0.494
			c-7.297-5.752-12.74-12.926-16.327-20.656c-2.721-5.998-3.958-6.123-3.958-6.123c-6.185-1.854-1.175,21.027-1.175,21.027
			c4.329,15.709,13.605,30.428,27.644,41.498c13.111,10.389,28.448,16.201,43.971,17.748c24.119-3.093,46.939-14.656,63.452-34.199
			C185.122,149.46,191.74,135.792,194.956,121.63z"/>
	</g>
	<g>
		<path fill="#FFFFFF" d="M228.511,66.695h22.705c2.223,0,3.188,0.098,4.251,0.676c1.256,0.726,2.126,2.125,2.126,3.961
			s-0.87,3.237-2.126,3.961c-1.063,0.58-2.028,0.676-4.251,0.676h-22.705v20.773h27.633c2.222,0,3.188,0.098,4.251,0.676
			c1.256,0.726,2.126,2.125,2.126,3.96s-0.87,3.236-2.126,3.961c-1.063,0.58-2.029,0.678-4.251,0.678h-31.691
			c-1.546,0-3.381,0-4.879-1.498c-1.498-1.497-1.498-3.333-1.498-4.879V43.604c0-1.546,0-3.382,1.498-4.879s3.333-1.498,4.879-1.498
			h31.691c2.222,0,3.188,0.097,4.251,0.676c1.256,0.726,2.126,2.125,2.126,3.962c0,1.836-0.87,3.236-2.126,3.961
			c-1.063,0.579-2.029,0.676-4.251,0.676h-27.633V66.695L228.511,66.695z"/>
		<path fill="#FFFFFF" d="M303.243,86.695c0-3.092-0.773-5.507-2.706-7.15c-1.738-1.545-4.058-2.416-7.487-2.897l-8.164-1.159
			c-5.556-0.82-9.759-2.561-12.995-5.556c-3.431-3.14-5.073-7.585-5.073-13.188c0-11.98,8.696-20.097,22.995-20.097
			c6.522,0,10.483,1.063,16.185,4.058c2.415,1.256,4.202,3.045,4.202,5.267c0,1.11-0.386,2.222-1.207,3.188
			c-0.773,0.916-1.788,1.498-3.188,1.498c-1.11,0-2.803-0.629-4.203-1.498c-4.105-2.513-7.343-3.383-12.173-3.383
			c-8.116,0-12.464,4.396-12.464,10.676c0,2.512,0.676,4.832,2.512,6.377c1.739,1.547,3.769,2.512,7.536,3.092l8.213,1.256
			c6.28,0.967,9.759,2.416,12.754,5.121c3.672,3.382,5.604,8.117,5.604,14.106c0,12.657-10.241,20.194-24.734,20.194
			c-8.261,0-13.43-1.596-18.502-4.639c-3.575-2.125-4.88-3.574-4.88-6.085c0-1.16,0.531-2.513,1.449-3.431
			c0.87-0.87,1.933-1.256,3.044-1.256c1.353,0,2.561,0.435,4.444,1.739c4.638,3.188,8.695,4.396,14.638,4.396
			C298.122,97.324,303.243,93.459,303.243,86.695z"/>
		<path fill="#FFFFFF" d="M361.356,45.826c-1.063,0.58-2.029,0.676-4.252,0.676h-12.946v52.802c0,2.561-0.048,3.382-0.772,4.734
			c-0.772,1.399-2.367,2.366-4.443,2.366c-2.078,0-3.673-0.967-4.445-2.366c-0.725-1.354-0.772-2.174-0.772-4.734V46.502h-12.946
			c-2.223,0-3.188-0.096-4.251-0.676c-1.257-0.725-2.126-2.125-2.126-3.961s0.869-3.236,2.126-3.961
			c1.063-0.58,2.028-0.676,4.251-0.676h36.329c2.222,0,3.188,0.098,4.251,0.676c1.256,0.725,2.126,2.125,2.126,3.961
			S362.612,45.102,361.356,45.826z"/>
		<path fill="#FFFFFF" d="M367.971,82.832V43.941c0-2.561,0.049-3.381,0.773-4.734c0.771-1.4,2.367-2.367,4.444-2.367
			c2.076,0,3.672,0.967,4.444,2.367c0.726,1.354,0.773,2.174,0.773,4.734v38.406c0,9.227,5.604,14.977,14.202,14.977
			c8.6,0,14.202-5.75,14.202-14.977V43.941c0-2.561,0.05-3.381,0.773-4.734c0.772-1.4,2.367-2.367,4.444-2.367
			s3.672,0.967,4.443,2.367c0.726,1.354,0.773,2.174,0.773,4.734V82.83c0,14.203-10.629,23.769-24.639,23.769
			C378.601,106.599,367.971,97.035,367.971,82.832z"/>
		<path fill="#FFFFFF" d="M434.637,37.228h17.826c8.646,0,14.977,2.897,19.613,8.744c4.831,6.184,5.072,13.43,5.072,25.651
			c0,12.224-0.339,19.565-5.17,25.75c-4.59,5.893-10.869,8.646-19.517,8.646h-17.826c-1.546,0-3.382,0-4.88-1.498
			c-1.497-1.497-1.497-3.333-1.497-4.879V43.604c0-1.546,0-3.382,1.497-4.879C431.255,37.228,433.091,37.228,434.637,37.228z
			 M438.695,96.744h12.561c4.977,0,8.938-1.353,11.836-4.686c3.431-3.865,3.623-10.242,3.623-20.436
			c0-10.192-0.192-16.569-3.623-20.435c-2.897-3.333-6.859-4.687-11.836-4.687h-12.561V96.744z"/>
		<path fill="#FFFFFF" d="M492.75,92.203l-3.431,9.227c-0.869,2.319-1.305,3.188-2.271,3.962c-0.771,0.628-1.738,1.016-2.85,1.016
			c-1.449,0-2.898-0.58-3.816-1.547c-1.979-2.029-1.353-4.203-0.339-6.908l21.063-56.088c0.725-1.98,1.256-2.802,2.076-3.574
			c1.016-0.967,2.175-1.449,3.816-1.449s2.802,0.482,3.816,1.449c0.82,0.772,1.353,1.594,2.076,3.574l21.063,56.088
			c1.014,2.705,1.643,4.878-0.339,6.908c-0.918,0.967-2.367,1.547-3.816,1.547c-1.11,0-2.077-0.388-2.85-1.016
			c-0.967-0.773-1.401-1.643-2.271-3.962l-3.431-9.227H492.75z M507,53.217l-11.015,30.098h22.028L507,53.217z"/>
		<path fill="#FFFFFF" d="M593.325,90.463c-1.159,2.465-2.608,3.865-5.313,3.865c-2.706,0-4.154-1.4-5.361-3.865L568.06,60.028
			v39.275c0,2.562-0.048,3.382-0.772,4.733c-0.772,1.4-2.366,2.367-4.444,2.367c-2.077,0-3.671-0.967-4.443-2.367
			c-0.726-1.353-0.772-2.174-0.772-4.733V43.266c0-1.691,0.241-3.525,1.546-4.879c1.11-1.111,2.513-1.547,3.816-1.547
			c1.207,0,2.271,0.291,2.945,0.677c0.821,0.483,1.886,1.786,2.562,3.14l19.518,39.807l19.42-39.807
			c0.678-1.354,1.739-2.656,2.562-3.14c0.676-0.388,1.739-0.677,2.946-0.677c1.305,0,2.706,0.436,3.815,1.547
			c1.305,1.354,1.546,3.188,1.546,4.879v56.039c0,2.561-0.048,3.382-0.771,4.734c-0.773,1.399-2.367,2.366-4.444,2.366
			s-3.672-0.967-4.443-2.366c-0.726-1.354-0.773-2.174-0.773-4.734V60.029L593.325,90.463z"/>
		<path fill="#FFFFFF" d="M637.283,92.203l-3.432,9.227c-0.868,2.319-1.304,3.188-2.271,3.962c-0.772,0.628-1.738,1.016-2.85,1.016
			c-1.449,0-2.898-0.58-3.816-1.547c-1.98-2.029-1.354-4.203-0.339-6.908l21.063-56.088c0.726-1.98,1.257-2.802,2.077-3.574
			c1.016-0.967,2.174-1.449,3.816-1.449c1.642,0,2.802,0.482,3.815,1.449c0.821,0.772,1.354,1.594,2.077,3.574l21.063,56.088
			c1.014,2.705,1.643,4.878-0.339,6.908c-0.918,0.967-2.367,1.547-3.816,1.547c-1.111,0-2.077-0.388-2.85-1.016
			c-0.967-0.773-1.401-1.643-2.271-3.962l-3.431-9.227H637.283z M651.534,53.217l-11.016,30.098h22.029L651.534,53.217z"/>
		<path fill="#FFFFFF" d="M694.428,104.039c-0.771,1.4-2.366,2.367-4.443,2.367s-3.671-0.967-4.444-2.367
			c-0.725-1.353-0.771-2.174-0.771-4.733V43.941c0-2.561,0.048-3.381,0.771-4.734c0.773-1.4,2.367-2.367,4.444-2.367
			s3.672,0.967,4.443,2.367c0.727,1.354,0.773,2.174,0.773,4.734v55.363C695.202,101.865,695.154,102.686,694.428,104.039z"/>
		<path fill="#FFFFFF" d="M740.128,86.695c0-3.092-0.771-5.507-2.705-7.15c-1.739-1.545-4.058-2.416-7.487-2.897l-8.165-1.159
			c-5.556-0.82-9.758-2.561-12.994-5.556c-3.431-3.14-5.072-7.585-5.072-13.188c0-11.98,8.695-20.097,22.995-20.097
			c6.521,0,10.482,1.063,16.184,4.058c2.416,1.256,4.202,3.045,4.202,5.267c0,1.11-0.387,2.222-1.207,3.188
			c-0.771,0.916-1.787,1.498-3.188,1.498c-1.11,0-2.803-0.629-4.202-1.498c-4.106-2.513-7.345-3.383-12.175-3.383
			c-8.115,0-12.465,4.396-12.465,10.676c0,2.512,0.678,4.832,2.514,6.377c1.738,1.547,3.768,2.512,7.536,3.092l8.213,1.256
			c6.279,0.967,9.758,2.416,12.753,5.121c3.672,3.382,5.604,8.117,5.604,14.106c0,12.657-10.242,20.194-24.733,20.194
			c-8.262,0-13.432-1.596-18.503-4.639c-3.574-2.125-4.88-3.574-4.88-6.085c0-1.16,0.531-2.513,1.449-3.431
			c0.869-0.87,1.934-1.256,3.043-1.256c1.354,0,2.562,0.435,4.445,1.739c4.638,3.188,8.695,4.396,14.638,4.396
			C735.008,97.324,740.128,93.459,740.128,86.695z"/>
	</g>
	<g>
		<path fill="#FFFFFF" d="M220.196,162.479v-30.876c0-0.857,0-1.875,0.83-2.705s1.848-0.83,2.705-0.83h10.926
			c7.444,0,12.211,4.928,12.211,11.568c0,6.642-4.767,11.516-12.211,11.516h-8.677v11.327c0,1.42-0.027,1.875-0.428,2.625
			c-0.429,0.776-1.313,1.312-2.464,1.312s-2.035-0.535-2.463-1.312C220.223,164.354,220.196,163.899,220.196,162.479z
			 M225.98,146.01h8.355c4.07,0,6.748-2.356,6.748-6.374c0-4.097-2.678-6.427-6.748-6.427h-8.355V146.01z"/>
		<path fill="#FFFFFF" d="M253.933,158.542l-1.901,5.115c-0.482,1.285-0.723,1.768-1.259,2.196c-0.428,0.348-0.964,0.562-1.58,0.562
			c-0.803,0-1.606-0.321-2.115-0.856c-1.098-1.125-0.75-2.33-0.188-3.829l11.676-31.091c0.401-1.099,0.696-1.554,1.151-1.981
			c0.563-0.536,1.205-0.804,2.116-0.804c0.91,0,1.553,0.268,2.115,0.804c0.456,0.428,0.75,0.883,1.152,1.981l11.675,31.091
			c0.563,1.499,0.911,2.704-0.187,3.829c-0.509,0.535-1.313,0.856-2.116,0.856c-0.616,0-1.151-0.214-1.58-0.562
			c-0.536-0.429-0.776-0.911-1.259-2.196l-1.901-5.115H253.933z M261.833,136.932l-6.106,16.684h12.211L261.833,136.932z"/>
		<path fill="#FFFFFF" d="M283.222,165.372c-0.83-0.83-0.83-1.848-0.83-2.705v-30.876c0-1.419,0.027-1.875,0.429-2.624
			c0.428-0.777,1.312-1.313,2.463-1.313c1.152,0,2.035,0.535,2.464,1.313c0.402,0.749,0.428,1.205,0.428,2.624v29.27h15.05
			c1.231,0,1.767,0.054,2.356,0.375c0.696,0.401,1.178,1.178,1.178,2.195c0,1.019-0.482,1.795-1.178,2.196
			c-0.589,0.321-1.125,0.375-2.356,0.375h-17.3C285.069,166.202,284.052,166.202,283.222,165.372z"/>
		<path fill="#FFFFFF" d="M331.767,157.579c-0.643,1.366-1.446,2.143-2.946,2.143s-2.303-0.776-2.973-2.143l-8.087-16.871v21.771
			c0,1.42-0.026,1.875-0.428,2.625c-0.429,0.776-1.312,1.312-2.464,1.312c-1.151,0-2.035-0.535-2.463-1.312
			c-0.402-0.75-0.429-1.205-0.429-2.625v-31.063c0-0.938,0.134-1.955,0.857-2.705c0.616-0.615,1.393-0.856,2.116-0.856
			c0.669,0,1.258,0.16,1.633,0.375c0.456,0.268,1.044,0.99,1.419,1.74l10.819,22.066l10.765-22.066
			c0.375-0.75,0.964-1.473,1.419-1.74c0.375-0.215,0.964-0.375,1.633-0.375c0.723,0,1.5,0.241,2.116,0.856
			c0.723,0.75,0.857,1.768,0.857,2.705v31.063c0,1.42-0.027,1.875-0.429,2.625c-0.428,0.776-1.312,1.312-2.463,1.312
			c-1.152,0-2.035-0.535-2.464-1.312c-0.402-0.75-0.428-1.205-0.428-2.625v-21.771L331.767,157.579z"/>
		<path fill="#FFFFFF" d="M360.224,144.404h12.586c1.232,0,1.767,0.053,2.357,0.375c0.696,0.401,1.178,1.178,1.178,2.195
			s-0.481,1.794-1.178,2.196c-0.59,0.321-1.125,0.375-2.357,0.375h-12.586v11.515h15.317c1.232,0,1.768,0.054,2.357,0.375
			c0.696,0.401,1.178,1.178,1.178,2.195c0,1.019-0.481,1.795-1.178,2.196c-0.59,0.321-1.125,0.375-2.357,0.375h-17.567
			c-0.857,0-1.875,0-2.705-0.83s-0.83-1.848-0.83-2.705v-31.063c0-0.857,0-1.875,0.83-2.705s1.848-0.83,2.705-0.83h17.567
			c1.232,0,1.768,0.054,2.357,0.375c0.696,0.401,1.178,1.179,1.178,2.196s-0.481,1.794-1.178,2.195
			c-0.59,0.321-1.125,0.375-2.357,0.375h-15.317V144.404z"/>
		<path fill="#FFFFFF" d="M390.933,165.104c-0.428,0.776-1.312,1.312-2.463,1.312c-1.152,0-2.035-0.535-2.464-1.312
			c-0.402-0.75-0.429-1.205-0.429-2.625v-30.688c0-1.419,0.026-1.875,0.429-2.624c0.429-0.777,1.312-1.313,2.464-1.313
			c1.151,0,2.035,0.535,2.463,1.313c0.402,0.749,0.429,1.205,0.429,2.624v30.688C391.361,163.899,391.335,164.354,390.933,165.104z"
			/>
		<path fill="#FFFFFF" d="M400.195,162.479v-30.876c0-0.857,0-1.875,0.83-2.705s1.848-0.83,2.705-0.83h11.247
			c7.23,0,11.836,4.66,11.836,11.141c0,5.436-3.294,8.917-7.552,10.122l6.829,11.917c0.67,1.179,0.884,1.66,0.91,2.383
			c0.027,0.938-0.428,1.795-1.419,2.384c-0.482,0.295-1.044,0.401-1.553,0.401c-1.446,0-2.116-1.018-2.866-2.356l-7.953-13.925
			h-7.23v12.345c0,1.42-0.026,1.875-0.429,2.625c-0.428,0.776-1.312,1.312-2.463,1.312c-1.152,0-2.035-0.535-2.464-1.312
			C400.222,164.354,400.195,163.899,400.195,162.479z M405.979,133.209v11.997h8.569c3.856,0,6.48-2.195,6.48-5.944
			c0-3.776-2.624-6.053-6.48-6.053H405.979z"/>
		<path fill="#FFFFFF" d="M438.108,158.542l-1.901,5.115c-0.481,1.285-0.723,1.768-1.258,2.196c-0.429,0.348-0.965,0.562-1.58,0.562
			c-0.804,0-1.607-0.321-2.116-0.856c-1.098-1.125-0.749-2.33-0.188-3.829l11.676-31.091c0.402-1.099,0.696-1.554,1.151-1.981
			c0.563-0.536,1.205-0.804,2.116-0.804c0.91,0,1.553,0.268,2.115,0.804c0.455,0.428,0.75,0.883,1.151,1.981l11.676,31.091
			c0.563,1.499,0.911,2.704-0.188,3.829c-0.509,0.535-1.312,0.856-2.115,0.856c-0.616,0-1.151-0.214-1.58-0.562
			c-0.535-0.429-0.776-0.911-1.259-2.196l-1.901-5.115H438.108z M446.009,136.932l-6.105,16.684h12.211L446.009,136.932z"/>
		<path fill="#FFFFFF" d="M481.883,128.068h9.881c4.794,0,8.302,1.607,10.873,4.848c2.678,3.428,2.812,7.444,2.812,14.22
			c0,6.774-0.188,10.845-2.865,14.272c-2.544,3.268-6.025,4.794-10.819,4.794h-9.881c-0.857,0-1.875,0-2.705-0.83
			s-0.83-1.848-0.83-2.705v-31.063c0-0.857,0-1.875,0.83-2.705S481.025,128.068,481.883,128.068z M484.132,161.06h6.963
			c2.758,0,4.954-0.75,6.561-2.598c1.901-2.143,2.009-5.677,2.009-11.327s-0.107-9.186-2.009-11.328
			c-1.606-1.848-3.803-2.598-6.561-2.598h-6.963V161.06z"/>
		<path fill="#FFFFFF" d="M511.601,147.135c0-8.008,0.134-11.81,3.829-15.506c2.464-2.463,5.678-3.883,9.882-3.883
			c4.178,0,7.391,1.42,9.854,3.883c3.695,3.696,3.856,7.498,3.856,15.506c0,8.007-0.161,11.81-3.856,15.505
			c-2.464,2.464-5.677,3.883-9.854,3.883c-4.204,0-7.418-1.419-9.882-3.883C511.734,158.945,511.601,155.142,511.601,147.135z
			 M525.312,161.381c2.303,0,4.258-0.91,5.677-2.41c1.875-2.009,2.25-4.284,2.25-11.836s-0.375-9.855-2.25-11.863
			c-1.419-1.5-3.374-2.384-5.677-2.384c-2.33,0-4.285,0.884-5.677,2.384c-1.901,2.008-2.25,4.312-2.25,11.863
			s0.349,9.827,2.25,11.836C521.026,160.471,522.981,161.381,525.312,161.381z"/>
		<path fill="#FFFFFF" d="M564.723,155.49c0-1.714-0.429-3.053-1.5-3.963c-0.964-0.857-2.249-1.339-4.15-1.607l-4.525-0.643
			c-3.08-0.455-5.41-1.419-7.204-3.079c-1.901-1.741-2.812-4.204-2.812-7.311c0-6.642,4.82-11.141,12.747-11.141
			c3.615,0,5.811,0.589,8.971,2.25c1.339,0.696,2.33,1.687,2.33,2.919c0,0.615-0.215,1.231-0.67,1.767
			c-0.429,0.509-0.99,0.831-1.768,0.831c-0.615,0-1.553-0.349-2.329-0.831c-2.276-1.392-4.071-1.874-6.749-1.874
			c-4.499,0-6.909,2.437-6.909,5.918c0,1.393,0.375,2.678,1.393,3.535c0.965,0.856,2.089,1.393,4.178,1.714l4.553,0.696
			c3.481,0.535,5.409,1.339,7.069,2.839c2.035,1.874,3.106,4.498,3.106,7.819c0,7.016-5.677,11.193-13.711,11.193
			c-4.579,0-7.444-0.884-10.256-2.57c-1.982-1.179-2.705-1.982-2.705-3.375c0-0.643,0.295-1.393,0.804-1.901
			c0.481-0.481,1.071-0.696,1.687-0.696c0.75,0,1.42,0.241,2.464,0.965c2.571,1.768,4.82,2.437,8.114,2.437
			C561.884,161.381,564.723,159.239,564.723,155.49z"/>
		<path fill="#FFFFFF" d="M594.224,165.104c-0.428,0.776-1.312,1.312-2.463,1.312c-1.152,0-2.035-0.535-2.464-1.312
			c-0.402-0.75-0.429-1.205-0.429-2.625v-30.688c0-1.419,0.026-1.875,0.429-2.624c0.429-0.777,1.312-1.313,2.464-1.313
			c1.151,0,2.035,0.535,2.463,1.313c0.402,0.749,0.429,1.205,0.429,2.624v30.688C594.652,163.899,594.626,164.354,594.224,165.104z
			 M594.706,123.06c-0.375,0.59-0.776,1.179-1.179,1.474c-0.401,0.294-0.776,0.428-1.258,0.428c-0.429,0-0.884-0.134-1.313-0.401
			c-0.83-0.535-1.205-1.259-1.151-2.063c0.026-0.589,0.241-1.018,0.83-1.981l2.49-3.99c0.375-0.589,0.776-1.178,1.179-1.473
			c0.401-0.294,0.776-0.429,1.259-0.429c0.428,0,0.883,0.135,1.312,0.402c0.83,0.535,1.205,1.259,1.151,2.062
			c-0.026,0.59-0.24,1.018-0.83,1.981L594.706,123.06z"/>
		<path fill="#FFFFFF" d="M609.271,162.479c0,1.42-0.026,1.875-0.429,2.625c-0.428,0.776-1.312,1.312-2.463,1.312
			c-1.152,0-2.035-0.535-2.464-1.312c-0.402-0.75-0.429-1.205-0.429-2.625v-30.93c0-1.259,0.188-2.143,0.83-2.785
			c0.589-0.589,1.313-0.91,2.196-0.91c1.365,0,2.223,0.83,3.374,2.544l16.55,24.449v-23.057c0-1.419,0.026-1.875,0.428-2.624
			c0.429-0.777,1.313-1.313,2.464-1.313s2.035,0.535,2.464,1.313c0.401,0.749,0.429,1.205,0.429,2.624v30.957
			c0,1.258-0.188,2.115-0.83,2.758c-0.59,0.589-1.313,0.91-2.196,0.91c-1.365,0-2.223-0.83-3.374-2.544l-16.55-24.449V162.479z"/>
		<path fill="#FFFFFF" d="M644.586,128.068h9.881c4.794,0,8.302,1.607,10.873,4.848c2.678,3.428,2.812,7.444,2.812,14.22
			c0,6.774-0.188,10.845-2.865,14.272c-2.544,3.268-6.025,4.794-10.819,4.794h-9.881c-0.857,0-1.875,0-2.705-0.83
			s-0.83-1.848-0.83-2.705v-31.063c0-0.857,0-1.875,0.83-2.705S643.729,128.068,644.586,128.068z M646.835,161.06h6.963
			c2.758,0,4.954-0.75,6.561-2.598c1.901-2.143,2.009-5.677,2.009-11.327s-0.107-9.186-2.009-11.328
			c-1.606-1.848-3.803-2.598-6.561-2.598h-6.963V161.06z"/>
		<path fill="#FFFFFF" d="M680.998,165.104c-0.428,0.776-1.312,1.312-2.463,1.312c-1.152,0-2.035-0.535-2.464-1.312
			c-0.402-0.75-0.429-1.205-0.429-2.625v-30.688c0-1.419,0.026-1.875,0.429-2.624c0.429-0.777,1.312-1.313,2.464-1.313
			c1.151,0,2.035,0.535,2.463,1.313c0.402,0.749,0.429,1.205,0.429,2.624v30.688C681.427,163.899,681.4,164.354,680.998,165.104z"/>
		<path fill="#FFFFFF" d="M688.922,147.135c0-8.008,0.134-11.81,3.829-15.506c2.464-2.463,5.678-3.883,9.882-3.883
			c4.178,0,7.391,1.42,9.854,3.883c3.695,3.696,3.856,7.498,3.856,15.506c0,8.007-0.161,11.81-3.856,15.505
			c-2.464,2.464-5.677,3.883-9.854,3.883c-4.204,0-7.418-1.419-9.882-3.883C689.056,158.945,688.922,155.142,688.922,147.135z
			 M702.633,161.381c2.303,0,4.258-0.91,5.677-2.41c1.875-2.009,2.25-4.284,2.25-11.836s-0.375-9.855-2.25-11.863
			c-1.419-1.5-3.374-2.384-5.677-2.384c-2.33,0-4.285,0.884-5.677,2.384c-1.901,2.008-2.25,4.312-2.25,11.863
			s0.349,9.827,2.25,11.836C698.348,160.471,700.303,161.381,702.633,161.381z"/>
		<path fill="#FFFFFF" d="M742.045,155.49c0-1.714-0.429-3.053-1.5-3.963c-0.964-0.857-2.249-1.339-4.15-1.607l-4.525-0.643
			c-3.08-0.455-5.41-1.419-7.204-3.079c-1.901-1.741-2.812-4.204-2.812-7.311c0-6.642,4.82-11.141,12.747-11.141
			c3.615,0,5.811,0.589,8.971,2.25c1.339,0.696,2.33,1.687,2.33,2.919c0,0.615-0.215,1.231-0.67,1.767
			c-0.429,0.509-0.99,0.831-1.768,0.831c-0.615,0-1.553-0.349-2.329-0.831c-2.276-1.392-4.071-1.874-6.749-1.874
			c-4.499,0-6.909,2.437-6.909,5.918c0,1.393,0.375,2.678,1.393,3.535c0.965,0.856,2.089,1.393,4.178,1.714l4.553,0.696
			c3.481,0.535,5.409,1.339,7.069,2.839c2.035,1.874,3.105,4.498,3.105,7.819c0,7.016-5.676,11.193-13.71,11.193
			c-4.579,0-7.444-0.884-10.256-2.57c-1.982-1.179-2.705-1.982-2.705-3.375c0-0.643,0.295-1.393,0.804-1.901
			c0.481-0.481,1.071-0.696,1.687-0.696c0.75,0,1.42,0.241,2.464,0.965c2.571,1.768,4.82,2.437,8.114,2.437
			C739.206,161.381,742.045,159.239,742.045,155.49z"/>
	</g>
</g>
</svg>
