<?xml version="1.0" encoding="utf-8"?>
<!-- Generator: Adobe Illustrator 16.0.0, SVG Export Plug-In . SVG Version: 6.00 Build 0)  -->
<!DOCTYPE svg PUBLIC "-//W3C//DTD SVG 1.1//EN" "http://www.w3.org/Graphics/SVG/1.1/DTD/svg11.dtd">
<svg version="1.1" id="Camada_1" xmlns="http://www.w3.org/2000/svg" xmlns:xlink="http://www.w3.org/1999/xlink" x="0px" y="0px"
	 width="201.567px" height="127.378px" viewBox="0 0 201.567 127.378" enable-background="new 0 0 201.567 127.378"
	 xml:space="preserve">
<g>
	<path fill-rule="evenodd" clip-rule="evenodd" fill="#FFFFFF" d="M123.886,32.586c-0.664-0.566-1.358-1.097-2.077-1.592
		c-3.505-2.414-7.581-3.958-11.768-4.666c-8.124-1.37-17.345,0.357-23.607,5.964c-3.028,2.711-5.111,6.122-6.155,10.045
		c3.123-0.115,6.193-0.602,9.212-1.405l2.694-0.717l1.294,2.922C103.319,38.894,113.484,35.192,123.886,32.586 M66.535,24.359
		c0.153-0.822-1.463-3.166-1.961-3.812l-1.708-2.217l2.176-1.812c2.679-2.23,5.357-4.461,8.036-6.692l2.811-2.34l1.972,3.013
		c0.682,1.041,1.701,1.843,2.987,1.903c0.592,0.027,1.498-0.151,1.849-0.678c0.4-0.598-0.427-1.682-0.809-2.117l-3.188-3.628
		l4.818-1.198c4.613-1.147,9.227-2.295,13.84-3.442l4.384-1.09l-0.426,4.277c-0.091,0.91,0.001,2.05,1.004,2.414
		c0.669,0.243,1.511,0.102,2.092-0.301c0.859-0.596,1.001-1.637,0.875-2.602L104.763,0l4.222,0.712
		c4.911,0.829,9.822,1.657,14.733,2.486l4.039,0.682l-1.718,3.532c-0.323,0.665-1.248,2.896-0.471,3.455
		c0.916,0.659,3.465,0.112,3.593-1.173l0.51-5.069l4.434,2.876c2.455,1.593,4.911,3.187,7.367,4.78l3.855,2.502l-3.88,2.47
		c-0.53,0.337-1.83,1.301-1.473,2.092c0.227,0.499,0.988,0.568,1.457,0.539c1.022-0.063,2.096-0.561,2.944-1.107l2.537-1.632
		l1.804,2.351c1.712,2.23,3.423,4.461,5.134,6.692l2.124,2.766c10.627,0.537,20.829,3.136,30.062,8.538l15.53,9.087L185.23,43.29
		l-1.108,2.913l-2.738-0.6c-2.313-0.506-4.674-0.709-7.039-0.634c-6.955,0.223-13.722,2.82-19.928,5.793
		c-6.962,3.335-13.615,7.307-20.526,10.757c-5.565,2.778-11.341,5.264-17.397,6.747c-7.034,1.722-14.044,1.955-21.113,0.27
		l-5.605-1.337c-12.961,4.275-28.224,7.004-41.417,2.175c-11.086-4.057-18.405-12.601-23.22-23.136l-1.212-2.652
		c-0.217,0.002-0.434,0.011-0.651,0.023c-1.063,0.064-2.111,0.252-3.127,0.577L0,50.614l17.295-11.719
		c6.648-4.504,13.744-6.717,21.809-5.979c0.185,0.018,0.369,0.036,0.552,0.055c-0.91-3.031-1.82-6.062-2.729-9.093
		c-5.021-0.667-9.636-2.756-11.019-8.067c-0.934-3.363,0.393-6.993,4.115-7.664c0.915-0.165,1.848-0.123,2.732,0.166
		c1.602-5.007,6.922-7.892,11.985-7.892c4.314,0,8.802,2.067,11.059,5.849c0.912,1.528,1.385,3.232,1.385,5.013
		c0,1.717-0.44,3.364-1.291,4.852c1.716,1.248,2.348,3.17,2.134,5.248l-0.02,0.189l-0.045,0.186c-1.022,4.25-3.92,6.419-7.908,7.683
		c0.094,0.471,0.241,1.119,0.468,1.527l3.345,0.924c1.172-2.209,2.344-4.417,3.516-6.626l1.609-3.03l2.978,1.88
		C62.737,24.602,65.78,24.986,66.535,24.359z M37.269,97.979l-0.8-2.331c-0.085-0.246-0.225-0.664-0.371-0.868
		c-0.194-0.241-0.418-0.423-0.699-0.555c-0.32-0.147-0.671-0.192-1.021-0.192c-0.872,0-1.502,0.204-2.027,0.929
		c-0.556,0.754-0.652,2.532-0.652,3.458c0,0.903,0.105,3.374,0.7,4.041c0.431,0.48,1.052,0.561,1.664,0.561
		c0.438,0,1.236-0.047,1.561-0.373c0.578-0.575,0.916-1.606,1.102-2.384L37.269,97.979z M50.147,100.647l6.942-16.852H43.286
		c0.413,0.208,0.815,0.437,1.204,0.687c2.834,1.827,4.698,4.531,5.835,7.664l1.164,3.203l-11.828,2.403L50.147,100.647z
		 M80.063,83.89c-0.093,0.002-0.186,0.004-0.279,0.004c-0.442,0-0.883-0.027-1.323-0.076c-0.459-0.048-0.914-0.139-1.351-0.283
		v0.262h-4.858l7.812,18.946V83.89z M99.196,83.796h-4.984l4.984,6.681V83.796z M113.91,102.023l7.51-18.228h-7.51V102.023z
		 M144.299,83.796h-7.718l7.718,18.72V83.796z M113.556,115.419c0.954-0.479,2.018-0.677,3.08-0.677c0.4,0,0.8,0.026,1.195,0.085
		h10.185c0.421-0.062,0.847-0.085,1.271-0.085c0.407,0,0.813,0.025,1.216,0.085h21.723c0.389-0.059,0.782-0.085,1.175-0.085
		c0.737,0,1.479,0.09,2.184,0.315c0.103-0.129,0.213-0.25,0.331-0.364c0.017-0.016,0.033-0.032,0.051-0.048h-22.942l-1.413-4.33
		h-5.443l-1.394,4.33h-24.046l-5.971-7.979v7.979H68.693l-1.413-4.33h-5.443l-1.393,4.33H44.379l1.101-2.672
		c-1.005,0.771-2.109,1.394-3.283,1.87c-1.035,0.424-2.122,0.718-3.225,0.913c0.606,0.031,1.214,0.115,1.788,0.304
		c0.295,0.098,0.582,0.222,0.855,0.369c0.452-0.229,0.933-0.396,1.427-0.509l-0.039-0.094h0.537
		c0.389-0.059,0.782-0.085,1.175-0.085c0.4,0,0.8,0.026,1.196,0.085h16.957c0.039,0,0.078,0,0.117,0h11.08
		c0.389-0.059,0.782-0.085,1.175-0.085c1.148,0,2.297,0.223,3.309,0.775v-0.69h5.739c0.808,0,1.617,0.104,2.377,0.391l0.163-0.391
		h12.219c0.034,0,0.068,0,0.102,0h10.182c0.389-0.059,0.781-0.085,1.175-0.085C111.559,114.742,112.616,114.928,113.556,115.419z
		 M41.601,125.293c-0.331,0.151-0.671,0.282-1.021,0.383c-0.754,0.22-1.542,0.302-2.327,0.302c-1.056,0-2.115-0.171-3.07-0.639
		c-0.982-0.476-1.779-1.211-2.317-2.161c-0.493-0.865-0.727-1.824-0.727-2.817c0-1.052,0.262-2.063,0.815-2.963
		c0.602-0.969,1.485-1.688,2.527-2.142c0.153-0.065,0.31-0.124,0.469-0.176c-0.457,0.021-0.914,0.029-1.372,0.029
		c-2.987,0-6.166-0.336-8.94-1.496c-2.714-1.137-4.857-3.085-6.513-5.487c-1.958-2.854-2.669-6.235-2.669-9.652
		c0-4.608,1.279-8.967,4.757-12.164c3.339-3.077,7.718-4.222,12.165-4.34v-9.657h12.476c0.095,0,0.189,0.001,0.284,0.002v-0.002
		h40.816c0.756,0,1.537,0.052,2.265,0.269c0.177,0.051,0.352,0.112,0.521,0.183l0.189-0.451h6.355l0.386,0.923v-0.923h30.291
		c0.415-0.063,0.836-0.093,1.256-0.093c0.425,0,0.851,0.027,1.271,0.093h8.914c0.582,0,1.167,0.064,1.73,0.216l0.09-0.216h12.142
		v4.128h0.316v-4.128h5.962c0.208,0,0.416,0.006,0.623,0.021v-0.021h11.376v4.236h0.092v7.247h-1.406
		c0.823,0.397,1.592,0.893,2.282,1.497c0.848,0.737,1.552,1.599,2.096,2.576v-5.463h15.242v32.239h-15.242V99.054
		c-0.598,1.09-1.386,2.041-2.335,2.851c-2.769,2.36-6.578,3.006-10.114,3.006h-1.694v8.666h4.162l0.07,1.381
		c0.596-0.149,1.211-0.215,1.825-0.215c1.586,0,3.134,0.424,4.332,1.499c1.186,1.063,1.748,2.505,1.748,4.08
		c0,1.02-0.208,2.019-0.727,2.905c-0.527,0.907-1.301,1.608-2.236,2.081c-0.537,0.271-1.11,0.453-1.701,0.558l0.01,0.026h-0.176
		c-0.391,0.059-0.786,0.086-1.182,0.086c-0.413,0-0.826-0.026-1.235-0.086h-7.792c-0.452,0.542-1.054,0.933-1.714,1.178
		c-0.611,0.223-1.265,0.309-1.913,0.309c-0.509,0-1.018-0.051-1.521-0.126l-1.973-0.297l-1.49,0.236l0.368-1.3h-0.116
		c-0.404,0.062-0.813,0.09-1.222,0.09c-0.417,0-0.834-0.025-1.249-0.071c-0.053-0.006-0.105-0.012-0.159-0.019h-14.818v-0.06
		c-0.511,0.103-1.033,0.146-1.554,0.146c-0.436,0-0.873-0.025-1.304-0.086h-10.108c-0.391,0.059-0.787,0.086-1.182,0.086
		c-0.993,0-1.988-0.151-2.902-0.551c-0.081-0.036-0.16-0.073-0.24-0.112c-0.16,0.084-0.325,0.16-0.493,0.228
		c-0.789,0.32-1.637,0.439-2.484,0.439c-0.427,0-0.854-0.027-1.275-0.09H78.548v-0.686c-0.064,0.036-0.127,0.069-0.192,0.102
		c-0.946,0.479-1.993,0.67-3.048,0.67c-0.414,0-0.828-0.026-1.237-0.086H47.634l-0.173-0.413c-0.847,0.354-1.761,0.499-2.678,0.499
		c-0.993,0-1.987-0.152-2.902-0.551C41.787,125.384,41.693,125.34,41.601,125.293z"/>
	<path fill-rule="evenodd" clip-rule="evenodd" fill="#FFFFFF" d="M80.157,42.437c3.034-0.102,6.123-0.551,9.359-1.413l2.616-0.697
		l1.299,2.935c9.568-4.132,19.983-7.969,30.653-10.629c-13.546-11.717-39.193-8.358-43.923,9.786L80.157,42.437z M53.914,32.002
		c1.184-2.231,2.368-4.462,3.551-6.693l1.561-2.94l2.892,1.826c0.802,0.506,3.944,0.906,4.703,0.214
		c0.213-0.863-1.515-3.325-1.972-3.919l-1.653-2.145l2.106-1.754c2.679-2.23,5.358-4.461,8.036-6.693l2.729-2.272l1.915,2.924
		c0.681,1.041,1.721,1.883,3.061,1.945c0.64,0.03,1.563-0.167,1.932-0.719c0.438-0.655-0.413-1.771-0.817-2.231l-3.085-3.513
		l4.668-1.161c4.613-1.147,9.227-2.294,13.839-3.442l4.255-1.058l-0.412,4.145c-0.094,0.928,0.001,2.125,1.063,2.512
		c0.704,0.255,1.577,0.104,2.179-0.313c0.899-0.625,1.042-1.708,0.915-2.691l-0.508-3.911l4.098,0.691
		c4.911,0.829,9.822,1.658,14.732,2.486l3.916,0.661l-1.662,3.42c-0.307,0.629-1.299,2.957-0.441,3.572
		c0.973,0.7,3.604,0.123,3.741-1.24l0.495-4.916l4.304,2.792c2.455,1.593,4.911,3.187,7.366,4.78l3.734,2.423l-3.758,2.391
		c-3.413,2.173-0.752,4.115,3.031,1.682l2.464-1.586l1.752,2.282c1.711,2.231,3.422,4.462,5.134,6.693l2.148,2.801
		c10.541,0.527,20.755,3.081,30.063,8.527l15.044,8.803l-15.862-3.193l-1.108,2.911l-2.659-0.582
		c-27.161-5.945-52.264,30.979-86.003,22.933l-5.631-1.343c-25.951,8.566-51.49,7.667-64.547-20.903l-1.237-2.707
		c-0.24,0.002-0.479,0.01-0.717,0.024c-1.076,0.064-2.128,0.254-3.15,0.581L0.591,50.327l16.757-11.354
		c6.583-4.46,13.626-6.707,21.748-5.963c0.23,0.021,0.461,0.045,0.691,0.07c-0.929-3.095-1.858-6.191-2.788-9.287
		c-5.095-0.665-9.637-2.77-11-8.007c-0.875-3.153,0.245-6.862,4.041-7.546c1.011-0.182,1.945-0.096,2.776,0.193
		c1.471-4.755,6.531-7.919,11.924-7.919c6.41,0,12.35,4.47,12.35,10.769c0,1.795-0.483,3.442-1.321,4.879
		c1.46,1.029,2.417,2.762,2.164,5.211l-0.019,0.183l-0.043,0.18c-1.042,4.333-4.046,6.427-7.925,7.64
		c0.132,0.674,0.302,1.312,0.514,1.671L53.914,32.002z M37.367,97.974l-0.809-2.357c-0.083-0.24-0.243-0.694-0.386-0.895
		c-0.202-0.252-0.438-0.443-0.733-0.581c-0.332-0.154-0.694-0.203-1.061-0.203c-0.922,0-1.569,0.231-2.103,0.968
		c-0.578,0.784-0.67,2.604-0.67,3.514c0,0.865,0.096,3.399,0.724,4.104c0.443,0.494,1.073,0.592,1.734,0.592
		c0.458,0,1.276-0.049,1.627-0.4c0.598-0.595,0.942-1.651,1.126-2.429L37.367,97.974z M50.202,100.76l7.028-17.058H42.877
		c0.538,0.252,1.06,0.536,1.562,0.859c2.857,1.843,4.688,4.559,5.798,7.616l1.126,3.103l-12.105,2.458L50.202,100.76z
		 M80.157,83.792c-0.125,0.005-0.249,0.007-0.373,0.007c-0.442,0-0.88-0.026-1.313-0.074c-0.5-0.053-0.988-0.155-1.456-0.323v0.301
		h-4.904l8.045,19.515V83.792z M99.29,83.702h-5.265l5.265,7.057V83.702z M113.816,102.498l7.744-18.796h-7.744V102.498z
		 M144.393,83.702h-7.952l7.952,19.287V83.702z M155.617,115.167c0.109-0.142,0.23-0.277,0.363-0.406
		c0.076-0.073,0.153-0.143,0.235-0.209h-23.124l-1.413-4.33h-5.581l-1.393,4.33h-23.931l-6.111-8.168v8.168H68.762l-1.414-4.33
		h-5.58l-1.393,4.33H44.52l1.184-2.874c-1.054,0.854-2.239,1.55-3.542,2.079c-1.47,0.604-3.064,0.944-4.675,1.114
		c0.28-0.024,0.561-0.035,0.84-0.035c0.802,0,1.638,0.063,2.404,0.314c0.309,0.102,0.604,0.231,0.883,0.385
		c0.489-0.253,1.014-0.433,1.559-0.547l-0.028-0.067h0.403c0.382-0.058,0.772-0.085,1.167-0.085c0.402,0,0.8,0.027,1.189,0.085
		h16.963c0.039,0,0.077,0,0.117,0.001v-0.001h11.087c0.382-0.058,0.773-0.085,1.168-0.085c1.216,0,2.393,0.252,3.402,0.843v-0.758
		h5.645c0.824,0,1.651,0.11,2.423,0.415c0.002,0.001,0.004,0.002,0.006,0.003l0.174-0.418h6.072l0.126,0.303v-0.303h5.958
		c0.034,0,0.068,0,0.102,0.001v-0.001h10.189c0.382-0.058,0.772-0.085,1.168-0.085c1.069,0,2.123,0.192,3.051,0.689
		c0.932-0.478,1.988-0.689,3.081-0.689c0.402,0,0.8,0.027,1.188,0.085h10.198c0.418-0.061,0.843-0.085,1.264-0.085
		c0.407,0,0.812,0.025,1.209,0.085h21.737c0.381-0.058,0.771-0.085,1.167-0.085C154.16,114.836,154.913,114.933,155.617,115.167z
		 M163.707,115.077c0.611-0.165,1.255-0.241,1.912-0.241c1.584,0,3.102,0.428,4.27,1.476c1.182,1.059,1.717,2.484,1.717,4.01
		c0,0.997-0.201,1.981-0.714,2.858c-0.511,0.877-1.264,1.572-2.197,2.045c-0.565,0.286-1.169,0.468-1.79,0.566l0.002,0.007h-0.044
		c-0.387,0.059-0.779,0.086-1.175,0.086c-0.411,0-0.823-0.026-1.229-0.086h-7.841c-0.436,0.534-1.027,0.932-1.702,1.184
		c-0.601,0.219-1.241,0.304-1.882,0.304c-0.504,0-1.009-0.051-1.506-0.126l-1.987-0.3l-1.359,0.217l0.361-1.278h-0.247
		c-0.401,0.062-0.808,0.09-1.215,0.09c-0.416,0-0.83-0.025-1.239-0.071c-0.055-0.005-0.108-0.011-0.162-0.019h-14.731v-0.082
		c-0.537,0.119-1.092,0.168-1.647,0.168c-0.436,0-0.871-0.025-1.298-0.086h-10.122c-0.386,0.059-0.778,0.086-1.174,0.086
		c-0.982,0-1.964-0.149-2.865-0.544c-0.094-0.041-0.187-0.085-0.277-0.132c-0.171,0.092-0.347,0.175-0.529,0.247
		c-0.775,0.315-1.609,0.433-2.448,0.433c-0.424,0-0.85-0.027-1.268-0.09H78.642v-0.753c-0.107,0.063-0.216,0.123-0.328,0.18
		c-0.929,0.47-1.959,0.659-3.006,0.659c-0.412,0-0.824-0.026-1.23-0.086H47.696l-0.185-0.442c-0.854,0.374-1.784,0.528-2.728,0.528
		c-0.982,0-1.963-0.15-2.864-0.544c-0.108-0.047-0.213-0.098-0.316-0.15c-0.339,0.157-0.689,0.293-1.049,0.396
		c-0.745,0.217-1.522,0.299-2.3,0.299c-1.052,0-2.094-0.171-3.028-0.629c-0.982-0.476-1.757-1.206-2.277-2.123
		c-0.488-0.856-0.714-1.801-0.714-2.771c0-1.025,0.251-2.021,0.801-2.914c0.581-0.935,1.438-1.647,2.484-2.104
		c0.561-0.241,1.159-0.381,1.769-0.451c-0.906,0.089-1.815,0.124-2.708,0.124c-2.979,0-6.153-0.339-8.904-1.488
		c-2.733-1.145-4.851-3.104-6.471-5.454c-1.961-2.858-2.653-6.232-2.653-9.6c0-4.506,1.227-8.877,4.728-12.096
		c3.316-3.056,7.685-4.211,12.194-4.316v-9.655h12.382c0.125,0,0.251,0.002,0.377,0.005v-0.005h40.723
		c0.752,0,1.527,0.053,2.238,0.264c0.207,0.061,0.406,0.133,0.598,0.218l0.201-0.481h6.23l0.542,1.297v-1.297h30.204
		c0.408-0.063,0.826-0.093,1.249-0.093c0.425,0,0.849,0.028,1.263,0.093h8.922c0.612,0,1.216,0.072,1.784,0.234l0.099-0.234h11.986
		v4.128h0.503v-4.128h5.868c0.238,0,0.479,0.009,0.718,0.028v-0.028h11.187v4.236h0.093v7.06h-1.741
		c0.954,0.417,1.849,0.961,2.649,1.662c0.976,0.849,1.716,1.822,2.251,2.883V82.5h15.055v32.052h-15.055V98.673
		c-0.583,1.166-1.401,2.232-2.49,3.16c-2.729,2.326-6.492,2.982-10.053,2.982h-1.788v8.854h4.167L163.707,115.077z"/>
	<g>
		<defs>
			<path id="SVGID_1_" d="M28.044,45.043c28.18,61.662,116.796-16.472,121.257-7.109C109.338,22.064,83.542,74.911,28.044,45.043"/>
		</defs>
		<clipPath id="SVGID_2_">
			<use xlink:href="#SVGID_1_"  overflow="visible"/>
		</clipPath>
		<linearGradient id="SVGID_3_" gradientUnits="userSpaceOnUse" x1="57.4917" y1="95.0195" x2="132.3054" y2="21.5146">
			<stop  offset="0" style="stop-color:#32338E"/>
			<stop  offset="0.58" style="stop-color:#009BDD"/>
			<stop  offset="1" style="stop-color:#00ACEC"/>
		</linearGradient>
		<rect x="28.044" y="22.064" clip-path="url(#SVGID_2_)" fill="url(#SVGID_3_)" width="121.257" height="84.641"/>
	</g>
	<path fill-rule="evenodd" clip-rule="evenodd" fill="#32338E" d="M184.373,40.047c-22.66-13.26-54.849-10.865-99.19,10.184
		C119.932,39.205,154.605,34.054,184.373,40.047"/>
	<g>
		<defs>
			<path id="SVGID_4_" d="M96.152,65.623c35.958-15.066,60.477-35.032,85.943-22.945C153.389,36.394,128.353,73.304,96.152,65.623"
				/>
		</defs>
		<clipPath id="SVGID_5_">
			<use xlink:href="#SVGID_4_"  overflow="visible"/>
		</clipPath>
		<linearGradient id="SVGID_6_" gradientUnits="userSpaceOnUse" x1="110.5151" y1="78.0869" x2="166.8644" y2="26.6035">
			<stop  offset="0" style="stop-color:#973537"/>
			<stop  offset="1" style="stop-color:#CC2128"/>
		</linearGradient>
		<rect x="96.152" y="30.591" clip-path="url(#SVGID_5_)" fill="url(#SVGID_6_)" width="85.943" height="42.712"/>
	</g>
	<g>
		<defs>
			<path id="SVGID_7_" d="M19.137,41.339c17.419-5.558,35.327,21.918,71.211,2.486C59.798,51.954,43.947,24.528,19.137,41.339"/>
		</defs>
		<clipPath id="SVGID_8_">
			<use xlink:href="#SVGID_7_"  overflow="visible"/>
		</clipPath>
		<linearGradient id="SVGID_9_" gradientUnits="userSpaceOnUse" x1="25.1138" y1="43.8926" x2="84.3709" y2="43.8926">
			<stop  offset="0" style="stop-color:#32A457"/>
			<stop  offset="0.5" style="stop-color:#B1CD49"/>
			<stop  offset="1" style="stop-color:#32A457"/>
		</linearGradient>
		<rect x="19.137" y="24.528" clip-path="url(#SVGID_8_)" fill="url(#SVGID_9_)" width="71.211" height="38.729"/>
	</g>
	<path fill-rule="evenodd" clip-rule="evenodd" fill="#A6A8AA" d="M55.747,35.029c5.749,4.382,12.706,6.9,21.43,6.693
		c5.283-20.27,34.377-24.922,49.781-10.517c8.11-3.323,16.222-3.511,24.332-3.25c-1.712-2.231-3.423-4.462-5.135-6.693
		c-7.629,4.909-12.985-2.357-6.474-6.501c-2.455-1.593-4.911-3.187-7.367-4.78c-0.604,6.016-14.004,6.159-9.152-3.824
		c-4.91-0.829-9.821-1.657-14.732-2.486c1.041,8.031-11.088,8.796-10.269,0.574c-4.613,1.147-9.227,2.294-13.84,3.442
		c5.657,6.439-4.687,11.219-9.152,4.398c-2.679,2.231-5.358,4.461-8.037,6.692c7.545,9.791-3.636,9.914-6.92,7.84
		C58.724,29.42,57.236,32.224,55.747,35.029"/>
	<path fill-rule="evenodd" clip-rule="evenodd" fill="#FFF12D" d="M44.739,3.424c5.123,0,9.276,3.519,9.276,7.859
		s-4.153,7.859-9.276,7.859c-5.124,0-9.277-3.519-9.277-7.859S39.615,3.424,44.739,3.424"/>
	<g>
		<defs>
			<path id="SVGID_10_" d="M49.227,33.738c-1.453-0.402-2.344-2.57-2.672-6.504c3.989-0.839,7.341-2.08,8.318-6.144
				c0.469-4.537-6.017-3.533-5.407-0.963c1.81,3.485-0.74,4.122-3.192,5.179c0.046-4.817-0.724-10.509,2.25-16.743
				c1.078-4.176-4.219-5.26-7.594-0.843c-3.238,3.925-2.956,7.599-1.688,11.203c-3.938-0.361-5.067-2.338-5.625-4.939
				c-0.375-4.336-6-3.734-4.641,1.084c0.844,3.273,3.563,5.642,10.406,6.023c1.266,4.216,2.532,8.432,3.797,12.648
				C45.195,33.738,47.211,33.738,49.227,33.738"/>
		</defs>
		<clipPath id="SVGID_11_">
			<use xlink:href="#SVGID_10_"  overflow="visible"/>
		</clipPath>
		<linearGradient id="SVGID_12_" gradientUnits="userSpaceOnUse" x1="54.9028" y1="19.5264" x2="28.8726" y2="17.5756">
			<stop  offset="0" style="stop-color:#32A457"/>
			<stop  offset="1" style="stop-color:#B1CD49"/>
		</linearGradient>
		<rect x="27.617" y="3.303" clip-path="url(#SVGID_11_)" fill="url(#SVGID_12_)" width="27.725" height="30.435"/>
	</g>
	<g>
		<path d="M36.546,75.32h3.125c0.681,0,1.19,0.146,1.529,0.437c0.339,0.292,0.508,0.706,0.508,1.244
			c0,0.553-0.185,0.984-0.554,1.296c-0.369,0.311-0.933,0.467-1.691,0.467h-1.029v2.031h-1.888V75.32z M38.435,77.654h0.461
			c0.362,0,0.617-0.057,0.763-0.17c0.147-0.113,0.22-0.258,0.22-0.436c0-0.171-0.064-0.317-0.191-0.437
			c-0.127-0.119-0.367-0.179-0.718-0.179h-0.536V77.654z"/>
		<path d="M42.717,80.795V75.32h3.133c0.581,0,1.025,0.045,1.332,0.135c0.307,0.089,0.555,0.256,0.743,0.498
			c0.188,0.243,0.282,0.538,0.282,0.887c0,0.304-0.072,0.566-0.216,0.786c-0.144,0.221-0.342,0.399-0.594,0.536
			c-0.161,0.087-0.38,0.159-0.66,0.217c0.224,0.067,0.387,0.135,0.489,0.202c0.069,0.044,0.169,0.141,0.301,0.287
			c0.131,0.147,0.219,0.261,0.263,0.341l0.911,1.586h-2.125l-1.005-1.673c-0.127-0.217-0.241-0.357-0.34-0.422
			c-0.135-0.085-0.289-0.127-0.46-0.127h-0.166v2.222H42.717z M44.605,77.538h0.792c0.086,0,0.252-0.024,0.498-0.074
			c0.125-0.022,0.227-0.08,0.305-0.172c0.079-0.092,0.118-0.198,0.118-0.317c0-0.177-0.062-0.313-0.187-0.407
			s-0.358-0.142-0.702-0.142h-0.826V77.538z"/>
		<path d="M49.299,75.32h5.039v1.169h-3.154v0.87h2.926v1.116h-2.926v1.079h3.246v1.24h-5.13V75.32z"/>
		<path d="M55.45,75.32h4.648v1.177h-2.76v0.955h2.357v1.105h-2.357v2.237H55.45V75.32z"/>
		<path d="M61.106,75.32h5.039v1.169H62.99v0.87h2.926v1.116H62.99v1.079h3.246v1.24h-5.13V75.32z"/>
		<path d="M67.323,75.32h1.884v5.475h-1.884V75.32z"/>
		<path d="M70.128,75.32h5.715v1.352h-1.917v4.123h-1.88v-4.123h-1.917V75.32z"/>
		<path d="M80.653,75.32h1.876v3.262c0,0.323-0.056,0.629-0.168,0.916c-0.112,0.287-0.288,0.539-0.527,0.754
			s-0.49,0.366-0.753,0.453c-0.365,0.122-0.804,0.184-1.316,0.184c-0.296,0-0.619-0.02-0.969-0.057s-0.643-0.111-0.878-0.222
			c-0.235-0.11-0.45-0.269-0.645-0.472c-0.195-0.204-0.329-0.415-0.401-0.631c-0.116-0.349-0.174-0.657-0.174-0.926V75.32h1.876
			v3.339c0,0.299,0.092,0.532,0.276,0.7s0.439,0.252,0.766,0.252c0.324,0,0.578-0.083,0.762-0.248
			c0.184-0.166,0.276-0.4,0.276-0.704V75.32z"/>
		<path d="M83.799,80.795V75.32h3.133c0.581,0,1.025,0.045,1.332,0.135c0.307,0.089,0.555,0.256,0.743,0.498
			c0.188,0.243,0.282,0.538,0.282,0.887c0,0.304-0.072,0.566-0.216,0.786c-0.144,0.221-0.342,0.399-0.594,0.536
			c-0.161,0.087-0.38,0.159-0.66,0.217c0.224,0.067,0.387,0.135,0.489,0.202c0.069,0.044,0.169,0.141,0.301,0.287
			c0.131,0.147,0.219,0.261,0.263,0.341l0.911,1.586h-2.125l-1.005-1.673c-0.127-0.217-0.241-0.357-0.34-0.422
			c-0.135-0.085-0.289-0.127-0.46-0.127h-0.166v2.222H83.799z M85.687,77.538h0.792c0.086,0,0.252-0.024,0.498-0.074
			c0.125-0.022,0.227-0.08,0.305-0.172c0.079-0.092,0.118-0.198,0.118-0.317c0-0.177-0.062-0.313-0.187-0.407
			s-0.358-0.142-0.702-0.142h-0.826V77.538z"/>
		<path d="M94.125,79.892h-2.134l-0.296,0.903h-1.92l2.287-5.475h2.05l2.286,5.475H94.43L94.125,79.892z M93.736,78.707
			l-0.672-1.968l-0.665,1.968H93.736z"/>
		<path d="M99.81,75.32h2.472l0.953,3.331l0.947-3.331h2.471v5.475h-1.539V76.62l-1.188,4.175h-1.393l-1.184-4.175v4.175H99.81
			V75.32z"/>
		<path d="M111.812,75.32h1.875v3.262c0,0.323-0.056,0.629-0.168,0.916c-0.111,0.287-0.287,0.539-0.526,0.754
			s-0.491,0.366-0.754,0.453c-0.365,0.122-0.804,0.184-1.315,0.184c-0.296,0-0.619-0.02-0.969-0.057
			c-0.351-0.037-0.643-0.111-0.878-0.222s-0.45-0.269-0.646-0.472c-0.194-0.204-0.328-0.415-0.4-0.631
			c-0.116-0.349-0.174-0.657-0.174-0.926V75.32h1.876v3.339c0,0.299,0.092,0.532,0.275,0.7c0.185,0.168,0.439,0.252,0.766,0.252
			c0.324,0,0.578-0.083,0.762-0.248c0.184-0.166,0.276-0.4,0.276-0.704V75.32z"/>
		<path d="M114.945,75.32h1.756l2.291,3.028V75.32h1.771v5.475h-1.771l-2.278-3.006v3.006h-1.769V75.32z"/>
		<path d="M122.087,75.32h1.884v5.475h-1.884V75.32z"/>
		<path d="M129.371,78.555l1.647,0.447c-0.11,0.416-0.285,0.764-0.522,1.042c-0.238,0.279-0.533,0.489-0.887,0.632
			c-0.353,0.142-0.801,0.213-1.347,0.213c-0.661,0-1.201-0.087-1.62-0.26s-0.781-0.477-1.085-0.912
			c-0.305-0.436-0.457-0.993-0.457-1.672c0-0.906,0.268-1.602,0.804-2.089c0.535-0.486,1.292-0.729,2.271-0.729
			c0.767,0,1.369,0.14,1.808,0.419c0.438,0.278,0.765,0.707,0.978,1.284l-1.66,0.332c-0.059-0.166-0.119-0.288-0.183-0.365
			c-0.105-0.13-0.234-0.229-0.386-0.299c-0.152-0.07-0.322-0.104-0.511-0.104c-0.426,0-0.753,0.154-0.979,0.462
			c-0.172,0.229-0.257,0.589-0.257,1.078c0,0.606,0.102,1.022,0.307,1.248c0.205,0.225,0.492,0.337,0.863,0.337
			c0.359,0,0.632-0.091,0.815-0.272S129.288,78.9,129.371,78.555z"/>
		<path d="M132.006,75.32h1.884v5.475h-1.884V75.32z"/>
		<path d="M135.231,75.32h3.125c0.681,0,1.19,0.146,1.529,0.437c0.339,0.292,0.509,0.706,0.509,1.244
			c0,0.553-0.186,0.984-0.555,1.296c-0.369,0.311-0.933,0.467-1.691,0.467h-1.028v2.031h-1.889V75.32z M137.12,77.654h0.46
			c0.362,0,0.617-0.057,0.764-0.17s0.22-0.258,0.22-0.436c0-0.171-0.063-0.317-0.19-0.437s-0.366-0.179-0.718-0.179h-0.535V77.654z"
			/>
	</g>
	<g>
		<path d="M144.397,79.892h-2.135l-0.297,0.903h-1.919l2.286-5.475h2.051l2.286,5.475h-1.969L144.397,79.892z M144.006,78.707
			l-0.671-1.968l-0.665,1.968H144.006z"/>
		<path d="M147.267,75.32h1.881v4.127h2.934v1.348h-4.814V75.32z"/>
		<path d="M155.795,75.32h2.793c0.551,0,0.995,0.067,1.334,0.201c0.339,0.135,0.619,0.328,0.841,0.579
			c0.221,0.252,0.382,0.544,0.481,0.878c0.1,0.333,0.149,0.687,0.149,1.061c0,0.585-0.074,1.039-0.223,1.361
			c-0.147,0.322-0.354,0.592-0.616,0.811c-0.263,0.218-0.545,0.362-0.847,0.435c-0.412,0.1-0.785,0.149-1.12,0.149h-2.793V75.32z
			 M157.675,76.561v2.991h0.461c0.393,0,0.672-0.04,0.838-0.118s0.296-0.215,0.391-0.411c0.094-0.195,0.141-0.512,0.141-0.95
			c0-0.58-0.105-0.977-0.315-1.191c-0.21-0.214-0.559-0.32-1.046-0.32H157.675z"/>
		<path d="M162.377,75.32h5.038v1.169h-3.153v0.87h2.926v1.116h-2.926v1.079h3.245v1.24h-5.13V75.32z"/>
	</g>
	<g>
		<path fill="#32338E" d="M39.814,100.908l7.788,2.147c-0.523,1.992-1.347,3.655-2.472,4.991c-1.125,1.336-2.521,2.344-4.188,3.024
			c-1.667,0.68-3.789,1.02-6.366,1.02c-3.125,0-5.679-0.414-7.66-1.242c-1.981-0.829-3.691-2.286-5.13-4.372
			c-1.438-2.086-2.158-4.756-2.158-8.011c0-4.339,1.265-7.674,3.796-10.004c2.531-2.331,6.111-3.496,10.741-3.496
			c3.622,0,6.47,0.668,8.543,2.004s3.613,3.388,4.62,6.155l-7.847,1.593c-0.274-0.8-0.563-1.384-0.863-1.754
			c-0.498-0.62-1.105-1.098-1.825-1.432s-1.523-0.501-2.413-0.501c-2.014,0-3.558,0.739-4.63,2.217
			c-0.811,1.096-1.216,2.817-1.216,5.164c0,2.907,0.484,4.9,1.452,5.978c0.968,1.079,2.328,1.618,4.081,1.618
			c1.7,0,2.985-0.436,3.854-1.307C38.791,103.831,39.422,102.566,39.814,100.908z"/>
		<path fill="#32338E" d="M69.599,107.313H59.51l-1.402,4.33h-9.073l10.809-26.23h9.693l10.807,26.23h-9.306L69.599,107.313z
			 M67.755,101.642l-3.174-9.43l-3.141,9.43H67.755z"/>
		<path fill="#32338E" d="M83.227,85.413h8.298l10.829,14.512V85.413h8.377v26.23h-8.377l-10.77-14.402v14.402h-8.357V85.413z"/>
	</g>
	<g>
		<path fill="#32338E" d="M133.92,107.313h-10.089l-1.401,4.33h-9.074l10.81-26.23h9.693l10.807,26.23h-9.306L133.92,107.313z
			 M132.078,101.642l-3.175-9.43l-3.142,9.43H132.078z"/>
		<path fill="#32338E" d="M147.451,85.413h14.771c3.218,0,5.627,0.698,7.229,2.094c1.602,1.396,2.403,3.382,2.403,5.958
			c0,2.648-0.873,4.718-2.619,6.209s-4.411,2.236-7.994,2.236h-4.865v9.733h-8.926V85.413z M156.376,96.596h2.178
			c1.713,0,2.916-0.271,3.609-0.813s1.04-1.237,1.04-2.085c0-0.823-0.301-1.521-0.902-2.093c-0.602-0.573-1.733-0.859-3.395-0.859
			h-2.53V96.596z"/>
		<path fill="#32338E" d="M176.858,85.413h8.906v26.23h-8.906V85.413z"/>
	</g>
	<g>
		<path d="M38.336,121.059v-1.052h2.673v2.155c-0.512,0.315-0.964,0.529-1.358,0.643c-0.393,0.114-0.86,0.171-1.399,0.171
			c-0.665,0-1.207-0.102-1.625-0.307c-0.419-0.204-0.744-0.509-0.974-0.914c-0.23-0.404-0.346-0.868-0.346-1.393
			c0-0.552,0.126-1.031,0.378-1.439c0.252-0.408,0.621-0.718,1.107-0.93c0.379-0.163,0.89-0.245,1.531-0.245
			c0.619,0,1.082,0.051,1.388,0.152c0.307,0.101,0.562,0.258,0.764,0.471c0.202,0.213,0.354,0.482,0.456,0.809l-1.669,0.269
			c-0.068-0.19-0.185-0.337-0.349-0.438c-0.165-0.102-0.374-0.152-0.628-0.152c-0.379,0-0.682,0.119-0.907,0.357
			c-0.225,0.237-0.338,0.614-0.338,1.129c0,0.547,0.114,0.938,0.342,1.173c0.228,0.234,0.545,0.352,0.953,0.352
			c0.193,0,0.378-0.025,0.554-0.076s0.377-0.137,0.604-0.259v-0.476H38.336z"/>
		<path d="M41.819,120.365c0-0.825,0.255-1.468,0.764-1.927c0.509-0.46,1.218-0.69,2.127-0.69c0.932,0,1.65,0.227,2.154,0.678
			c0.504,0.452,0.756,1.085,0.756,1.898c0,0.591-0.11,1.075-0.33,1.453c-0.22,0.379-0.539,0.673-0.955,0.883
			c-0.416,0.211-0.935,0.315-1.556,0.315c-0.631,0-1.154-0.091-1.568-0.272c-0.414-0.182-0.749-0.469-1.006-0.861
			C41.948,121.448,41.819,120.956,41.819,120.365z M43.55,120.372c0,0.511,0.105,0.878,0.315,1.101s0.496,0.334,0.857,0.334
			c0.372,0,0.659-0.108,0.863-0.327c0.204-0.219,0.306-0.61,0.306-1.176c0-0.476-0.106-0.823-0.319-1.043s-0.501-0.329-0.865-0.329
			c-0.349,0-0.629,0.111-0.84,0.334S43.55,119.857,43.55,120.372z"/>
	</g>
	<g>
		<path d="M47.666,117.835h1.809l1.26,3.638l1.244-3.638h1.756l-2.079,5.055H49.78L47.666,117.835z"/>
		<path d="M54.296,117.835h4.637v1.079H56.03v0.804h2.693v1.03H56.03v0.997h2.987v1.145h-4.721V117.835z"/>
		<path d="M59.971,122.89v-5.055h2.883c0.535,0,0.943,0.041,1.226,0.124s0.511,0.236,0.684,0.46c0.173,0.225,0.26,0.497,0.26,0.819
			c0,0.28-0.066,0.522-0.199,0.726s-0.314,0.368-0.546,0.495c-0.148,0.08-0.35,0.146-0.607,0.2c0.206,0.062,0.356,0.124,0.45,0.186
			c0.063,0.042,0.156,0.13,0.277,0.267c0.121,0.136,0.202,0.24,0.242,0.313l0.838,1.465h-1.955l-0.925-1.545
			c-0.117-0.2-0.221-0.33-0.313-0.39c-0.125-0.078-0.266-0.117-0.424-0.117h-0.153v2.052H59.971z M61.709,119.883h0.729
			c0.079,0,0.231-0.022,0.458-0.069c0.114-0.021,0.208-0.073,0.28-0.158c0.073-0.085,0.109-0.183,0.109-0.293
			c0-0.163-0.057-0.288-0.172-0.376c-0.114-0.087-0.33-0.131-0.646-0.131h-0.76V119.883z"/>
		<path d="M66.044,117.835h1.615l2.108,2.796v-2.796h1.631v5.055h-1.631l-2.097-2.775v2.775h-1.627V117.835z"/>
		<path d="M72.33,120.365c0-0.825,0.255-1.468,0.764-1.927c0.509-0.46,1.218-0.69,2.127-0.69c0.932,0,1.65,0.227,2.154,0.678
			c0.504,0.452,0.756,1.085,0.756,1.898c0,0.591-0.11,1.075-0.33,1.453c-0.22,0.379-0.539,0.673-0.955,0.883
			c-0.416,0.211-0.935,0.315-1.556,0.315c-0.631,0-1.154-0.091-1.568-0.272c-0.414-0.182-0.749-0.469-1.006-0.861
			C72.458,121.448,72.33,120.956,72.33,120.365z M74.06,120.372c0,0.511,0.105,0.878,0.315,1.101s0.496,0.334,0.857,0.334
			c0.372,0,0.659-0.108,0.863-0.327c0.204-0.219,0.306-0.61,0.306-1.176c0-0.476-0.106-0.823-0.319-1.043s-0.501-0.329-0.865-0.329
			c-0.349,0-0.629,0.111-0.84,0.334S74.06,119.857,74.06,120.372z"/>
		<path d="M81.694,117.835h2.57c0.507,0,0.916,0.062,1.228,0.186c0.312,0.125,0.569,0.303,0.773,0.535
			c0.204,0.231,0.351,0.502,0.443,0.81c0.092,0.309,0.137,0.635,0.137,0.979c0,0.54-0.068,0.959-0.204,1.257
			s-0.325,0.547-0.567,0.748c-0.242,0.201-0.502,0.336-0.779,0.402c-0.379,0.092-0.723,0.138-1.031,0.138h-2.57V117.835z
			 M83.424,118.979v2.762h0.424c0.361,0,0.619-0.036,0.771-0.108c0.152-0.072,0.272-0.199,0.359-0.379
			c0.086-0.181,0.13-0.474,0.13-0.878c0-0.535-0.097-0.902-0.291-1.1c-0.193-0.198-0.514-0.297-0.962-0.297H83.424z"/>
	</g>
	<g>
		<path d="M90.861,122.056h-1.964l-0.273,0.834h-1.767l2.104-5.055h1.887l2.104,5.055h-1.812L90.861,122.056z M90.502,120.962
			l-0.618-1.817l-0.611,1.817H90.502z"/>
		<path d="M96.134,122.89v-5.055h2.883c0.535,0,0.943,0.041,1.226,0.124s0.511,0.236,0.683,0.46c0.174,0.225,0.26,0.497,0.26,0.819
			c0,0.28-0.066,0.522-0.198,0.726s-0.314,0.368-0.546,0.495c-0.148,0.08-0.35,0.146-0.607,0.2c0.206,0.062,0.356,0.124,0.45,0.186
			c0.063,0.042,0.156,0.13,0.277,0.267c0.121,0.136,0.202,0.24,0.242,0.313l0.838,1.465h-1.955l-0.925-1.545
			c-0.117-0.2-0.221-0.33-0.313-0.39c-0.125-0.078-0.266-0.117-0.424-0.117h-0.153v2.052H96.134z M97.872,119.883h0.729
			c0.079,0,0.231-0.022,0.458-0.069c0.114-0.021,0.208-0.073,0.28-0.158c0.073-0.085,0.109-0.183,0.109-0.293
			c0-0.163-0.057-0.288-0.172-0.376c-0.114-0.087-0.33-0.131-0.646-0.131h-0.76V119.883z"/>
		<path d="M102.191,117.835h4.636v1.079h-2.902v0.804h2.692v1.03h-2.692v0.997h2.986v1.145h-4.72V117.835z"/>
		<path d="M111.571,120.82l1.516,0.414c-0.102,0.384-0.262,0.705-0.481,0.962c-0.219,0.258-0.49,0.452-0.815,0.583
			c-0.324,0.131-0.737,0.196-1.239,0.196c-0.608,0-1.105-0.079-1.491-0.239c-0.386-0.159-0.719-0.44-0.998-0.843
			c-0.28-0.401-0.421-0.916-0.421-1.543c0-0.837,0.247-1.479,0.739-1.929c0.493-0.449,1.189-0.674,2.091-0.674
			c0.705,0,1.26,0.129,1.663,0.387c0.404,0.258,0.704,0.652,0.899,1.187l-1.527,0.307c-0.054-0.154-0.109-0.267-0.168-0.338
			c-0.097-0.12-0.215-0.212-0.355-0.276c-0.14-0.064-0.296-0.097-0.47-0.097c-0.392,0-0.692,0.143-0.901,0.428
			c-0.157,0.211-0.236,0.543-0.236,0.995c0,0.561,0.094,0.944,0.282,1.152c0.188,0.207,0.453,0.312,0.795,0.312
			c0.331,0,0.581-0.084,0.75-0.252C111.372,121.384,111.494,121.141,111.571,120.82z"/>
		<path d="M113.709,120.365c0-0.825,0.254-1.468,0.764-1.927c0.509-0.46,1.218-0.69,2.127-0.69c0.932,0,1.65,0.227,2.154,0.678
			c0.504,0.452,0.756,1.085,0.756,1.898c0,0.591-0.11,1.075-0.33,1.453c-0.221,0.379-0.539,0.673-0.955,0.883
			c-0.416,0.211-0.935,0.315-1.556,0.315c-0.632,0-1.154-0.091-1.568-0.272s-0.749-0.469-1.006-0.861
			C113.837,121.448,113.709,120.956,113.709,120.365z M115.439,120.372c0,0.511,0.105,0.878,0.315,1.101s0.496,0.334,0.857,0.334
			c0.372,0,0.659-0.108,0.863-0.327c0.203-0.219,0.306-0.61,0.306-1.176c0-0.476-0.106-0.823-0.319-1.043s-0.501-0.329-0.865-0.329
			c-0.349,0-0.629,0.111-0.84,0.334C115.544,119.488,115.439,119.857,115.439,120.372z"/>
		<path d="M120.454,117.835h1.616l2.107,2.796v-2.796h1.631v5.055h-1.631l-2.097-2.775v2.775h-1.627V117.835z"/>
		<path d="M126.657,121.218l1.646-0.094c0.036,0.241,0.108,0.426,0.218,0.552c0.179,0.205,0.433,0.307,0.764,0.307
			c0.247,0,0.438-0.052,0.571-0.156s0.2-0.227,0.2-0.364c0-0.131-0.063-0.248-0.19-0.352c-0.128-0.104-0.423-0.201-0.887-0.293
			c-0.759-0.154-1.3-0.358-1.623-0.614c-0.325-0.255-0.488-0.58-0.488-0.976c0-0.26,0.083-0.505,0.25-0.736
			c0.167-0.23,0.417-0.412,0.752-0.545c0.335-0.132,0.794-0.198,1.377-0.198c0.716,0,1.261,0.12,1.637,0.36s0.599,0.623,0.67,1.146
			l-1.631,0.087c-0.043-0.228-0.134-0.394-0.272-0.497s-0.331-0.155-0.575-0.155c-0.201,0-0.353,0.039-0.454,0.116
			s-0.153,0.17-0.153,0.28c0,0.081,0.042,0.153,0.126,0.218c0.082,0.066,0.275,0.129,0.581,0.187
			c0.756,0.146,1.298,0.296,1.625,0.446s0.565,0.337,0.714,0.561c0.149,0.223,0.224,0.472,0.224,0.748
			c0,0.324-0.1,0.623-0.298,0.896s-0.477,0.48-0.833,0.622s-0.806,0.212-1.348,0.212c-0.952,0-1.611-0.165-1.979-0.496
			C126.913,122.148,126.705,121.728,126.657,121.218z"/>
		<path d="M132.213,117.835h5.259v1.248h-1.765v3.807h-1.729v-3.807h-1.765V117.835z"/>
		<path d="M138.278,122.89v-5.055h2.884c0.534,0,0.943,0.041,1.226,0.124s0.511,0.236,0.684,0.46c0.173,0.225,0.26,0.497,0.26,0.819
			c0,0.28-0.066,0.522-0.198,0.726c-0.133,0.203-0.315,0.368-0.547,0.495c-0.147,0.08-0.351,0.146-0.607,0.2
			c0.206,0.062,0.356,0.124,0.45,0.186c0.063,0.042,0.156,0.13,0.276,0.267c0.121,0.136,0.202,0.24,0.243,0.313l0.837,1.465h-1.954
			l-0.925-1.545c-0.117-0.2-0.222-0.33-0.313-0.39c-0.125-0.078-0.266-0.117-0.424-0.117h-0.153v2.052H138.278z M140.015,119.883
			h0.729c0.079,0,0.232-0.022,0.459-0.069c0.114-0.021,0.208-0.073,0.28-0.158c0.073-0.085,0.109-0.183,0.109-0.293
			c0-0.163-0.058-0.288-0.172-0.376c-0.115-0.087-0.33-0.131-0.646-0.131h-0.761V119.883z"/>
	</g>
	<g>
		<path d="M147.848,117.835h1.726v3.012c0,0.298-0.052,0.58-0.154,0.846c-0.104,0.266-0.265,0.497-0.485,0.696
			c-0.22,0.198-0.451,0.338-0.693,0.418c-0.336,0.113-0.739,0.169-1.21,0.169c-0.272,0-0.57-0.017-0.893-0.052
			c-0.321-0.034-0.591-0.103-0.808-0.205c-0.216-0.102-0.414-0.247-0.594-0.436s-0.302-0.383-0.368-0.582
			c-0.107-0.322-0.16-0.606-0.16-0.854v-3.012h1.726v3.083c0,0.275,0.085,0.491,0.254,0.646c0.17,0.154,0.404,0.232,0.705,0.232
			c0.298,0,0.531-0.076,0.7-0.229c0.17-0.152,0.255-0.369,0.255-0.649V117.835z"/>
		<path d="M154.448,120.82l1.516,0.414c-0.102,0.384-0.262,0.705-0.481,0.962c-0.219,0.258-0.49,0.452-0.815,0.583
			c-0.324,0.131-0.737,0.196-1.239,0.196c-0.608,0-1.105-0.079-1.491-0.239c-0.386-0.159-0.719-0.44-0.998-0.843
			c-0.28-0.401-0.421-0.916-0.421-1.543c0-0.837,0.247-1.479,0.739-1.929c0.493-0.449,1.189-0.674,2.091-0.674
			c0.705,0,1.26,0.129,1.663,0.387c0.404,0.258,0.704,0.652,0.899,1.187l-1.527,0.307c-0.054-0.154-0.109-0.267-0.168-0.338
			c-0.097-0.12-0.215-0.212-0.355-0.276c-0.14-0.064-0.296-0.097-0.47-0.097c-0.392,0-0.692,0.143-0.901,0.428
			c-0.157,0.211-0.236,0.543-0.236,0.995c0,0.561,0.094,0.944,0.282,1.152c0.188,0.207,0.453,0.312,0.795,0.312
			c0.331,0,0.581-0.084,0.75-0.252C154.249,121.384,154.371,121.141,154.448,120.82z M152.328,123.462l0.114-0.407
			c0.239-0.053,0.464-0.079,0.673-0.079c0.436,0,0.735,0.067,0.901,0.2c0.165,0.134,0.248,0.291,0.248,0.473
			c0,0.11-0.038,0.224-0.113,0.341c-0.074,0.117-0.209,0.212-0.402,0.283s-0.451,0.106-0.771,0.106c-0.29,0-0.632-0.029-1.023-0.089
			v-0.425c0.265,0.046,0.546,0.069,0.844,0.069c0.219,0,0.367-0.026,0.445-0.079c0.077-0.054,0.116-0.122,0.116-0.207
			c0-0.067-0.032-0.124-0.096-0.173c-0.063-0.048-0.163-0.072-0.298-0.072C152.785,123.403,152.572,123.423,152.328,123.462z"/>
		<path d="M160.246,122.056h-1.964l-0.272,0.834h-1.767l2.104-5.055h1.887l2.104,5.055h-1.812L160.246,122.056z M160.05,116.58
			h0.604c0.002,0.06,0.004,0.111,0.004,0.154c0,0.256-0.071,0.453-0.214,0.594c-0.143,0.14-0.326,0.21-0.551,0.21
			c-0.162,0-0.409-0.061-0.74-0.183c-0.201-0.073-0.34-0.11-0.417-0.11c-0.073,0-0.131,0.021-0.172,0.063
			c-0.04,0.041-0.062,0.114-0.064,0.22h-0.596c-0.003-0.055-0.004-0.103-0.004-0.145c0-0.246,0.075-0.441,0.226-0.586
			s0.328-0.217,0.534-0.217c0.089,0,0.174,0.009,0.252,0.027c0.079,0.019,0.225,0.067,0.438,0.148c0.213,0.08,0.367,0.12,0.464,0.12
			c0.069,0,0.124-0.021,0.166-0.063C160.021,116.77,160.045,116.692,160.05,116.58z M159.887,120.962l-0.618-1.817l-0.611,1.817
			H159.887z"/>
		<path d="M162.67,120.365c0-0.825,0.254-1.468,0.764-1.927c0.509-0.46,1.218-0.69,2.127-0.69c0.932,0,1.65,0.227,2.154,0.678
			c0.504,0.452,0.756,1.085,0.756,1.898c0,0.591-0.11,1.075-0.33,1.453c-0.221,0.379-0.539,0.673-0.955,0.883
			c-0.416,0.211-0.935,0.315-1.556,0.315c-0.632,0-1.154-0.091-1.568-0.272s-0.749-0.469-1.006-0.861
			C162.798,121.448,162.67,120.956,162.67,120.365z M164.4,120.372c0,0.511,0.105,0.878,0.315,1.101s0.496,0.334,0.857,0.334
			c0.372,0,0.659-0.108,0.863-0.327c0.203-0.219,0.306-0.61,0.306-1.176c0-0.476-0.106-0.823-0.319-1.043s-0.501-0.329-0.865-0.329
			c-0.349,0-0.629,0.111-0.84,0.334C164.505,119.488,164.4,119.857,164.4,120.372z"/>
	</g>
</g>
</svg>
