<?xml version="1.0" encoding="utf-8"?>
<!-- Generator: Adobe Illustrator 16.0.0, SVG Export Plug-In . SVG Version: 6.00 Build 0)  -->
<!DOCTYPE svg PUBLIC "-//W3C//DTD SVG 1.1//EN" "http://www.w3.org/Graphics/SVG/1.1/DTD/svg11.dtd">
<svg version="1.1" id="Camada_1" xmlns="http://www.w3.org/2000/svg" xmlns:xlink="http://www.w3.org/1999/xlink" x="0px" y="0px"
	 width="198.139px" height="93.666px" viewBox="0 0 198.139 93.666" enable-background="new 0 0 198.139 93.666"
	 xml:space="preserve">
<g>
	<path fill-rule="evenodd" clip-rule="evenodd" fill="#375743" d="M71.778,16.318l0.089,5.548l8.75,0.098v-5.841L71.778,16.318z
		 M124.608,18.4h3.17v3.262h-3.17V18.4z M124.653,22.781h3.438v2.775h-3.438V22.781z M129.698,18.936h3.526v2.872h-3.526V18.936z
		 M129.475,22.781h3.884v3.067h-3.884V22.781z M133.228,10.463h-1.296l-0.017-1.27l-1.176-0.041V7.899l-0.134-0.004v1.354
		l1.176,0.041l0.017,1.27h1.431L133.228,10.463z M134.336,9.177l-0.987,0.004l0.001,0.097l0.985-0.004L134.336,9.177z
		 M131.904,7.833l0.016-1.281h-0.133l-0.016,1.277L131.904,7.833z M168.45,16.112h9.911v1.704h-9.911V16.112z M168.45,18.672h9.911
		v1.704h-9.911V18.672z M179.349,15.991h7.043v1.703h-7.043V15.991z M179.349,18.55h7.043v1.704h-7.043V18.55z M169.03,21.962h18.26
		v0.895h-18.26V21.962z M162.305,18.648h5.68v1.579h-5.68V18.648z M161.949,17.142l5.992-1.02l-0.022,1.967h-5.97V17.142z
		 M136.038,28.083l5.434-0.079l0.722-8.485l-6.156-0.146V28.083z M185.504,8.957c1.439,0.222,1.532-0.637,0.356-1.266
		c-3.476-1.263-6.914-0.82-10.535-1.022c-1.902-0.007-1.799,1.297-0.894,1.363C178.279,7.991,182.148,8.139,185.504,8.957z
		 M168.729,4.774c-0.592,0.344-0.496,0.809,0.022,1.068c2.339,0.292,4.753,0.294,7.121,0.2c0.34,0.011,0.458-0.219,0.089-0.51
		C174.049,4.024,170.97,4.22,168.729,4.774z M107.443,27.831l2.267,0.043l3.007-3.034l0.028-1.18l-2.166-1.686
		c-1.03-0.415-1.947-0.808-3.03-0.996l-0.02,1.773l1.712,3.023l-1.737-0.06L107.443,27.831z M104.307,27.772l2.579,0.048
		l-0.646-2.066l-1.074-0.039L104.307,27.772z M101.78,27.724l2.312,0.044l-0.262-2.077l-1.471-0.025l1.615-2.951l-0.011-1.176
		l-0.891,0.011l-1.315,0.571L101.78,27.724z M98.016,27.653l3.661,0.069l-1.322-3.561C100.355,24.161,98.531,26.738,98.016,27.653z
		 M100.755,14.058c0.775,0,1.404,0.739,1.404,1.651c0,0.912-0.629,1.651-1.404,1.651s-1.403-0.74-1.403-1.651
		C99.352,14.797,99.98,14.058,100.755,14.058z M113.676,19.93c0.479,0,0.868,0.458,0.868,1.023c0,0.564-0.389,1.022-0.868,1.022
		c-0.48,0-0.869-0.458-0.869-1.022C112.807,20.388,113.196,19.93,113.676,19.93z M103.969,18.247
		c0.582-2.948,3.349-2.919,3.993,0.049l-0.732,0.023c-0.365,1.682-2.238,1.517-2.528-0.097L103.969,18.247z M70.057,27.124
		l-3.19-10.903H63.92l6.162-8.567h21.608l6.519,8.372l-2.768,0.098l-3.215,11.293l-1.609,0.007l0.805-11.009l-6.25,0.098
		l-1.152,10.875l13.946,0.264c0.244-1.079,0.942-4.607,0.942-4.607l-0.089-2.599l-1.983,1.288c0.669-1.96,0.651-3.073,2.383-3.983
		l2.161,0.024l1.114,0.583l1.604,1.312l2.005,0.024l1.404,0.025c0.965,0.412,1.795,0.918,2.695,1.481l1.971,1.117l1.304-0.024
		c1.171,0.557,2.083,0.854,2.806,2.162c-0.713-0.362-1.102-0.692-1.938-0.607l0.056,1.582l1.86,2.717l-0.646,0.024l-2.339-2.089
		l-3.564,1.794l4.997,0.095l1.787,3.117l5.882-2.805l1.121-0.016l-0.183-0.13l-3.17-9.589l-1.786-0.049l0.089-3.212l5.134-3.553
		l2.098-0.049l1.294-5.452l12.5,0.146l1.206,5.403l7.322,3.992l-0.759,3.115l-2.143,0.146l-1.884,8.947l6.036-0.087l0.357,4.965
		l2.857-2.824l1.875-0.876c-0.874-7.41-0.496-13.247-6.608-15.089c-2.215-1.794-3.584-5.391,0.715-6.329
		c1.571-2.936,1.886-2.553,4.643-1.266c1.604-0.672,3.348-1.852,4.286,0.195c1.56,0.324,5.902,1.149,3.126,3.504
		c0.429,3.59-1.92,3.247-2.411,3.7c-4.273,3.937-3.003,9.144-1.25,13.922l6.339-0.195l-2.678-12.266l7.411-3.991l19.822,0.486
		l0.267-10.667l-1.74-0.164L186.286,0l7.254,0.146l0.045,0.73l-1.339,0.632l2.098,11.537l3.795,0.195l-1.206,16.063l-0.181,44.936
		l-44.464-0.688l-3.394-2.726v2.434L0,73.554l3.037-55.131l27.694,0.195l2.144,8.376l2.145-8.572l27.873,0.195l0.357,8.376
		L70.057,27.124z"/>
	<polygon fill-rule="evenodd" clip-rule="evenodd" fill="#B1CD49" points="8.041,22.514 4.824,69.853 20.389,69.978 21.351,47.596 
		27.65,70.058 38.95,70.12 44.311,48.034 45.964,70.023 62,70.047 58.604,22.806 39.446,22.498 33.412,45.891 27.158,22.904 	"/>
	<path fill-rule="evenodd" clip-rule="evenodd" fill="#B1CD49" d="M105.953,33.034l-0.219,37.401l14.513,0.147l-0.172-20.601
		c2.884-2.795,4.006-4.294,7.86-3.96l-0.184-14.157c-4.386,0.102-7.72,2.301-10.676,5.26l-3.44-4.14L105.953,33.034z"/>
	<polygon fill-rule="evenodd" clip-rule="evenodd" fill="#B1CD49" points="130.823,35.276 130.476,70.631 144.635,70.68 
		145.082,32.839 	"/>
	<path fill-rule="evenodd" clip-rule="evenodd" fill="#B1CD49" d="M175.457,70.437l-0.179-10.909
		c-4.174,1.092-7.483,2.573-11.971,1.266l0.536-14.318c2.273-5.466,6.599-2.537,10.363-1.169l2.323-11.104
		c-4.423-1.727-9.428-2.903-14.453-2.011c-15.713,2.79-18.607,27.64-5.188,37.397C162.333,73.547,169.621,72.159,175.457,70.437"/>
	<polygon fill-rule="evenodd" clip-rule="evenodd" fill="#B1CD49" points="180.126,35.276 179.779,70.631 193.939,70.68 
		194.385,32.839 	"/>
	<path fill-rule="evenodd" clip-rule="evenodd" fill="#B1CD49" d="M64.427,32.273l0.089,31.056
		c4.681,13.124,15.744,7.812,25.001,3.115L93,69.852h7.947l-0.089-37.579l-14.912-0.098l-0.178,24.826
		c-2.078,3.272-3.137,2.704-6.787,3.115l0.09-27.843H64.427z"/>
	<path fill="#375743" d="M61.295,10.043c-0.034-0.354-0.121-0.606-0.262-0.758c-0.142-0.153-0.327-0.229-0.558-0.229
		c-0.267,0-0.479,0.116-0.639,0.346c-0.102,0.144-0.166,0.357-0.193,0.642H61.295z M62.997,10.918H59.64
		c0.029,0.294,0.103,0.512,0.217,0.655c0.162,0.207,0.374,0.31,0.634,0.31c0.164,0,0.322-0.044,0.469-0.135
		c0.091-0.057,0.188-0.156,0.292-0.3l1.65,0.166c-0.253,0.479-0.556,0.823-0.913,1.031c-0.356,0.207-0.868,0.311-1.535,0.311
		c-0.579,0-1.034-0.089-1.367-0.267c-0.331-0.178-0.607-0.461-0.824-0.849c-0.218-0.387-0.328-0.843-0.328-1.366
		c0-0.744,0.219-1.347,0.656-1.807c0.439-0.461,1.043-0.692,1.813-0.692c0.625,0,1.12,0.104,1.48,0.311
		c0.363,0.205,0.639,0.505,0.828,0.896c0.189,0.392,0.284,0.902,0.284,1.529V10.918z M55.446,10.452
		c0-0.375-0.072-0.654-0.217-0.837c-0.145-0.184-0.329-0.276-0.551-0.276c-0.195,0-0.358,0.089-0.49,0.265
		c-0.132,0.176-0.198,0.472-0.198,0.888c0,0.389,0.069,0.674,0.204,0.854c0.136,0.181,0.305,0.271,0.504,0.271
		c0.215,0,0.393-0.09,0.535-0.272C55.375,11.162,55.446,10.864,55.446,10.452z M57.126,6.27v6.578h-1.568v-0.704
		c-0.22,0.298-0.42,0.5-0.601,0.606c-0.242,0.136-0.51,0.206-0.807,0.206c-0.595,0-1.05-0.247-1.365-0.74
		c-0.313-0.493-0.47-1.093-0.47-1.799c0-0.791,0.173-1.393,0.521-1.812c0.347-0.42,0.788-0.629,1.322-0.629
		c0.261,0,0.497,0.049,0.71,0.144c0.212,0.097,0.4,0.239,0.566,0.431V6.27H57.126z M47.071,10.585c-0.23,0.09-0.47,0.17-0.719,0.239
		c-0.34,0.098-0.557,0.196-0.646,0.291c-0.094,0.1-0.14,0.211-0.14,0.337c0,0.144,0.046,0.26,0.137,0.352
		c0.093,0.09,0.228,0.136,0.406,0.136c0.187,0,0.359-0.049,0.521-0.146c0.16-0.1,0.274-0.221,0.341-0.362
		c0.067-0.143,0.1-0.328,0.1-0.555V10.585z M45.619,9.625l-1.6-0.184c0.06-0.304,0.148-0.545,0.261-0.719
		c0.114-0.175,0.277-0.327,0.492-0.456c0.153-0.093,0.366-0.165,0.634-0.216c0.268-0.05,0.559-0.076,0.872-0.076
		c0.501,0,0.906,0.031,1.209,0.092c0.305,0.062,0.559,0.189,0.761,0.385c0.144,0.134,0.256,0.324,0.338,0.571
		c0.082,0.248,0.122,0.482,0.122,0.707v2.104c0,0.224,0.015,0.4,0.04,0.527c0.027,0.127,0.083,0.29,0.171,0.487h-1.572
		c-0.063-0.123-0.104-0.216-0.124-0.28s-0.038-0.166-0.058-0.303c-0.219,0.231-0.438,0.395-0.655,0.493
		c-0.296,0.132-0.641,0.198-1.032,0.198c-0.521,0-0.917-0.132-1.188-0.396c-0.27-0.262-0.404-0.586-0.404-0.973
		c0-0.363,0.096-0.66,0.292-0.893c0.195-0.234,0.553-0.407,1.078-0.521c0.629-0.138,1.037-0.234,1.223-0.289
		c0.186-0.055,0.384-0.129,0.591-0.218c0-0.225-0.042-0.381-0.126-0.471c-0.085-0.089-0.235-0.135-0.45-0.135
		c-0.274,0-0.479,0.049-0.617,0.144C45.772,9.279,45.685,9.42,45.619,9.625z M40.224,8.083h1.568v0.78
		c0.151-0.337,0.307-0.57,0.467-0.697c0.16-0.126,0.358-0.191,0.594-0.191c0.248,0,0.517,0.084,0.811,0.25l-0.519,1.302
		c-0.196-0.09-0.354-0.135-0.469-0.135c-0.219,0-0.389,0.1-0.51,0.295c-0.173,0.279-0.26,0.8-0.26,1.563v1.597h-1.683V8.083z
		 M39.191,12.848h-1.564v-0.772c-0.233,0.317-0.468,0.544-0.705,0.677c-0.237,0.135-0.529,0.203-0.875,0.203
		c-0.461,0-0.822-0.15-1.084-0.45c-0.262-0.3-0.392-0.764-0.392-1.389V8.083h1.682v2.621c0,0.298,0.051,0.512,0.152,0.637
		c0.103,0.125,0.244,0.188,0.429,0.188c0.201,0,0.364-0.083,0.491-0.251c0.128-0.168,0.191-0.468,0.191-0.902V8.083h1.675V12.848z
		 M32.867,6.27v1.813h0.921v1.333h-0.921v1.691c0,0.204,0.018,0.339,0.053,0.404c0.056,0.101,0.151,0.153,0.289,0.153
		c0.124,0,0.296-0.04,0.518-0.118l0.124,1.262c-0.415,0.098-0.801,0.147-1.161,0.147c-0.417,0-0.725-0.059-0.921-0.175
		c-0.199-0.117-0.344-0.294-0.438-0.532c-0.095-0.237-0.142-0.623-0.142-1.156V9.416H30.57V8.083h0.618V7.208L32.867,6.27z
		 M28.101,8.083h1.676v4.765h-1.676V8.083z M28.101,6.27h1.676v1.244h-1.676V6.27z M25.567,10.043
		c-0.034-0.354-0.121-0.606-0.261-0.758c-0.142-0.153-0.327-0.229-0.558-0.229c-0.267,0-0.479,0.116-0.639,0.346
		c-0.102,0.144-0.166,0.357-0.192,0.642H25.567z M27.269,10.918h-3.357c0.029,0.294,0.102,0.512,0.217,0.655
		c0.162,0.207,0.375,0.31,0.634,0.31c0.164,0,0.322-0.044,0.469-0.135c0.091-0.057,0.188-0.156,0.292-0.3l1.651,0.166
		c-0.253,0.479-0.557,0.823-0.913,1.031c-0.357,0.207-0.868,0.311-1.536,0.311c-0.579,0-1.034-0.089-1.366-0.267
		c-0.332-0.178-0.607-0.461-0.825-0.849c-0.218-0.387-0.328-0.843-0.328-1.366c0-0.744,0.219-1.347,0.656-1.807
		c0.438-0.461,1.042-0.692,1.814-0.692c0.625,0,1.12,0.104,1.48,0.311c0.362,0.205,0.639,0.505,0.828,0.896
		c0.189,0.392,0.283,0.902,0.283,1.529V10.918z M21.148,8.083h0.798V9.42h-0.798v3.428h-1.68V9.42h-0.625V8.083h0.625V7.867
		c0-0.195,0.019-0.409,0.057-0.642c0.04-0.232,0.111-0.424,0.216-0.571c0.105-0.148,0.254-0.268,0.444-0.36
		c0.191-0.091,0.471-0.136,0.838-0.136c0.294,0,0.719,0.037,1.279,0.111l-0.185,1.104c-0.201-0.036-0.362-0.054-0.486-0.054
		c-0.15,0-0.258,0.028-0.324,0.083s-0.113,0.143-0.14,0.261C21.153,7.731,21.148,7.87,21.148,8.083z M16.811,10.043
		c-0.034-0.354-0.122-0.606-0.262-0.758c-0.142-0.153-0.328-0.229-0.558-0.229c-0.267,0-0.479,0.116-0.639,0.346
		c-0.102,0.144-0.167,0.357-0.192,0.642H16.811z M18.513,10.918h-3.357c0.03,0.294,0.103,0.512,0.217,0.655
		c0.162,0.207,0.374,0.31,0.633,0.31c0.165,0,0.322-0.044,0.47-0.135c0.091-0.057,0.188-0.156,0.292-0.3l1.65,0.166
		c-0.252,0.479-0.556,0.823-0.913,1.031c-0.356,0.207-0.868,0.311-1.535,0.311c-0.579,0-1.034-0.089-1.367-0.267
		c-0.331-0.178-0.607-0.461-0.824-0.849c-0.218-0.387-0.327-0.843-0.327-1.366c0-0.744,0.219-1.347,0.655-1.807
		c0.438-0.461,1.042-0.692,1.814-0.692c0.625,0,1.12,0.104,1.48,0.311c0.362,0.205,0.639,0.505,0.827,0.896
		c0.189,0.392,0.284,0.902,0.284,1.529V10.918z M9.801,8.083h1.568v0.78c0.151-0.337,0.307-0.57,0.468-0.697
		c0.16-0.126,0.358-0.191,0.594-0.191c0.247,0,0.517,0.084,0.811,0.25l-0.518,1.302c-0.197-0.09-0.354-0.135-0.469-0.135
		c-0.219,0-0.389,0.1-0.51,0.295c-0.172,0.279-0.26,0.8-0.26,1.563v1.597H9.801V8.083z M5.674,9.074h0.457
		c0.36,0,0.611-0.067,0.757-0.204c0.145-0.137,0.217-0.312,0.217-0.522c0-0.207-0.063-0.383-0.189-0.525
		c-0.125-0.144-0.362-0.216-0.71-0.216H5.674V9.074z M3.802,6.27h3.099c0.674,0,1.18,0.175,1.516,0.526
		C8.752,7.145,8.92,7.644,8.92,8.289c0,0.665-0.182,1.184-0.549,1.558c-0.366,0.373-0.925,0.561-1.677,0.561h-1.02v2.441H3.802V6.27
		z"/>
	<path fill="#375743" d="M188.305,88.637l2.571-0.265c0.106,0.333,0.254,0.573,0.445,0.714c0.191,0.145,0.445,0.216,0.764,0.216
		c0.348,0,0.617-0.081,0.808-0.244c0.147-0.119,0.222-0.27,0.222-0.45c0-0.204-0.098-0.36-0.291-0.471
		c-0.141-0.078-0.513-0.175-1.114-0.291c-0.899-0.173-1.524-0.329-1.874-0.476s-0.645-0.394-0.884-0.739
		c-0.241-0.346-0.36-0.741-0.36-1.186c0-0.486,0.13-0.905,0.389-1.255c0.259-0.353,0.615-0.615,1.069-0.788
		c0.454-0.173,1.062-0.261,1.826-0.261c0.806,0,1.4,0.068,1.785,0.201c0.384,0.135,0.704,0.343,0.96,0.625s0.469,0.663,0.641,1.144
		l-2.456,0.265c-0.065-0.237-0.169-0.409-0.32-0.521c-0.204-0.149-0.449-0.223-0.738-0.223c-0.291,0-0.506,0.057-0.639,0.17
		c-0.134,0.113-0.199,0.251-0.199,0.413c0,0.182,0.084,0.317,0.254,0.409c0.169,0.092,0.538,0.175,1.107,0.25
		c0.86,0.107,1.501,0.254,1.92,0.443c0.421,0.19,0.743,0.46,0.964,0.813c0.224,0.351,0.334,0.736,0.334,1.158
		c0,0.426-0.117,0.841-0.354,1.243c-0.234,0.403-0.606,0.723-1.112,0.959c-0.508,0.24-1.199,0.358-2.072,0.358
		c-1.233,0-2.112-0.192-2.636-0.576C188.792,89.889,188.455,89.342,188.305,88.637 M184.941,86.339
		c-0.052-0.547-0.186-0.938-0.404-1.172c-0.219-0.237-0.506-0.355-0.862-0.355c-0.413,0-0.741,0.18-0.989,0.535
		c-0.156,0.223-0.256,0.551-0.297,0.992H184.941z M187.573,87.691h-5.19c0.045,0.455,0.158,0.791,0.337,1.014
		c0.25,0.319,0.578,0.478,0.979,0.478c0.254,0,0.498-0.068,0.726-0.208c0.141-0.087,0.291-0.241,0.452-0.464l2.552,0.256
		c-0.391,0.741-0.86,1.271-1.412,1.593c-0.552,0.32-1.342,0.481-2.374,0.481c-0.895,0-1.599-0.137-2.113-0.412
		c-0.512-0.275-0.938-0.713-1.275-1.313c-0.336-0.599-0.506-1.302-0.506-2.112c0-1.151,0.339-2.084,1.014-2.794
		c0.678-0.713,1.612-1.07,2.804-1.07c0.966,0,1.731,0.161,2.289,0.48c0.561,0.317,0.988,0.782,1.279,1.385
		c0.293,0.606,0.438,1.395,0.438,2.365V87.691z M176.23,80.505h1.005c0.004,0.12,0.007,0.225,0.007,0.313
		c0,0.513-0.12,0.911-0.356,1.193c-0.239,0.282-0.543,0.424-0.917,0.424c-0.271,0-0.684-0.124-1.236-0.37
		c-0.334-0.147-0.565-0.223-0.692-0.223c-0.124,0-0.219,0.043-0.287,0.126c-0.067,0.083-0.104,0.232-0.108,0.445h-0.993
		c-0.004-0.112-0.006-0.209-0.006-0.292c0-0.495,0.126-0.888,0.375-1.179c0.25-0.292,0.548-0.438,0.891-0.438
		c0.15,0,0.289,0.019,0.421,0.057c0.13,0.036,0.374,0.135,0.727,0.296c0.354,0.163,0.613,0.244,0.773,0.244
		c0.115,0,0.207-0.042,0.278-0.127C176.183,80.889,176.222,80.732,176.23,80.505z M173.659,87.005c0,0.658,0.122,1.144,0.367,1.457
		c0.243,0.314,0.549,0.473,0.919,0.473c0.374,0,0.68-0.156,0.918-0.466c0.241-0.31,0.361-0.805,0.361-1.492
		c0-0.637-0.122-1.112-0.363-1.425c-0.241-0.31-0.541-0.466-0.896-0.466c-0.378,0-0.691,0.158-0.937,0.473
		C173.783,85.875,173.659,86.358,173.659,87.005z M171.063,87.012c0-1.122,0.348-2.05,1.042-2.777
		c0.697-0.729,1.636-1.094,2.819-1.094c1.353,0,2.375,0.429,3.066,1.283c0.557,0.688,0.834,1.539,0.834,2.548
		c0,1.132-0.346,2.06-1.034,2.785c-0.688,0.722-1.642,1.084-2.86,1.084c-1.086,0-1.963-0.301-2.635-0.902
		C171.474,89.195,171.063,88.219,171.063,87.012z M164.822,91.819l0.192-0.817c0.397-0.107,0.771-0.161,1.118-0.161
		c0.726,0,1.228,0.135,1.503,0.402c0.275,0.27,0.412,0.585,0.412,0.952c0,0.22-0.063,0.45-0.187,0.687
		c-0.126,0.234-0.35,0.424-0.671,0.568c-0.324,0.142-0.751,0.215-1.286,0.215c-0.484,0-1.051-0.062-1.705-0.18v-0.855
		c0.441,0.092,0.91,0.14,1.405,0.14c0.365,0,0.612-0.054,0.743-0.161c0.128-0.107,0.193-0.244,0.193-0.415
		c0-0.135-0.054-0.251-0.159-0.348c-0.106-0.097-0.271-0.145-0.497-0.145C165.582,91.703,165.229,91.74,164.822,91.819z
		 M167.73,87.796l2.461,0.306c-0.134,0.558-0.358,1.044-0.667,1.453c-0.31,0.41-0.705,0.727-1.188,0.955
		c-0.479,0.225-1.092,0.339-1.834,0.339c-0.717,0-1.314-0.074-1.79-0.218c-0.478-0.146-0.889-0.381-1.232-0.708
		c-0.345-0.327-0.614-0.708-0.807-1.148c-0.196-0.438-0.293-1.021-0.293-1.748c0-0.757,0.117-1.39,0.356-1.894
		c0.173-0.369,0.41-0.701,0.712-0.994c0.301-0.294,0.61-0.514,0.929-0.656c0.504-0.228,1.151-0.341,1.94-0.341
		c1.103,0,1.943,0.215,2.523,0.646c0.578,0.428,0.986,1.058,1.218,1.887l-2.437,0.353c-0.076-0.314-0.215-0.551-0.417-0.71
		c-0.201-0.161-0.471-0.239-0.812-0.239c-0.428,0-0.776,0.167-1.041,0.502c-0.265,0.336-0.397,0.843-0.397,1.522
		c0,0.606,0.132,1.065,0.396,1.38c0.262,0.315,0.597,0.471,1.005,0.471c0.339,0,0.623-0.095,0.855-0.284
		C167.441,88.48,167.615,88.188,167.73,87.796z M158.605,87.178c-0.356,0.14-0.728,0.263-1.112,0.37
		c-0.525,0.151-0.86,0.303-0.999,0.449c-0.146,0.154-0.217,0.328-0.217,0.521c0,0.223,0.072,0.402,0.213,0.544
		c0.143,0.14,0.352,0.21,0.628,0.21c0.289,0,0.556-0.076,0.805-0.227c0.248-0.154,0.424-0.341,0.528-0.559
		c0.104-0.22,0.155-0.506,0.155-0.857V87.178z M156.359,85.693l-2.473-0.284c0.093-0.471,0.228-0.843,0.404-1.113
		c0.175-0.27,0.427-0.504,0.76-0.703c0.236-0.145,0.564-0.256,0.979-0.333c0.415-0.079,0.864-0.119,1.349-0.119
		c0.775,0,1.401,0.047,1.87,0.142c0.471,0.095,0.865,0.294,1.177,0.595c0.222,0.208,0.396,0.502,0.523,0.883
		c0.126,0.384,0.188,0.746,0.188,1.094v3.254c0,0.345,0.022,0.618,0.061,0.814c0.042,0.197,0.128,0.448,0.265,0.753h-2.43
		c-0.098-0.189-0.161-0.333-0.191-0.433c-0.03-0.1-0.059-0.256-0.089-0.47c-0.339,0.358-0.677,0.612-1.012,0.763
		c-0.458,0.204-0.99,0.306-1.596,0.306c-0.806,0-1.418-0.204-1.838-0.611c-0.417-0.405-0.625-0.907-0.625-1.504
		c0-0.561,0.149-1.021,0.452-1.38c0.302-0.362,0.856-0.63,1.666-0.805c0.974-0.213,1.603-0.362,1.892-0.447
		c0.287-0.085,0.593-0.199,0.915-0.336c0-0.349-0.066-0.59-0.196-0.73c-0.133-0.137-0.363-0.208-0.695-0.208
		c-0.424,0-0.741,0.076-0.954,0.223C156.596,85.158,156.461,85.375,156.359,85.693z M146.46,83.309h6.266v1.65l-3.41,3.789h3.621
		v1.927h-6.732v-1.83l3.233-3.609h-2.978V83.309z M142.508,83.309h2.591v7.366h-2.591V83.309z M142.508,80.505h2.591v1.922h-2.591
		V80.505z M138.162,80.505h2.597v10.169h-2.597V80.505z M133.988,87.178c-0.356,0.14-0.727,0.263-1.112,0.37
		c-0.525,0.151-0.86,0.303-0.998,0.449c-0.146,0.154-0.218,0.328-0.218,0.521c0,0.223,0.073,0.402,0.213,0.544
		c0.143,0.14,0.352,0.21,0.628,0.21c0.289,0,0.555-0.076,0.806-0.227c0.248-0.154,0.423-0.341,0.527-0.559
		c0.104-0.22,0.154-0.506,0.154-0.857V87.178z M131.743,85.693l-2.474-0.284c0.093-0.471,0.228-0.843,0.404-1.113
		c0.176-0.27,0.427-0.504,0.759-0.703c0.237-0.145,0.565-0.256,0.98-0.333c0.415-0.079,0.864-0.119,1.348-0.119
		c0.776,0,1.401,0.047,1.871,0.142c0.471,0.095,0.864,0.294,1.177,0.595c0.222,0.208,0.396,0.502,0.523,0.883
		c0.125,0.384,0.189,0.746,0.189,1.094v3.254c0,0.345,0.021,0.618,0.061,0.814c0.042,0.197,0.128,0.448,0.266,0.753h-2.431
		c-0.098-0.189-0.16-0.333-0.191-0.433c-0.031-0.1-0.059-0.256-0.089-0.47c-0.339,0.358-0.678,0.612-1.012,0.763
		c-0.458,0.204-0.99,0.306-1.596,0.306c-0.806,0-1.418-0.204-1.837-0.611c-0.417-0.405-0.625-0.907-0.625-1.504
		c0-0.561,0.15-1.021,0.452-1.38c0.302-0.362,0.855-0.63,1.666-0.805c0.973-0.213,1.603-0.362,1.892-0.447
		c0.286-0.085,0.592-0.199,0.914-0.336c0-0.349-0.065-0.59-0.196-0.73c-0.132-0.137-0.362-0.208-0.695-0.208
		c-0.423,0-0.741,0.076-0.953,0.223C131.979,85.158,131.844,85.375,131.743,85.693z M125.559,86.339
		c-0.052-0.547-0.187-0.938-0.404-1.172c-0.219-0.237-0.506-0.355-0.862-0.355c-0.412,0-0.74,0.18-0.988,0.535
		c-0.156,0.223-0.256,0.551-0.298,0.992H125.559z M128.192,87.691h-5.191c0.045,0.455,0.159,0.791,0.336,1.014
		c0.25,0.319,0.578,0.478,0.979,0.478c0.254,0,0.497-0.068,0.726-0.208c0.141-0.087,0.291-0.241,0.452-0.464l2.552,0.256
		c-0.391,0.741-0.86,1.271-1.412,1.593c-0.552,0.32-1.342,0.481-2.374,0.481c-0.895,0-1.599-0.137-2.113-0.412
		c-0.513-0.274-0.939-0.712-1.275-1.312c-0.336-0.599-0.506-1.302-0.506-2.112c0-1.151,0.339-2.084,1.014-2.794
		c0.678-0.713,1.611-1.07,2.804-1.07c0.966,0,1.73,0.161,2.289,0.48c0.561,0.317,0.988,0.782,1.279,1.385
		c0.293,0.606,0.439,1.395,0.439,2.365V87.691z M114.723,83.309h2.423v1.205c0.234-0.521,0.476-0.881,0.723-1.077
		c0.248-0.196,0.554-0.296,0.919-0.296c0.382,0,0.799,0.13,1.253,0.388l-0.801,2.013c-0.304-0.14-0.547-0.208-0.726-0.208
		c-0.339,0-0.601,0.154-0.789,0.458c-0.267,0.43-0.402,1.236-0.402,2.415v2.469h-2.601V83.309z M106.528,86.339
		c-0.052-0.547-0.187-0.938-0.404-1.172c-0.219-0.237-0.506-0.355-0.863-0.355c-0.412,0-0.74,0.18-0.988,0.535
		c-0.156,0.223-0.256,0.551-0.297,0.992H106.528z M109.16,87.691h-5.19c0.046,0.455,0.159,0.791,0.337,1.014
		c0.25,0.319,0.578,0.478,0.979,0.478c0.254,0,0.498-0.068,0.725-0.208c0.141-0.087,0.292-0.241,0.452-0.464l2.552,0.256
		c-0.391,0.741-0.86,1.271-1.412,1.593c-0.551,0.32-1.342,0.481-2.374,0.481c-0.895,0-1.598-0.137-2.113-0.412
		c-0.513-0.274-0.938-0.712-1.275-1.312c-0.336-0.599-0.506-1.302-0.506-2.112c0-1.151,0.339-2.084,1.015-2.794
		c0.677-0.713,1.611-1.07,2.804-1.07c0.966,0,1.73,0.161,2.289,0.48c0.561,0.317,0.988,0.782,1.279,1.385
		c0.293,0.606,0.438,1.395,0.438,2.365V87.691z M97.485,86.972c0-0.58-0.111-1.011-0.336-1.295
		c-0.224-0.284-0.509-0.426-0.852-0.426c-0.302,0-0.554,0.138-0.758,0.41c-0.205,0.272-0.307,0.729-0.307,1.373
		c0,0.602,0.107,1.042,0.315,1.321c0.21,0.279,0.471,0.419,0.78,0.419c0.332,0,0.608-0.14,0.827-0.422
		C97.376,88.068,97.485,87.609,97.485,86.972z M100.083,80.505v10.169h-2.424v-1.089c-0.34,0.461-0.649,0.774-0.929,0.937
		c-0.374,0.211-0.788,0.318-1.247,0.318c-0.92,0-1.624-0.381-2.11-1.144c-0.484-0.763-0.728-1.691-0.728-2.782
		c0-1.222,0.267-2.155,0.806-2.801c0.537-0.649,1.219-0.973,2.044-0.973c0.404,0,0.769,0.076,1.099,0.222
		c0.328,0.149,0.619,0.369,0.875,0.666v-3.523H100.083z M82.209,87.005c0,0.658,0.122,1.144,0.368,1.457
		c0.243,0.314,0.549,0.473,0.918,0.473c0.374,0,0.68-0.156,0.919-0.466c0.241-0.31,0.36-0.805,0.36-1.492
		c0-0.637-0.122-1.112-0.363-1.425c-0.241-0.31-0.541-0.466-0.896-0.466c-0.378,0-0.691,0.158-0.937,0.473
		C82.333,85.875,82.209,86.358,82.209,87.005z M79.614,87.012c0-1.122,0.347-2.05,1.042-2.777c0.697-0.729,1.635-1.094,2.819-1.094
		c1.353,0,2.376,0.429,3.067,1.283c0.556,0.688,0.833,1.539,0.833,2.548c0,1.132-0.345,2.06-1.033,2.785
		c-0.689,0.722-1.642,1.084-2.86,1.084c-1.086,0-1.963-0.301-2.635-0.902C80.024,89.195,79.614,88.219,79.614,87.012z M73.85,87.012
		c0,0.582,0.111,1.016,0.336,1.298c0.224,0.282,0.508,0.424,0.851,0.424c0.302,0,0.554-0.135,0.759-0.407
		c0.204-0.27,0.306-0.729,0.306-1.376c0-0.597-0.106-1.035-0.319-1.314c-0.21-0.282-0.471-0.421-0.775-0.421
		c-0.332,0-0.608,0.142-0.827,0.423C73.959,85.92,73.85,86.38,73.85,87.012z M71.252,93.479v-10.17h2.424v1.089
		c0.336-0.459,0.643-0.77,0.923-0.931c0.377-0.218,0.794-0.327,1.253-0.327c0.903,0,1.603,0.379,2.098,1.132
		c0.492,0.753,0.741,1.686,0.741,2.796c0,1.225-0.27,2.16-0.809,2.807c-0.539,0.644-1.22,0.966-2.041,0.966
		c-0.4,0-0.765-0.073-1.092-0.22c-0.328-0.149-0.624-0.37-0.882-0.661v3.519H71.252z M58.229,83.309h2.417v1.075
		c0.35-0.45,0.699-0.768,1.053-0.959c0.354-0.189,0.782-0.284,1.284-0.284c0.539,0,0.964,0.104,1.277,0.313
		c0.315,0.208,0.571,0.519,0.771,0.931c0.406-0.481,0.777-0.81,1.114-0.983c0.334-0.173,0.747-0.26,1.24-0.26
		c0.726,0,1.292,0.234,1.698,0.706c0.408,0.469,0.61,1.203,0.61,2.202v4.627h-2.595v-4.196c0-0.333-0.059-0.582-0.178-0.744
		c-0.174-0.253-0.391-0.381-0.65-0.381c-0.304,0-0.552,0.121-0.738,0.36c-0.188,0.241-0.278,0.627-0.278,1.16v3.801h-2.597v-4.059
		c0-0.324-0.018-0.542-0.05-0.658c-0.057-0.185-0.152-0.333-0.287-0.447c-0.136-0.113-0.295-0.17-0.477-0.17
		c-0.298,0-0.541,0.123-0.732,0.367c-0.191,0.246-0.287,0.648-0.287,1.208v3.76h-2.596V83.309z M54.387,86.339
		c-0.052-0.547-0.186-0.938-0.404-1.172c-0.22-0.237-0.506-0.355-0.862-0.355c-0.412,0-0.74,0.18-0.988,0.535
		c-0.157,0.223-0.256,0.551-0.298,0.992H54.387z M57.019,87.691h-5.19c0.045,0.455,0.158,0.791,0.336,1.014
		c0.25,0.319,0.578,0.478,0.98,0.478c0.254,0,0.497-0.068,0.726-0.208c0.141-0.087,0.291-0.241,0.451-0.464l2.552,0.256
		c-0.391,0.741-0.86,1.271-1.411,1.593c-0.552,0.32-1.343,0.481-2.375,0.481c-0.895,0-1.598-0.137-2.113-0.412
		c-0.512-0.274-0.938-0.712-1.275-1.312c-0.336-0.599-0.506-1.302-0.506-2.112c0-1.151,0.338-2.084,1.014-2.794
		c0.678-0.713,1.612-1.07,2.804-1.07c0.966,0,1.731,0.161,2.289,0.48c0.56,0.317,0.988,0.782,1.279,1.385
		c0.293,0.606,0.439,1.395,0.439,2.365V87.691z M46.86,80.505v2.803h1.425v2.06H46.86v2.614c0,0.315,0.028,0.523,0.083,0.625
		c0.085,0.156,0.232,0.237,0.445,0.237c0.191,0,0.458-0.062,0.801-0.182l0.191,1.951c-0.641,0.151-1.238,0.227-1.793,0.227
		c-0.646,0-1.121-0.09-1.425-0.27c-0.307-0.18-0.532-0.454-0.678-0.821c-0.147-0.367-0.22-0.964-0.22-1.788v-2.593h-0.955v-2.06
		h0.955v-1.355L46.86,80.505z M32.976,87.005c0,0.658,0.122,1.144,0.367,1.457c0.244,0.314,0.549,0.473,0.919,0.473
		c0.373,0,0.68-0.156,0.918-0.466c0.241-0.31,0.36-0.805,0.36-1.492c0-0.637-0.122-1.112-0.362-1.425
		c-0.242-0.31-0.541-0.466-0.897-0.466c-0.378,0-0.69,0.158-0.936,0.473C33.099,85.875,32.976,86.358,32.976,87.005z M30.38,87.012
		c0-1.122,0.348-2.05,1.043-2.777c0.697-0.729,1.635-1.094,2.819-1.094c1.353,0,2.375,0.429,3.066,1.283
		c0.556,0.689,0.834,1.539,0.834,2.548c0,1.132-0.345,2.06-1.034,2.785c-0.688,0.722-1.642,1.084-2.86,1.084
		c-1.086,0-1.963-0.301-2.634-0.902C30.791,89.195,30.38,88.219,30.38,87.012z M22.306,83.309h2.697l1.312,4.667l1.355-4.667h2.615
		l-2.871,7.367h-2.295L22.306,83.309z M17.107,87.005c0,0.658,0.122,1.144,0.367,1.457c0.243,0.314,0.549,0.473,0.918,0.473
		c0.374,0,0.68-0.156,0.919-0.466c0.241-0.31,0.36-0.805,0.36-1.492c0-0.637-0.122-1.112-0.363-1.425
		c-0.241-0.31-0.541-0.466-0.896-0.466c-0.377,0-0.691,0.158-0.937,0.473C17.231,85.875,17.107,86.358,17.107,87.005z
		 M14.511,87.012c0-1.122,0.348-2.05,1.042-2.777c0.697-0.729,1.636-1.094,2.819-1.094c1.353,0,2.375,0.429,3.066,1.283
		c0.556,0.689,0.834,1.539,0.834,2.548c0,1.132-0.345,2.06-1.034,2.785c-0.688,0.722-1.642,1.084-2.86,1.084
		c-1.086,0-1.963-0.301-2.635-0.902C14.922,89.195,14.511,88.219,14.511,87.012z M4.166,80.505h2.693l3.512,5.626v-5.626h2.717
		v10.17H10.37l-3.494-5.583v5.583h-2.71V80.505z"/>
</g>
</svg>
