<?xml version="1.0" encoding="utf-8"?>
<!-- Generator: Adobe Illustrator 16.0.0, SVG Export Plug-In . SVG Version: 6.00 Build 0)  -->
<!DOCTYPE svg PUBLIC "-//W3C//DTD SVG 1.1//EN" "http://www.w3.org/Graphics/SVG/1.1/DTD/svg11.dtd">
<svg version="1.1" id="Camada_1" xmlns="http://www.w3.org/2000/svg" xmlns:xlink="http://www.w3.org/1999/xlink" x="0px" y="0px"
	 width="238.775px" height="100px" viewBox="0 0 238.775 100" enable-background="new 0 0 238.775 100" xml:space="preserve">
<g>
	<linearGradient id="SVGID_1_" gradientUnits="userSpaceOnUse" x1="0" y1="42.1367" x2="93.1055" y2="42.1367">
		<stop  offset="0" style="stop-color:#FFE6BF"/>
		<stop  offset="1" style="stop-color:#FF952A"/>
	</linearGradient>
	<polygon fill-rule="evenodd" clip-rule="evenodd" fill="url(#SVGID_1_)" points="89.912,4.766 90.222,4.898 90.488,5.076 
		90.754,5.253 90.977,5.431 91.154,5.652 91.375,5.83 91.508,6.052 91.686,6.274 91.952,6.717 92.218,7.25 92.396,7.826 
		92.529,8.492 92.795,9.911 92.972,11.419 93.017,13.016 93.105,14.613 93.017,17.452 93.017,18.916 92.928,20.424 92.795,21.887 
		92.662,23.44 92.484,24.105 92.307,24.771 92.085,25.48 91.819,26.101 91.553,26.722 91.198,27.343 90.888,27.964 90.444,28.585 
		88.803,30.803 86.896,32.977 84.722,35.106 82.371,37.102 79.931,39.054 77.314,40.872 74.653,42.602 71.991,44.243 69.729,45.441 
		67.556,46.55 65.382,47.481 63.253,48.324 61.168,48.99 59.039,49.61 56.999,50.143 54.958,50.586 52.651,50.986 50.39,51.34 
		45.954,51.873 41.518,52.361 36.994,53.07 35.175,53.425 33.356,53.869 31.538,54.401 29.675,54.978 27.812,55.643 25.904,56.441 
		23.997,57.329 22.045,58.305 20.005,59.502 17.875,60.833 15.658,62.297 13.44,63.938 10.601,66.156 9.004,67.531 7.407,68.95 
		5.899,70.503 4.48,72.055 3.859,72.854 3.327,73.608 2.883,74.362 2.528,75.116 2.262,75.781 2.173,76.047 2.084,76.402 
		2.04,76.713 1.996,77.023 1.996,77.333 1.996,77.6 2.04,77.911 2.084,78.176 2.173,78.443 2.306,78.665 2.484,78.931 2.661,79.152 
		2.883,79.33 3.149,79.507 2.838,79.374 2.617,79.152 2.306,79.02 2.084,78.842 1.863,78.665 1.729,78.443 1.508,78.221 
		1.375,77.999 1.109,77.556 0.843,77.023 0.665,76.447 0.488,75.781 0.266,74.362 0.088,72.854 0.044,71.257 0,69.66 0.044,66.821 
		0.044,65.357 0.133,63.894 0.222,62.385 0.399,60.833 0.532,60.167 0.754,59.502 0.976,58.837 1.197,58.171 1.508,57.55 
		1.863,56.929 2.173,56.309 2.617,55.643 4.391,53.248 6.387,50.941 8.516,48.768 10.778,46.771 13.129,44.909 15.613,43.179 
		20.67,40.118 25.815,37.679 30.873,35.683 35.574,34.307 39.788,33.376 44.934,32.578 50.079,32.045 55.136,31.335 57.752,30.803 
		60.458,30.182 63.031,29.428 65.648,28.497 68.31,27.254 71.016,25.924 73.056,24.771 75.185,23.44 77.358,21.932 79.621,20.335 
		82.459,18.117 84.012,16.786 85.653,15.278 87.162,13.77 88.581,12.173 89.158,11.419 89.69,10.665 90.178,9.911 90.533,9.157 
		90.754,8.536 90.888,8.181 90.932,7.915 91.021,7.56 91.021,7.294 91.065,6.983 91.021,6.673 91.021,6.407 90.932,6.141 
		90.888,5.875 90.71,5.608 90.577,5.387 90.444,5.165 90.178,4.943 	"/>
	<g>
		<path fill-rule="evenodd" clip-rule="evenodd" fill="#DA2128" d="M227.02,94.855c0-0.399-0.045-0.754-0.178-1.065
			c-0.089-0.311-0.222-0.576-0.399-0.798c-0.222-0.222-0.443-0.399-0.709-0.532c-0.267-0.133-0.577-0.177-0.888-0.177h-1.375v5.189
			h1.375c0.311,0,0.621-0.044,0.888-0.177c0.266-0.133,0.487-0.311,0.709-0.532c0.178-0.222,0.311-0.488,0.399-0.798
			C226.975,95.653,227.02,95.254,227.02,94.855z M228.351,94.855c0,0.577-0.089,1.064-0.267,1.508
			c-0.178,0.444-0.399,0.843-0.71,1.153c-0.311,0.355-0.665,0.577-1.108,0.754c-0.444,0.177-0.932,0.266-1.42,0.266h-2.661v-7.363
			h2.661c0.488,0,0.976,0.088,1.42,0.266c0.443,0.177,0.798,0.443,1.108,0.798c0.311,0.311,0.532,0.709,0.71,1.153
			C228.262,93.834,228.351,94.323,228.351,94.855z M216.995,95.786h2.218l-0.842-2.484c-0.045-0.088-0.089-0.222-0.134-0.355
			c-0.044-0.133-0.088-0.311-0.133-0.488c-0.044,0.177-0.089,0.355-0.133,0.488c-0.045,0.133-0.089,0.267-0.133,0.399
			L216.995,95.786z M221.475,98.537H220.5c-0.133,0-0.222,0-0.311-0.089c-0.044-0.044-0.089-0.089-0.133-0.177l-0.532-1.553h-2.884
			l-0.487,1.553c-0.045,0.044-0.089,0.133-0.178,0.177c-0.044,0.089-0.133,0.089-0.267,0.089h-0.976l2.706-7.363h1.33
			L221.475,98.537z M214.422,91.173v0.532c0,0.133-0.044,0.266-0.133,0.399l-3.549,5.367h3.593v1.065h-5.234v-0.532
			c0-0.044,0-0.133,0-0.178c0.045-0.044,0.089-0.133,0.089-0.177l3.593-5.367h-3.459v-1.109H214.422z M207.902,98.537h-1.286v-7.363
			h1.286V98.537z M201.514,94.677h0.843c0.222,0,0.443-0.044,0.621-0.089c0.178-0.044,0.311-0.133,0.444-0.266
			c0.133-0.089,0.177-0.266,0.266-0.399c0.045-0.133,0.089-0.311,0.089-0.532c0-0.355-0.133-0.621-0.354-0.843
			c-0.223-0.178-0.577-0.311-1.065-0.311h-0.843V94.677z M201.514,95.653v2.883h-1.286v-7.363h2.129
			c0.488,0,0.888,0.044,1.198,0.177c0.354,0.089,0.621,0.222,0.843,0.443c0.222,0.178,0.354,0.399,0.487,0.666
			c0.089,0.266,0.134,0.532,0.134,0.843c0,0.266-0.045,0.488-0.089,0.71c-0.089,0.222-0.178,0.399-0.311,0.621
			c-0.134,0.178-0.267,0.311-0.488,0.444c-0.177,0.133-0.398,0.266-0.621,0.355c0.134,0.088,0.267,0.222,0.399,0.399l1.73,2.706
			h-1.154c-0.088,0-0.177,0-0.266-0.044s-0.178-0.133-0.222-0.222l-1.464-2.351c-0.045-0.089-0.089-0.178-0.178-0.178
			c-0.044-0.044-0.133-0.088-0.266-0.088H201.514z M197.877,94.855c0-0.399-0.045-0.754-0.178-1.065
			c-0.089-0.311-0.222-0.576-0.399-0.798c-0.222-0.266-0.443-0.399-0.71-0.532c-0.266-0.133-0.576-0.177-0.931-0.177
			c-0.311,0-0.621,0.044-0.888,0.177s-0.488,0.266-0.71,0.532c-0.177,0.222-0.31,0.488-0.443,0.798
			c-0.088,0.311-0.133,0.666-0.133,1.065c0,0.399,0.045,0.798,0.133,1.109c0.134,0.311,0.267,0.577,0.443,0.798
			c0.222,0.222,0.443,0.399,0.71,0.532c0.267,0.133,0.577,0.177,0.888,0.177c0.354,0,0.665-0.044,0.931-0.177
			c0.267-0.133,0.488-0.311,0.71-0.532c0.178-0.222,0.311-0.488,0.399-0.798C197.833,95.653,197.877,95.254,197.877,94.855z
			 M199.164,94.855c0,0.577-0.089,1.064-0.222,1.508c-0.178,0.488-0.399,0.843-0.71,1.198c-0.311,0.355-0.665,0.621-1.108,0.798
			c-0.444,0.178-0.932,0.266-1.464,0.266c-0.488,0-0.977-0.088-1.42-0.266c-0.443-0.177-0.798-0.443-1.108-0.798
			c-0.311-0.354-0.533-0.709-0.71-1.198c-0.178-0.443-0.267-0.931-0.267-1.508c0-0.532,0.089-1.021,0.267-1.464
			c0.177-0.488,0.399-0.887,0.71-1.198c0.311-0.355,0.665-0.621,1.108-0.798s0.932-0.266,1.42-0.266c0.532,0,1.02,0.089,1.464,0.266
			c0.443,0.177,0.798,0.443,1.108,0.798c0.311,0.311,0.532,0.71,0.71,1.198C199.075,93.834,199.164,94.323,199.164,94.855z
			 M189.272,97.428h2.75v1.109h-4.036v-7.363h1.286V97.428z M182.795,95.786h2.174l-0.843-2.484c0-0.088-0.045-0.222-0.089-0.355
			c-0.089-0.133-0.089-0.311-0.178-0.488c0,0.177-0.088,0.355-0.088,0.488c-0.089,0.133-0.089,0.267-0.134,0.399L182.795,95.786z
			 M187.276,98.537h-1.021c-0.089,0-0.178,0-0.266-0.089c-0.089-0.044-0.134-0.089-0.178-0.177l-0.487-1.553h-2.884l-0.488,1.553
			c-0.044,0.044-0.089,0.133-0.177,0.177c-0.089,0.089-0.178,0.089-0.267,0.089h-1.021l2.751-7.363h1.286L187.276,98.537z
			 M174.5,91.173h1.065c0.088,0,0.177,0.044,0.266,0.088c0.044,0.044,0.133,0.133,0.133,0.222l1.642,4.525
			c0.044,0.133,0.089,0.266,0.133,0.443c0.089,0.177,0.133,0.399,0.178,0.577c0.044-0.399,0.133-0.754,0.266-1.02l1.598-4.525
			c0.044-0.088,0.088-0.133,0.177-0.177c0.045-0.088,0.178-0.133,0.267-0.133h1.021l-2.795,7.363h-1.153L174.5,91.173z
			 M170.997,94.855c0-0.399-0.044-0.754-0.133-1.065c-0.133-0.311-0.267-0.576-0.443-0.798c-0.223-0.266-0.444-0.399-0.71-0.532
			c-0.267-0.133-0.576-0.177-0.887-0.177c-0.355,0-0.666,0.044-0.933,0.177c-0.266,0.133-0.487,0.266-0.709,0.532
			c-0.178,0.222-0.311,0.488-0.399,0.798c-0.133,0.311-0.177,0.666-0.177,1.065c0,0.399,0.044,0.798,0.177,1.109
			c0.089,0.311,0.222,0.577,0.399,0.798c0.222,0.222,0.443,0.399,0.709,0.532c0.267,0.133,0.577,0.177,0.933,0.177
			c0.311,0,0.62-0.044,0.887-0.177c0.266-0.133,0.487-0.311,0.71-0.532c0.177-0.222,0.311-0.488,0.443-0.798
			C170.953,95.653,170.997,95.254,170.997,94.855z M172.328,94.855c0,0.577-0.089,1.064-0.267,1.508
			c-0.178,0.488-0.399,0.843-0.709,1.198c-0.311,0.355-0.666,0.621-1.109,0.798c-0.443,0.178-0.932,0.266-1.419,0.266
			c-0.533,0-1.021-0.088-1.464-0.266c-0.399-0.177-0.799-0.443-1.109-0.798c-0.311-0.354-0.532-0.709-0.71-1.198
			c-0.177-0.443-0.266-0.931-0.266-1.508c0-0.532,0.089-1.021,0.266-1.464c0.178-0.488,0.399-0.887,0.71-1.198
			c0.311-0.355,0.71-0.621,1.109-0.798c0.443-0.177,0.931-0.266,1.464-0.266c0.487,0,0.976,0.089,1.419,0.266
			s0.799,0.443,1.109,0.798c0.31,0.311,0.531,0.71,0.709,1.198C172.239,93.834,172.328,94.323,172.328,94.855z M162.391,89.887
			c0.089,0,0.178,0,0.223-0.088c0.044-0.044,0.088-0.089,0.088-0.222h0.666c0,0.178-0.045,0.311-0.089,0.444
			c-0.045,0.177-0.089,0.266-0.178,0.354c-0.089,0.133-0.177,0.178-0.266,0.266c-0.134,0.044-0.267,0.044-0.399,0.044
			c-0.089,0-0.222,0-0.355-0.044c-0.089,0-0.177-0.044-0.266-0.088c-0.134-0.044-0.222-0.089-0.311-0.133s-0.133-0.044-0.222-0.044
			s-0.133,0-0.178,0.089c-0.044,0.044-0.089,0.133-0.089,0.222h-0.665c0-0.177,0.044-0.311,0.089-0.443
			c0.044-0.133,0.089-0.266,0.178-0.399c0.044-0.088,0.177-0.133,0.266-0.222c0.133-0.044,0.267-0.089,0.399-0.089
			c0.089,0,0.222,0.044,0.311,0.089c0.133,0,0.222,0.044,0.311,0.089c0.133,0.044,0.177,0.089,0.266,0.133
			C162.258,89.887,162.347,89.887,162.391,89.887z M160.706,95.786h2.219l-0.844-2.484c-0.044-0.088-0.089-0.222-0.133-0.355
			c-0.044-0.133-0.089-0.311-0.133-0.488c-0.045,0.177-0.089,0.355-0.134,0.488c-0.044,0.133-0.088,0.267-0.133,0.399
			L160.706,95.786z M165.186,98.537h-0.976c-0.134,0-0.223,0-0.267-0.089c-0.089-0.044-0.133-0.089-0.178-0.177l-0.487-1.553h-2.884
			l-0.532,1.553c0,0.044-0.044,0.133-0.133,0.177c-0.089,0.089-0.178,0.089-0.267,0.089h-1.02l2.706-7.363h1.33L165.186,98.537z
			 M157.024,94.855c0-0.399-0.044-0.754-0.133-1.065c-0.133-0.311-0.266-0.576-0.443-0.798c-0.178-0.222-0.399-0.399-0.71-0.532
			c-0.267-0.133-0.532-0.177-0.887-0.177h-1.331v5.189h1.331c0.354,0,0.62-0.044,0.887-0.177c0.311-0.133,0.532-0.311,0.71-0.532
			s0.311-0.488,0.443-0.798C156.98,95.653,157.024,95.254,157.024,94.855z M158.355,94.855c0,0.577-0.089,1.064-0.267,1.508
			c-0.177,0.444-0.399,0.843-0.709,1.153c-0.311,0.355-0.665,0.577-1.109,0.754c-0.443,0.177-0.887,0.266-1.419,0.266h-2.662v-7.363
			h2.662c0.532,0,0.976,0.088,1.419,0.266c0.444,0.177,0.799,0.443,1.109,0.798c0.31,0.311,0.532,0.709,0.709,1.153
			C158.266,93.834,158.355,94.323,158.355,94.855z M147,95.786h2.218l-0.843-2.484c-0.044-0.088-0.089-0.222-0.133-0.355
			c-0.044-0.133-0.089-0.311-0.133-0.488c-0.045,0.177-0.089,0.355-0.134,0.488c-0.044,0.133-0.089,0.267-0.133,0.399L147,95.786z
			 M151.479,98.537h-0.975c-0.134,0-0.223,0-0.267-0.089c-0.089-0.044-0.133-0.089-0.178-0.177l-0.532-1.553h-2.839l-0.532,1.553
			c-0.044,0.044-0.089,0.133-0.133,0.177c-0.089,0.089-0.178,0.089-0.311,0.089h-0.976l2.705-7.363h1.331L151.479,98.537z
			 M143.318,94.855c0-0.399-0.045-0.754-0.133-1.065c-0.134-0.311-0.267-0.576-0.443-0.798c-0.222-0.222-0.444-0.399-0.71-0.532
			c-0.267-0.133-0.577-0.177-0.888-0.177h-1.375v5.189h1.375c0.311,0,0.621-0.044,0.888-0.177c0.266-0.133,0.488-0.311,0.71-0.532
			c0.177-0.222,0.31-0.488,0.443-0.798C143.273,95.653,143.318,95.254,143.318,94.855z M144.649,94.855
			c0,0.577-0.089,1.064-0.267,1.508c-0.177,0.444-0.399,0.843-0.71,1.153c-0.311,0.355-0.665,0.577-1.108,0.754
			c-0.443,0.177-0.888,0.266-1.42,0.266h-2.661v-7.363h2.661c0.532,0,0.977,0.088,1.42,0.266c0.443,0.177,0.798,0.443,1.108,0.798
			c0.311,0.311,0.533,0.709,0.71,1.153C144.56,93.834,144.649,94.323,144.649,94.855z M136.93,98.537h-1.286v-7.363h1.286V98.537z
			 M133.826,96.807c0.044,0,0.133,0.044,0.178,0.088l0.532,0.621c-0.311,0.355-0.666,0.621-1.065,0.843
			c-0.399,0.178-0.887,0.266-1.463,0.266c-0.533,0-0.977-0.088-1.42-0.266c-0.399-0.177-0.754-0.443-1.021-0.754
			c-0.311-0.355-0.532-0.754-0.665-1.242c-0.178-0.443-0.267-0.931-0.267-1.508c0-0.532,0.089-1.021,0.267-1.508
			c0.177-0.443,0.443-0.843,0.754-1.198c0.311-0.311,0.666-0.577,1.109-0.754s0.932-0.266,1.464-0.266
			c0.487,0,0.931,0.044,1.33,0.222s0.71,0.443,0.977,0.71l-0.399,0.665c-0.045,0-0.089,0.044-0.089,0.089
			c-0.089,0.044-0.133,0.044-0.178,0.044c-0.089,0-0.178-0.044-0.266-0.089c-0.045-0.044-0.134-0.133-0.267-0.222
			c-0.133-0.044-0.267-0.133-0.443-0.178c-0.178-0.044-0.399-0.088-0.71-0.088s-0.621,0.044-0.887,0.177
			c-0.267,0.133-0.488,0.311-0.71,0.532c-0.178,0.222-0.354,0.488-0.443,0.798c-0.133,0.311-0.178,0.666-0.178,1.065
			c0,0.443,0.045,0.798,0.178,1.109c0.089,0.311,0.266,0.621,0.443,0.843c0.178,0.222,0.399,0.355,0.665,0.488
			c0.267,0.133,0.532,0.177,0.844,0.177c0.177,0,0.31,0,0.443-0.044c0.133,0,0.31-0.044,0.398-0.089
			c0.133-0.044,0.267-0.089,0.355-0.177c0.088-0.089,0.222-0.133,0.311-0.222c0.044-0.044,0.088-0.088,0.088-0.088
			C133.737,96.807,133.781,96.807,133.826,96.807z M124.732,97.782c0-0.089,0.045-0.177,0.045-0.266
			c0.044-0.088,0.088-0.177,0.177-0.222c0.045-0.088,0.134-0.133,0.178-0.133c0.089-0.044,0.222-0.089,0.311-0.089
			c0.133,0,0.222,0.044,0.311,0.089s0.178,0.088,0.222,0.177c0.089,0.089,0.089,0.177,0.134,0.311
			c0.044,0.088,0.044,0.177,0.044,0.311c0,0.177,0,0.311-0.044,0.488c-0.045,0.222-0.134,0.399-0.223,0.577
			c-0.088,0.178-0.222,0.355-0.354,0.488c-0.089,0.177-0.267,0.355-0.443,0.488l-0.178-0.222c-0.089-0.044-0.089-0.089-0.089-0.177
			c0,0,0-0.044,0-0.089c0.044-0.044,0.044-0.044,0.089-0.088c0.044-0.044,0.089-0.089,0.133-0.133
			c0.045-0.088,0.089-0.133,0.133-0.222c0.045-0.044,0.134-0.133,0.134-0.222c0.044-0.088,0.089-0.222,0.089-0.31
			c-0.089,0-0.178,0-0.267-0.044s-0.133-0.089-0.178-0.177c-0.089-0.044-0.133-0.133-0.177-0.222
			C124.777,98.004,124.732,97.916,124.732,97.782z M119.853,95.786h2.218l-0.843-2.484c-0.044-0.088-0.089-0.222-0.133-0.355
			c-0.044-0.133-0.088-0.311-0.133-0.488c-0.044,0.177-0.089,0.355-0.133,0.488c-0.044,0.133-0.088,0.267-0.133,0.399
			L119.853,95.786z M124.333,98.537h-0.977c-0.133,0-0.222,0-0.266-0.089c-0.089-0.044-0.134-0.089-0.178-0.177l-0.488-1.553h-2.883
			l-0.532,1.553c-0.044,0.044-0.089,0.133-0.133,0.177c-0.088,0.089-0.177,0.089-0.311,0.089h-0.976l2.706-7.363h1.331
			L124.333,98.537z M116.171,94.855c0-0.399-0.044-0.754-0.133-1.065c-0.133-0.311-0.267-0.576-0.444-0.798
			c-0.178-0.222-0.399-0.399-0.709-0.532c-0.267-0.133-0.577-0.177-0.887-0.177h-1.375v5.189h1.375c0.31,0,0.621-0.044,0.887-0.177
			c0.31-0.133,0.532-0.311,0.709-0.532c0.177-0.222,0.311-0.488,0.444-0.798C116.127,95.653,116.171,95.254,116.171,94.855z
			 M117.502,94.855c0,0.577-0.089,1.064-0.266,1.508c-0.177,0.444-0.399,0.843-0.71,1.153c-0.31,0.355-0.665,0.577-1.109,0.754
			c-0.443,0.177-0.887,0.266-1.419,0.266h-2.662v-7.363h2.662c0.532,0,0.976,0.088,1.419,0.266c0.444,0.177,0.799,0.443,1.109,0.798
			c0.311,0.311,0.533,0.709,0.71,1.153C117.413,93.834,117.502,94.323,117.502,94.855z M109.784,98.537h-1.286v-7.363h1.286V98.537z
			 M100.868,91.173h1.02c0.133,0,0.222,0.044,0.311,0.088c0.044,0.044,0.089,0.133,0.133,0.222l1.641,4.525
			c0.044,0.133,0.089,0.266,0.133,0.443c0.044,0.177,0.089,0.399,0.133,0.577c0.088-0.399,0.177-0.754,0.311-1.02l1.597-4.525
			c0.044-0.088,0.089-0.133,0.133-0.177c0.088-0.088,0.177-0.133,0.311-0.133h1.02l-2.794,7.363h-1.153L100.868,91.173z
			 M98.783,97.428h2.794v1.109h-4.081v-7.363h1.286V97.428z M95.19,94.855c0-0.399-0.089-0.754-0.178-1.065
			c-0.088-0.311-0.222-0.576-0.443-0.798c-0.177-0.266-0.399-0.399-0.666-0.532c-0.266-0.133-0.576-0.177-0.931-0.177
			c-0.311,0-0.621,0.044-0.887,0.177s-0.532,0.266-0.71,0.532c-0.177,0.222-0.355,0.488-0.443,0.798
			c-0.089,0.311-0.133,0.666-0.133,1.065c0,0.399,0.044,0.798,0.133,1.109c0.088,0.311,0.266,0.577,0.443,0.798
			c0.178,0.222,0.444,0.399,0.71,0.532c0.266,0.133,0.577,0.177,0.887,0.177c0.355,0,0.666-0.044,0.931-0.177
			c0.266-0.133,0.488-0.311,0.666-0.532c0.222-0.222,0.355-0.488,0.443-0.798C95.102,95.653,95.19,95.254,95.19,94.855z
			 M96.477,94.855c0,0.577-0.088,1.064-0.222,1.508c-0.177,0.488-0.443,0.843-0.709,1.198c-0.355,0.355-0.71,0.621-1.109,0.798
			c-0.444,0.178-0.932,0.266-1.464,0.266s-0.976-0.088-1.419-0.266c-0.444-0.177-0.798-0.443-1.109-0.798
			c-0.311-0.354-0.533-0.709-0.71-1.198c-0.177-0.443-0.266-0.931-0.266-1.508c0-0.532,0.089-1.021,0.266-1.464
			c0.177-0.488,0.399-0.887,0.71-1.198c0.311-0.355,0.665-0.621,1.109-0.798c0.443-0.177,0.887-0.266,1.419-0.266
			s1.02,0.089,1.464,0.266c0.399,0.177,0.754,0.443,1.109,0.798c0.266,0.311,0.532,0.71,0.709,1.198
			C96.388,93.834,96.477,94.323,96.477,94.855z M82.637,91.173h1.064c0.089,0,0.178,0.044,0.222,0.088
			c0.088,0.044,0.133,0.133,0.177,0.222l1.641,4.525c0.044,0.133,0.089,0.266,0.133,0.443c0.088,0.177,0.088,0.399,0.177,0.577
			c0.044-0.399,0.133-0.754,0.266-1.02l1.597-4.525c0.044-0.088,0.089-0.133,0.178-0.177c0.044-0.088,0.133-0.133,0.266-0.133h1.021
			l-2.795,7.363h-1.153L82.637,91.173z M76.738,91.173c0.089,0,0.133,0,0.133,0.044c0.089,0,0.089,0,0.133,0
			s0.044,0.044,0.089,0.088c0.044,0,0.044,0.044,0.089,0.089l3.637,4.924c0-0.089,0-0.222-0.044-0.355c0-0.089,0-0.222,0-0.311
			v-4.48h1.153v7.363h-0.666c-0.089,0-0.177,0-0.266-0.044c-0.089,0-0.133-0.089-0.178-0.177l-3.637-4.879
			c0,0.088,0.044,0.222,0.044,0.31c0,0.089,0,0.178,0,0.267v4.524h-1.153v-7.363H76.738z M74.963,91.173v1.109h-3.061v2.041h2.396
			v1.064h-2.396v2.084h3.061v1.065h-4.391v-7.363H74.963z M69.153,92.548c0,0.044-0.044,0.088-0.089,0.133s-0.133,0.044-0.177,0.044
			c-0.089,0-0.133,0-0.222-0.089c-0.088-0.044-0.177-0.088-0.266-0.177c-0.133-0.044-0.266-0.089-0.399-0.177
			c-0.133-0.044-0.311-0.044-0.532-0.044c-0.178,0-0.311,0-0.443,0.044c-0.133,0.044-0.222,0.133-0.311,0.222
			c-0.133,0.044-0.177,0.177-0.222,0.266c-0.044,0.133-0.089,0.266-0.089,0.399c0,0.133,0.044,0.31,0.133,0.399
			c0.089,0.133,0.222,0.222,0.399,0.311c0.133,0.089,0.311,0.178,0.488,0.222c0.222,0.044,0.399,0.133,0.577,0.222
			c0.222,0.044,0.399,0.133,0.621,0.222c0.177,0.088,0.355,0.222,0.488,0.355c0.133,0.177,0.266,0.354,0.355,0.576
			c0.088,0.178,0.133,0.444,0.133,0.754c0,0.354-0.044,0.665-0.133,0.932c-0.133,0.31-0.266,0.576-0.488,0.798
			c-0.178,0.222-0.444,0.355-0.754,0.488s-0.621,0.177-1.02,0.177c-0.222,0-0.444,0-0.666-0.044
			c-0.177-0.044-0.399-0.133-0.577-0.222c-0.222-0.088-0.399-0.177-0.577-0.266c-0.177-0.133-0.311-0.266-0.443-0.399l0.354-0.665
			c0.044-0.089,0.089-0.089,0.133-0.133c0.044-0.044,0.088-0.044,0.177-0.044s0.178,0,0.267,0.088
			c0.088,0.089,0.177,0.133,0.31,0.222c0.133,0.088,0.266,0.177,0.444,0.266c0.177,0.044,0.399,0.088,0.621,0.088
			c0.354,0,0.665-0.088,0.843-0.266c0.222-0.222,0.31-0.488,0.31-0.798c0-0.222-0.044-0.355-0.133-0.488
			c-0.089-0.133-0.222-0.222-0.355-0.311c-0.177-0.089-0.355-0.178-0.532-0.222c-0.177-0.044-0.354-0.089-0.577-0.178
			c-0.177-0.044-0.399-0.133-0.577-0.222c-0.177-0.133-0.354-0.222-0.532-0.399c-0.133-0.133-0.266-0.31-0.355-0.576
			c-0.088-0.222-0.133-0.488-0.133-0.843c0-0.267,0.044-0.533,0.177-0.754c0.089-0.266,0.222-0.488,0.399-0.709
			c0.222-0.178,0.443-0.355,0.754-0.444c0.266-0.133,0.577-0.177,0.932-0.177c0.399,0,0.798,0.044,1.153,0.177
			c0.311,0.133,0.621,0.311,0.843,0.577L69.153,92.548z M64.362,91.173v1.109h-3.105v2.041h2.439v1.064h-2.439v2.084h3.105v1.065
			h-4.392v-7.363H64.362z M57.62,94.855c0-0.399-0.044-0.754-0.133-1.065s-0.266-0.576-0.443-0.798
			c-0.178-0.222-0.399-0.399-0.666-0.532s-0.577-0.177-0.932-0.177h-1.331v5.189h1.331c0.355,0,0.666-0.044,0.932-0.177
			c0.266-0.133,0.488-0.311,0.666-0.532c0.177-0.222,0.354-0.488,0.443-0.798S57.62,95.254,57.62,94.855z M58.951,94.855
			c0,0.577-0.089,1.064-0.266,1.508c-0.133,0.444-0.399,0.843-0.71,1.153c-0.311,0.355-0.666,0.577-1.109,0.754
			c-0.399,0.177-0.887,0.266-1.419,0.266H52.83v-7.363h2.617c0.532,0,1.021,0.088,1.419,0.266c0.443,0.177,0.798,0.443,1.109,0.798
			c0.311,0.311,0.577,0.709,0.71,1.153C58.862,93.834,58.951,94.323,58.951,94.855z M45.776,95.786h2.174l-0.843-2.484
			c0-0.088-0.044-0.222-0.088-0.355c-0.044-0.133-0.133-0.311-0.133-0.488c-0.088,0.177-0.088,0.355-0.133,0.488
			c-0.044,0.133-0.089,0.267-0.133,0.399L45.776,95.786z M50.256,98.537h-1.02c-0.089,0-0.177,0-0.266-0.089
			c-0.089-0.044-0.133-0.089-0.177-0.177l-0.488-1.553h-2.883l-0.488,1.553c-0.044,0.044-0.088,0.133-0.177,0.177
			c-0.044,0.089-0.133,0.089-0.266,0.089h-1.02l2.75-7.363h1.286L50.256,98.537z M39.212,94.677h0.798
			c0.266,0,0.488-0.044,0.665-0.089c0.178-0.044,0.311-0.133,0.444-0.266c0.088-0.089,0.177-0.266,0.222-0.399
			c0.089-0.133,0.089-0.311,0.089-0.532c0-0.355-0.089-0.621-0.311-0.843c-0.266-0.178-0.621-0.311-1.065-0.311h-0.842V94.677z
			 M39.212,95.653v2.883h-1.287v-7.363h2.129c0.444,0,0.843,0.044,1.198,0.177c0.355,0.089,0.621,0.222,0.843,0.443
			c0.222,0.178,0.355,0.399,0.444,0.666c0.133,0.266,0.177,0.532,0.177,0.843c0,0.266-0.044,0.488-0.133,0.71
			c-0.044,0.222-0.133,0.399-0.266,0.621c-0.133,0.178-0.311,0.311-0.488,0.444c-0.177,0.133-0.399,0.266-0.665,0.355
			c0.177,0.088,0.311,0.222,0.443,0.399l1.73,2.706h-1.153c-0.133,0-0.222,0-0.266-0.044c-0.089-0.044-0.177-0.133-0.222-0.222
			l-1.464-2.351c-0.044-0.089-0.089-0.178-0.178-0.178c-0.088-0.044-0.133-0.088-0.266-0.088H39.212z M36.329,98.537h-1.287v-7.363
			h1.287V98.537z M33.756,91.173v1.109h-3.061v2.041h2.396v1.064h-2.396v2.084h3.061v1.065h-4.347v-7.363H33.756z M23.953,95.476
			c0.044,0.133,0.133,0.222,0.178,0.355c0.044,0.133,0.089,0.222,0.133,0.355c0.044-0.133,0.089-0.222,0.133-0.355
			c0.044-0.133,0.088-0.222,0.133-0.355l2.085-4.081c0-0.044,0.044-0.089,0.044-0.089c0.044-0.044,0.088-0.088,0.133-0.088
			c0,0,0.044,0,0.089-0.044c0.044,0,0.089,0,0.133,0h0.976v7.363H26.88V93.79c0-0.088,0-0.177,0-0.266c0-0.133,0-0.222,0-0.354
			l-2.085,4.169c-0.044,0.133-0.088,0.177-0.177,0.266c-0.089,0.044-0.177,0.088-0.266,0.088h-0.177
			c-0.089,0-0.178-0.044-0.266-0.088c-0.089-0.089-0.133-0.133-0.178-0.266l-2.129-4.169c0,0.133,0,0.222,0,0.31
			c0.044,0.133,0.044,0.222,0.044,0.311v4.747h-1.153v-7.363h0.976c0.044,0,0.089,0,0.133,0c0.044,0.044,0.088,0.044,0.133,0.044
			c0,0,0.044,0.044,0.089,0.088c0,0,0.044,0.044,0.089,0.089L23.953,95.476z M16.812,97.428h2.794v1.109h-4.081v-7.363h1.287V97.428
			z M10.335,95.786h2.218l-0.843-2.484c-0.044-0.088-0.089-0.222-0.133-0.355c-0.044-0.133-0.089-0.311-0.133-0.488
			c-0.044,0.177-0.088,0.355-0.133,0.488c-0.044,0.133-0.089,0.267-0.133,0.399L10.335,95.786z M14.815,98.537h-0.976
			c-0.133,0-0.222,0-0.266-0.089c-0.089-0.044-0.133-0.089-0.178-0.177l-0.532-1.553h-2.839l-0.533,1.553
			c0,0.044-0.088,0.133-0.133,0.177c-0.089,0.089-0.178,0.089-0.311,0.089H8.073l2.706-7.363h1.331L14.815,98.537z M4.835,94.899
			h0.976c0.222,0,0.443-0.044,0.621-0.089c0.178-0.089,0.311-0.178,0.444-0.266c0.088-0.133,0.177-0.266,0.222-0.444
			c0.088-0.177,0.088-0.355,0.088-0.577c0-0.177,0-0.354-0.088-0.532c-0.044-0.133-0.133-0.266-0.222-0.399
			c-0.133-0.088-0.266-0.177-0.444-0.266c-0.177-0.044-0.399-0.089-0.621-0.089H4.835V94.899z M4.835,95.964v2.573H3.549v-7.363
			h2.262c0.443,0,0.843,0.088,1.197,0.177c0.311,0.133,0.621,0.266,0.843,0.488c0.222,0.222,0.355,0.444,0.488,0.754
			c0.089,0.311,0.133,0.622,0.133,0.932c0,0.355-0.044,0.71-0.178,0.976c-0.088,0.311-0.266,0.577-0.487,0.798
			c-0.222,0.177-0.488,0.355-0.843,0.488c-0.31,0.133-0.709,0.178-1.153,0.178H4.835z"/>
		<path fill-rule="evenodd" clip-rule="evenodd" fill="#DA2128" d="M234.649,94.855c0-0.399-0.044-0.754-0.133-1.065
			c-0.133-0.354-0.266-0.621-0.443-0.843c-0.178-0.222-0.443-0.399-0.71-0.488c-0.267-0.133-0.576-0.177-0.887-0.177
			c-0.355,0-0.666,0.044-0.932,0.177c-0.267,0.089-0.532,0.266-0.71,0.488c-0.178,0.222-0.311,0.488-0.443,0.843
			c-0.089,0.311-0.133,0.666-0.133,1.065c0,0.399,0.044,0.798,0.133,1.109c0.133,0.311,0.266,0.577,0.443,0.798
			s0.443,0.399,0.71,0.532c0.266,0.089,0.576,0.177,0.932,0.177c0.311,0,0.62-0.088,0.887-0.177c0.267-0.133,0.532-0.311,0.71-0.532
			s0.311-0.488,0.443-0.798C234.605,95.653,234.649,95.254,234.649,94.855z M235.98,94.855c0,0.577-0.089,1.064-0.267,1.508
			c-0.177,0.488-0.399,0.843-0.709,1.198c-0.311,0.355-0.665,0.577-1.109,0.798c-0.443,0.178-0.887,0.266-1.419,0.266
			s-1.021-0.088-1.464-0.266c-0.399-0.222-0.799-0.443-1.109-0.798c-0.311-0.354-0.532-0.709-0.71-1.198
			c-0.177-0.443-0.266-0.931-0.266-1.508c0-0.532,0.089-1.021,0.266-1.508c0.178-0.443,0.399-0.843,0.71-1.198
			c0.311-0.311,0.71-0.577,1.109-0.754c0.443-0.177,0.932-0.266,1.464-0.266s0.976,0.089,1.419,0.266
			c0.444,0.177,0.799,0.443,1.109,0.798c0.31,0.311,0.532,0.71,0.709,1.153C235.891,93.834,235.98,94.323,235.98,94.855z"/>
	</g>
	<linearGradient id="SVGID_2_" gradientUnits="userSpaceOnUse" x1="50.2715" y1="67.0874" x2="90.7695" y2="67.0874">
		<stop  offset="0" style="stop-color:#E90006"/>
		<stop  offset="0.1747" style="stop-color:#EA040A"/>
		<stop  offset="0.3356" style="stop-color:#EB0E15"/>
		<stop  offset="0.4911" style="stop-color:#EE2028"/>
		<stop  offset="0.6432" style="stop-color:#F23942"/>
		<stop  offset="0.793" style="stop-color:#F65A64"/>
		<stop  offset="0.9389" style="stop-color:#FC818D"/>
		<stop  offset="1" style="stop-color:#FF94A0"/>
	</linearGradient>
	<polygon fill-rule="evenodd" clip-rule="evenodd" fill="url(#SVGID_2_)" points="89.705,80.483 89.04,80.705 88.286,80.882 
		87.487,80.927 86.645,80.927 84.693,80.661 82.519,80.04 80.168,79.241 77.64,78.088 75.067,76.668 72.272,74.983 66.55,70.857 
		60.873,65.801 55.328,59.901 52.755,56.663 50.271,53.248 53.021,53.603 54.396,53.78 55.772,54.046 57.59,54.401 59.409,54.845 
		61.316,55.377 63.091,55.954 64.998,56.619 66.861,57.417 68.768,58.305 70.72,59.28 72.76,60.478 74.89,61.809 77.107,63.272 
		79.37,64.958 82.164,67.131 83.761,68.507 85.358,69.97 86.911,71.479 88.286,73.031 88.907,73.83 89.439,74.628 89.882,75.382 
		90.282,76.136 90.503,76.757 90.592,77.067 90.681,77.378 90.725,77.688 90.77,77.999 90.77,78.265 90.77,78.576 90.725,78.842 
		90.681,79.152 90.592,79.418 90.503,79.596 90.326,79.862 90.148,80.04 89.971,80.306 	"/>
	<linearGradient id="SVGID_3_" gradientUnits="userSpaceOnUse" x1="1.7695" y1="19.1372" x2="42.312" y2="19.1372">
		<stop  offset="0" style="stop-color:#54C3FF"/>
		<stop  offset="0.2117" style="stop-color:#58C5FF"/>
		<stop  offset="0.4066" style="stop-color:#63CCFF"/>
		<stop  offset="0.5949" style="stop-color:#75D7FF"/>
		<stop  offset="0.7792" style="stop-color:#90E6FF"/>
		<stop  offset="0.9589" style="stop-color:#B1FAFF"/>
		<stop  offset="1" style="stop-color:#BAFFFF"/>
	</linearGradient>
	<polygon fill-rule="evenodd" clip-rule="evenodd" fill="url(#SVGID_3_)" points="2.878,5.786 3.544,5.52 4.253,5.387 5.052,5.298 
		5.939,5.342 7.846,5.608 10.02,6.141 12.371,7.028 14.899,8.181 17.561,9.601 20.311,11.286 25.989,15.411 31.71,20.468 
		37.211,26.367 39.828,29.605 42.312,32.977 39.872,32.666 37.433,32.311 34.904,31.823 32.376,31.202 29.803,30.359 27.23,29.472 
		24.569,28.319 21.819,26.944 19.823,25.791 17.694,24.46 15.476,22.952 13.213,21.311 10.419,19.093 8.822,17.762 7.181,16.298 
		5.673,14.79 4.253,13.193 3.721,12.439 3.145,11.641 2.657,10.842 2.302,10.133 2.08,9.512 1.991,9.201 1.947,8.891 1.858,8.58 
		1.814,8.27 1.77,7.959 1.814,7.693 1.814,7.383 1.947,7.116 1.991,6.85 2.08,6.628 2.213,6.407 2.391,6.141 2.612,5.963 	"/>
	<linearGradient id="SVGID_4_" gradientUnits="userSpaceOnUse" x1="0.022" y1="43.1123" x2="93.1279" y2="43.1123">
		<stop  offset="0" style="stop-color:#4D4D4D"/>
		<stop  offset="1" style="stop-color:#FFFFFF"/>
	</linearGradient>
	<polygon fill-rule="evenodd" clip-rule="evenodd" fill="url(#SVGID_4_)" points="3.171,5.741 2.905,5.919 2.684,6.141 2.506,6.362 
		2.329,6.584 2.196,6.85 2.107,7.116 2.063,7.383 2.018,7.648 2.018,7.959 2.018,8.27 2.063,8.58 2.107,8.891 2.196,9.201 
		2.284,9.512 2.55,10.133 2.905,10.842 3.349,11.641 3.881,12.439 4.502,13.193 5.921,14.79 7.43,16.298 9.026,17.762 
		10.624,19.093 13.462,21.311 15.68,22.952 17.898,24.46 20.027,25.791 22.067,26.944 24.818,28.319 27.479,29.472 30.052,30.359 
		32.625,31.158 35.331,31.823 37.903,32.355 43.048,33.021 48.149,33.598 53.295,34.352 57.509,35.239 62.21,36.747 67.223,38.654 
		72.369,41.138 77.47,44.199 79.954,45.885 82.305,47.748 84.567,49.744 86.696,51.917 88.692,54.224 90.511,56.663 90.91,57.284 
		91.22,57.861 91.575,58.526 91.841,59.147 92.107,59.813 92.33,60.478 92.507,61.144 92.684,61.853 92.817,63.361 92.95,64.869 
		93.039,66.289 93.039,67.797 93.128,70.68 93.039,72.232 92.995,73.83 92.817,75.337 92.595,76.757 92.418,77.378 92.241,77.999 
		91.975,78.531 91.708,78.975 91.531,79.152 91.398,79.418 91.176,79.596 90.999,79.818 90.777,79.995 90.511,80.172 90.245,80.35 
		89.934,80.483 90.2,80.306 90.466,80.128 90.599,79.907 90.732,79.685 90.91,79.418 90.954,79.152 91.043,78.886 91.043,78.576 
		91.087,78.265 91.043,77.999 91.043,77.688 90.954,77.378 90.91,77.067 90.777,76.757 90.555,76.136 90.2,75.382 89.712,74.583 
		89.18,73.83 88.603,73.031 87.184,71.479 85.676,69.926 84.035,68.507 82.482,67.131 79.643,64.958 77.381,63.272 75.208,61.809 
		73.078,60.478 71.038,59.325 69.086,58.305 67.179,57.417 65.271,56.619 63.408,55.954 61.545,55.377 59.727,54.845 57.908,54.445 
		56.089,54.046 51.565,53.381 47.129,52.849 42.693,52.316 40.432,51.961 38.125,51.562 36.084,51.119 34,50.586 31.959,50.01 
		29.83,49.3 27.701,48.457 25.527,47.526 23.31,46.461 21.092,45.219 18.386,43.578 15.725,41.848 13.152,40.029 10.712,38.078 
		8.406,36.082 6.232,33.908 4.28,31.823 2.639,29.561 2.196,28.94 1.885,28.319 1.53,27.698 1.22,27.077 0.998,26.456 0.776,25.791 
		0.554,25.037 0.421,24.416 0.244,22.819 0.155,21.399 0.066,19.891 0.066,18.383 0.022,15.589 0.066,13.947 0.111,12.439 
		0.288,10.842 0.51,9.467 0.688,8.802 0.865,8.181 1.131,7.737 1.397,7.25 1.53,7.028 1.752,6.806 1.885,6.628 2.107,6.407 
		2.329,6.229 2.639,6.052 2.861,5.875 	"/>
	<path fill-rule="evenodd" clip-rule="evenodd" fill="#005AAA" d="M225.822,32.223h5.501l-1.863-5.855
		c-0.133-0.354-0.267-0.798-0.399-1.286c-0.178-0.532-0.354-1.064-0.487-1.686c-0.178,0.621-0.311,1.198-0.488,1.686
		c-0.133,0.532-0.267,0.976-0.443,1.331L225.822,32.223z M238.775,40.429h-3.638c-0.399,0-0.754-0.089-1.021-0.311
		c-0.222-0.177-0.443-0.444-0.532-0.754l-1.197-3.726h-7.674l-1.153,3.726c-0.133,0.267-0.311,0.533-0.577,0.754
		c-0.266,0.222-0.576,0.311-0.976,0.311h-3.637l7.807-21.425h4.79L238.775,40.429z M206.527,29.073h1.907
		c0.621,0,1.153-0.089,1.597-0.266c0.488-0.133,0.843-0.399,1.109-0.71c0.311-0.266,0.488-0.665,0.621-1.064
		c0.133-0.399,0.222-0.843,0.222-1.286c0-0.932-0.311-1.686-0.888-2.218c-0.576-0.533-1.463-0.799-2.661-0.799h-1.907V29.073z
		 M206.527,32.489v7.94h-4.657V19.004h6.564c1.464,0,2.706,0.178,3.727,0.488c1.02,0.311,1.862,0.754,2.527,1.331
		c0.621,0.532,1.109,1.242,1.42,1.996c0.267,0.798,0.443,1.641,0.443,2.528c0,0.709-0.089,1.375-0.266,1.996
		c-0.178,0.621-0.443,1.153-0.799,1.686c-0.354,0.532-0.754,1.02-1.286,1.419c-0.488,0.399-1.064,0.754-1.73,1.02
		c0.311,0.178,0.621,0.355,0.888,0.621c0.267,0.222,0.532,0.532,0.71,0.887l4.303,7.452h-4.259c-0.754,0-1.331-0.311-1.686-0.932
		l-3.327-6.21c-0.177-0.311-0.354-0.488-0.532-0.577c-0.177-0.133-0.487-0.222-0.842-0.222H206.527z M198.41,40.429h-4.702V19.004
		h4.702V40.429z M190.602,19.004v3.815h-8.25v5.012h6.343v3.682h-6.343v5.101h8.25v3.815H177.65V19.004H190.602z M162.214,30.625
		c0.177,0.399,0.399,0.754,0.532,1.154c0.178,0.443,0.354,0.842,0.487,1.286c0.178-0.444,0.355-0.887,0.532-1.286
		c0.178-0.399,0.355-0.799,0.532-1.198l5.19-10.823c0.089-0.177,0.177-0.311,0.266-0.444c0.089-0.088,0.178-0.177,0.311-0.222
		s0.267-0.089,0.444-0.089c0.133,0,0.311,0,0.487,0h3.593v21.425h-4.125V28.097c0-0.577,0.045-1.242,0.089-1.907l-5.367,11
		c-0.133,0.355-0.354,0.621-0.665,0.799c-0.267,0.177-0.577,0.266-0.977,0.266h-0.62c-0.355,0-0.666-0.088-0.977-0.266
		c-0.267-0.178-0.488-0.444-0.665-0.799l-5.367-11.045c0.044,0.355,0.044,0.71,0.089,1.02c0,0.355,0.044,0.666,0.044,0.932v12.332
		h-4.125V19.004h3.548c0.223,0,0.399,0,0.533,0c0.177,0,0.311,0.044,0.398,0.089c0.134,0.044,0.223,0.133,0.355,0.222
		c0.089,0.133,0.178,0.267,0.266,0.444L162.214,30.625z M141.676,36.481h7.452v3.948h-12.153V19.004h4.701V36.481z M122.958,32.223
		h5.501l-1.863-5.855c-0.133-0.354-0.266-0.798-0.399-1.286c-0.177-0.532-0.354-1.064-0.487-1.686
		c-0.178,0.621-0.311,1.198-0.488,1.686c-0.133,0.532-0.267,0.976-0.443,1.331L122.958,32.223z M135.911,40.429h-3.638
		c-0.399,0-0.754-0.089-1.021-0.311c-0.266-0.177-0.443-0.444-0.532-0.754l-1.197-3.726h-7.674l-1.198,3.726
		c-0.088,0.267-0.266,0.533-0.532,0.754s-0.577,0.311-0.976,0.311h-3.638l7.807-21.425h4.791L135.911,40.429z M108.719,29.517h2.44
		c1.197,0,2.084-0.311,2.617-0.931c0.532-0.577,0.798-1.464,0.798-2.573c0-0.488-0.044-0.932-0.222-1.331
		c-0.133-0.399-0.31-0.754-0.621-1.065c-0.266-0.266-0.621-0.488-1.064-0.666c-0.399-0.177-0.931-0.222-1.508-0.222h-2.44V29.517z
		 M108.719,33.287v7.142h-4.702V19.004h7.142c1.419,0,2.617,0.178,3.637,0.533c1.02,0.354,1.863,0.843,2.528,1.508
		c0.666,0.621,1.153,1.331,1.464,2.173c0.311,0.887,0.488,1.819,0.488,2.795c0,1.064-0.177,2.04-0.488,2.927
		c-0.311,0.932-0.798,1.686-1.464,2.307c-0.71,0.621-1.553,1.109-2.528,1.464c-1.021,0.399-2.262,0.577-3.637,0.577H108.719z"/>
	<path fill-rule="evenodd" clip-rule="evenodd" fill="#005AAA" d="M230.967,76.846h3.149l-1.197-3.548
		c-0.045-0.133-0.089-0.311-0.178-0.532c-0.044-0.222-0.133-0.444-0.177-0.71c-0.089,0.266-0.134,0.488-0.222,0.71
		c-0.045,0.222-0.089,0.399-0.134,0.577L230.967,76.846z M237.399,80.793h-1.419c-0.178,0-0.311-0.044-0.399-0.133
		s-0.178-0.178-0.222-0.311l-0.754-2.129h-4.081l-0.754,2.129c-0.045,0.088-0.089,0.222-0.222,0.311
		c-0.089,0.089-0.222,0.133-0.399,0.133h-1.419l3.858-10.513h1.907L237.399,80.793z M215.886,75.249h1.153
		c0.354,0,0.621,0,0.887-0.133c0.267-0.088,0.488-0.222,0.666-0.354c0.133-0.178,0.266-0.355,0.354-0.577
		c0.089-0.222,0.133-0.487,0.133-0.754c0-0.532-0.178-0.931-0.487-1.198c-0.355-0.31-0.843-0.443-1.553-0.443h-1.153V75.249z
		 M215.886,76.668v4.125h-1.863V70.281h3.017c0.71,0,1.286,0.044,1.774,0.222c0.443,0.133,0.843,0.354,1.153,0.621
		s0.532,0.577,0.709,0.932c0.134,0.399,0.178,0.798,0.178,1.242c0,0.355-0.044,0.665-0.133,1.02
		c-0.089,0.311-0.222,0.577-0.443,0.843c-0.178,0.266-0.399,0.488-0.666,0.666c-0.266,0.222-0.576,0.354-0.932,0.488
		c0.222,0.133,0.444,0.355,0.621,0.621l2.484,3.859H220.1c-0.133,0-0.266-0.044-0.399-0.088c-0.133-0.089-0.177-0.178-0.266-0.311
		l-2.085-3.371c-0.089-0.133-0.178-0.222-0.267-0.266s-0.222-0.089-0.443-0.089H215.886z M202.268,79.197
		c0.355,0,0.666-0.044,0.932-0.177c0.267-0.133,0.533-0.311,0.71-0.533c0.222-0.222,0.354-0.488,0.443-0.798
		c0.089-0.355,0.178-0.709,0.178-1.109v-6.299h1.818v6.299c0,0.621-0.089,1.198-0.266,1.73c-0.178,0.532-0.488,0.976-0.843,1.375
		c-0.355,0.399-0.799,0.666-1.286,0.887c-0.488,0.222-1.065,0.355-1.687,0.355c-0.665,0-1.241-0.133-1.729-0.355
		c-0.532-0.222-0.932-0.488-1.286-0.887c-0.355-0.399-0.621-0.843-0.843-1.375c-0.178-0.532-0.267-1.109-0.267-1.73v-6.299h1.863
		v6.299c0,0.399,0.044,0.754,0.133,1.065c0.133,0.354,0.267,0.621,0.443,0.842c0.178,0.222,0.444,0.399,0.71,0.533
		C201.559,79.152,201.914,79.197,202.268,79.197z M191.357,70.281v1.597h-2.973v8.916h-1.862v-8.916h-2.972v-1.597H191.357z
		 M176.409,80.793h-1.863V70.281h1.863V80.793z M167.004,70.281v1.553h-4.391v2.883h3.459v1.552h-3.459v2.972h4.391v1.552h-6.254
		V70.281H167.004z M153.564,70.281v1.553h-4.391v3.105h3.682v1.552h-3.682v4.303h-1.863V70.281H153.564z M139.991,70.281v1.553
		H135.6v2.883h3.459v1.552H135.6v2.972h4.391v1.552h-6.254V70.281H139.991z M120.917,75.249h1.153c0.354,0,0.665,0,0.932-0.133
		c0.266-0.088,0.443-0.222,0.621-0.354c0.178-0.178,0.311-0.355,0.354-0.577c0.089-0.222,0.134-0.487,0.134-0.754
		c0-0.532-0.178-0.931-0.488-1.198c-0.355-0.31-0.843-0.443-1.508-0.443h-1.198V75.249z M120.917,76.668v4.125h-1.818V70.281h3.017
		c0.665,0,1.241,0.044,1.729,0.222c0.488,0.133,0.887,0.354,1.197,0.621s0.532,0.577,0.666,0.932
		c0.133,0.399,0.222,0.798,0.222,1.242c0,0.355-0.045,0.665-0.133,1.02c-0.134,0.311-0.267,0.577-0.444,0.843
		s-0.399,0.488-0.71,0.666c-0.266,0.222-0.576,0.354-0.887,0.488c0.222,0.133,0.399,0.355,0.577,0.621l2.483,3.859h-1.642
		c-0.177,0-0.311-0.044-0.398-0.088c-0.134-0.089-0.222-0.178-0.311-0.311l-2.085-3.371c-0.089-0.133-0.178-0.222-0.266-0.266
		c-0.089-0.044-0.222-0.089-0.399-0.089H120.917z M106.635,75.56h1.375c0.354,0,0.621-0.044,0.887-0.133
		c0.266-0.089,0.443-0.222,0.621-0.399c0.178-0.178,0.311-0.355,0.355-0.621c0.089-0.222,0.133-0.488,0.133-0.798
		c0-0.266-0.044-0.533-0.133-0.754c-0.044-0.222-0.177-0.399-0.355-0.577c-0.177-0.177-0.354-0.311-0.621-0.354
		c-0.267-0.089-0.533-0.133-0.887-0.133h-1.375V75.56z M106.635,77.067v3.726h-1.863V70.281h3.238c0.665,0,1.242,0.089,1.73,0.222
		c0.488,0.177,0.887,0.399,1.198,0.709c0.31,0.311,0.532,0.666,0.709,1.064c0.133,0.399,0.222,0.843,0.222,1.331
		c0,0.532-0.089,0.976-0.266,1.419c-0.133,0.399-0.399,0.798-0.709,1.109c-0.311,0.311-0.71,0.532-1.198,0.709
		c-0.488,0.178-1.065,0.222-1.686,0.222H106.635z"/>
	<path fill-rule="evenodd" clip-rule="evenodd" fill="#005AAA" d="M237.488,49.744c-0.133,0.222-0.266,0.355-0.399,0.488
		c-0.133,0.089-0.31,0.133-0.531,0.133c-0.178,0-0.399-0.044-0.577-0.177c-0.222-0.133-0.488-0.267-0.754-0.399
		c-0.267-0.178-0.577-0.311-0.932-0.444c-0.354-0.133-0.754-0.177-1.242-0.177c-0.754,0-1.331,0.177-1.729,0.532
		c-0.355,0.311-0.577,0.798-0.577,1.419c0,0.399,0.133,0.709,0.354,0.932c0.223,0.266,0.533,0.488,0.933,0.665
		c0.354,0.178,0.754,0.355,1.241,0.488c0.488,0.177,0.977,0.354,1.464,0.532c0.532,0.177,1.021,0.399,1.509,0.666
		c0.487,0.266,0.887,0.576,1.241,0.976c0.399,0.355,0.71,0.843,0.932,1.419c0.222,0.532,0.311,1.242,0.311,2.041
		c0,0.843-0.133,1.686-0.399,2.484c-0.311,0.754-0.71,1.419-1.242,1.996c-0.531,0.577-1.241,1.02-2.04,1.331
		c-0.798,0.355-1.686,0.488-2.705,0.488c-0.577,0-1.154-0.044-1.73-0.177c-0.576-0.133-1.109-0.311-1.686-0.532
		c-0.532-0.177-1.021-0.444-1.509-0.754c-0.487-0.311-0.887-0.666-1.241-1.021l1.241-2.084c0.089-0.133,0.223-0.266,0.355-0.399
		c0.178-0.089,0.355-0.133,0.532-0.133c0.267,0,0.532,0.089,0.754,0.267c0.267,0.177,0.532,0.354,0.843,0.532
		c0.311,0.222,0.71,0.399,1.109,0.577c0.398,0.133,0.887,0.222,1.419,0.222c0.754,0,1.375-0.177,1.774-0.532
		c0.443-0.355,0.621-0.887,0.621-1.686c0-0.444-0.089-0.798-0.311-1.064c-0.222-0.267-0.532-0.533-0.932-0.71
		c-0.354-0.177-0.798-0.311-1.241-0.488c-0.488-0.133-0.977-0.266-1.509-0.444c-0.487-0.177-0.976-0.399-1.42-0.621
		c-0.487-0.267-0.931-0.577-1.285-0.976c-0.399-0.399-0.666-0.932-0.933-1.553c-0.222-0.577-0.311-1.331-0.311-2.218
		c0-0.709,0.134-1.419,0.399-2.084c0.267-0.71,0.666-1.287,1.198-1.819s1.153-0.976,1.907-1.286
		c0.798-0.311,1.642-0.488,2.617-0.488c0.576,0,1.108,0.044,1.641,0.133c0.488,0.089,0.977,0.222,1.464,0.399
		c0.444,0.222,0.888,0.399,1.286,0.665c0.444,0.222,0.799,0.532,1.109,0.843L237.488,49.744z M222.451,55.421
		c0-0.976-0.088-1.819-0.31-2.573c-0.223-0.754-0.577-1.375-1.021-1.907c-0.399-0.532-0.932-0.932-1.553-1.198
		c-0.621-0.311-1.331-0.443-2.129-0.443c-0.799,0-1.553,0.133-2.174,0.443c-0.621,0.266-1.153,0.666-1.553,1.198
		c-0.443,0.532-0.798,1.153-1.021,1.907c-0.222,0.754-0.31,1.597-0.31,2.573c0,0.932,0.088,1.774,0.31,2.528
		c0.223,0.754,0.577,1.419,1.021,1.907c0.399,0.533,0.932,0.932,1.553,1.198c0.621,0.311,1.375,0.444,2.174,0.444
		c0.798,0,1.508-0.133,2.129-0.444c0.621-0.266,1.153-0.665,1.553-1.198c0.443-0.488,0.798-1.153,1.021-1.907
		C222.363,57.196,222.451,56.353,222.451,55.421z M226.753,55.421c0,1.375-0.266,2.617-0.709,3.814
		c-0.444,1.198-1.065,2.218-1.863,3.105c-0.799,0.887-1.818,1.552-2.928,2.04c-1.153,0.532-2.439,0.754-3.814,0.754
		c-1.42,0-2.662-0.222-3.814-0.754c-1.154-0.488-2.13-1.153-2.973-2.04c-0.798-0.887-1.419-1.908-1.907-3.105
		c-0.399-1.197-0.665-2.439-0.665-3.814s0.266-2.662,0.665-3.859c0.488-1.197,1.109-2.218,1.907-3.105
		c0.843-0.843,1.818-1.552,2.973-2.04c1.152-0.488,2.395-0.754,3.814-0.754c1.375,0,2.661,0.266,3.814,0.754
		c1.109,0.488,2.129,1.197,2.928,2.084c0.798,0.843,1.419,1.863,1.863,3.061C226.488,52.76,226.753,54.046,226.753,55.421z
		 M207.192,64.914h-4.214V45.885h4.214V64.914z M197.611,55.421c0-0.976-0.133-1.819-0.354-2.573s-0.532-1.375-0.977-1.907
		c-0.443-0.577-0.976-0.976-1.597-1.242s-1.33-0.443-2.129-0.443h-2.75v12.287h2.75c0.799,0,1.508-0.133,2.129-0.443
		c0.621-0.266,1.153-0.666,1.597-1.198c0.444-0.532,0.755-1.198,0.977-1.952S197.611,56.353,197.611,55.421z M201.87,55.421
		c0,1.375-0.222,2.617-0.666,3.771c-0.443,1.198-1.064,2.173-1.907,3.061c-0.799,0.843-1.773,1.508-2.928,1.996
		c-1.153,0.443-2.395,0.665-3.814,0.665h-6.964V45.885h6.964c1.42,0,2.661,0.222,3.814,0.709c1.154,0.488,2.129,1.153,2.928,1.996
		c0.843,0.843,1.464,1.863,1.907,3.016C201.648,52.76,201.87,54.046,201.87,55.421z M171.174,45.885c0.178,0,0.311,0,0.443,0.044
		c0.133,0,0.222,0.044,0.311,0.089c0.133,0.044,0.222,0.089,0.311,0.178c0.089,0.088,0.178,0.222,0.311,0.354l8.517,11.444
		c-0.044-0.355-0.044-0.71-0.089-1.065c0-0.354,0-0.665,0-0.976V45.885h3.638v19.029h-2.174c-0.311,0-0.577-0.044-0.799-0.133
		c-0.222-0.089-0.443-0.311-0.62-0.577l-8.473-11.355c0.044,0.355,0.044,0.666,0.044,0.976c0.045,0.311,0.045,0.621,0.045,0.887
		v10.202H169V45.885H171.174z M166.65,64.914h-4.214V45.885h4.214V64.914z M150.548,49.744c-0.133,0.222-0.222,0.355-0.399,0.488
		c-0.133,0.089-0.311,0.133-0.488,0.133c-0.222,0-0.399-0.044-0.621-0.177c-0.222-0.133-0.487-0.267-0.754-0.399
		c-0.266-0.178-0.576-0.311-0.932-0.444c-0.354-0.133-0.754-0.177-1.197-0.177c-0.799,0-1.375,0.177-1.729,0.532
		c-0.399,0.311-0.577,0.798-0.577,1.419c0,0.399,0.089,0.709,0.355,0.932c0.222,0.266,0.487,0.488,0.887,0.665
		c0.354,0.178,0.798,0.355,1.286,0.488c0.488,0.177,0.932,0.354,1.464,0.532c0.488,0.177,0.976,0.399,1.464,0.666
		c0.487,0.266,0.932,0.576,1.286,0.976c0.355,0.355,0.665,0.843,0.887,1.419c0.223,0.532,0.355,1.242,0.355,2.041
		c0,0.843-0.133,1.686-0.443,2.484c-0.267,0.754-0.71,1.419-1.242,1.996s-1.197,1.02-1.996,1.331
		c-0.799,0.355-1.729,0.488-2.75,0.488c-0.532,0-1.109-0.044-1.686-0.177c-0.577-0.133-1.153-0.311-1.686-0.532
		c-0.532-0.177-1.064-0.444-1.508-0.754c-0.488-0.311-0.932-0.666-1.287-1.021l1.242-2.084c0.089-0.133,0.222-0.266,0.399-0.399
		c0.133-0.089,0.311-0.133,0.532-0.133s0.488,0.089,0.754,0.267c0.222,0.177,0.532,0.354,0.843,0.532
		c0.311,0.222,0.665,0.399,1.064,0.577c0.399,0.133,0.888,0.222,1.464,0.222c0.754,0,1.331-0.177,1.774-0.532
		c0.399-0.355,0.621-0.887,0.621-1.686c0-0.444-0.133-0.798-0.355-1.064c-0.222-0.267-0.532-0.533-0.887-0.71
		c-0.399-0.177-0.799-0.311-1.286-0.488c-0.488-0.133-0.976-0.266-1.464-0.444c-0.488-0.177-1.021-0.399-1.464-0.621
		c-0.488-0.267-0.888-0.577-1.286-0.976c-0.355-0.399-0.665-0.932-0.887-1.553c-0.223-0.577-0.355-1.331-0.355-2.218
		c0-0.709,0.133-1.419,0.399-2.084c0.266-0.71,0.665-1.287,1.197-1.819s1.153-0.976,1.952-1.286
		c0.754-0.311,1.641-0.488,2.617-0.488c0.532,0,1.064,0.044,1.597,0.133s1.021,0.222,1.464,0.399
		c0.487,0.222,0.932,0.399,1.331,0.665c0.398,0.222,0.753,0.532,1.108,0.843L150.548,49.744z M135.023,55.421
		c0-0.976-0.089-1.819-0.311-2.573c-0.266-0.754-0.576-1.375-1.021-1.907c-0.398-0.532-0.931-0.932-1.552-1.198
		c-0.621-0.311-1.331-0.443-2.129-0.443c-0.799,0-1.509,0.133-2.174,0.443c-0.621,0.266-1.153,0.666-1.553,1.198
		c-0.443,0.532-0.799,1.153-1.021,1.907s-0.354,1.597-0.354,2.573c0,0.932,0.133,1.774,0.354,2.528s0.577,1.419,1.021,1.907
		c0.399,0.533,0.932,0.932,1.553,1.198c0.665,0.311,1.375,0.444,2.174,0.444c0.798,0,1.508-0.133,2.129-0.444
		c0.621-0.266,1.153-0.665,1.552-1.198c0.444-0.488,0.755-1.153,1.021-1.907C134.934,57.196,135.023,56.353,135.023,55.421z
		 M139.326,55.421c0,1.375-0.222,2.617-0.665,3.814c-0.443,1.198-1.109,2.218-1.907,3.105c-0.799,0.887-1.819,1.552-2.928,2.04
		c-1.153,0.532-2.44,0.754-3.814,0.754c-1.42,0-2.662-0.222-3.815-0.754c-1.153-0.488-2.129-1.153-2.972-2.04
		c-0.799-0.887-1.419-1.908-1.863-3.105c-0.443-1.197-0.709-2.439-0.709-3.814s0.266-2.662,0.709-3.859
		c0.444-1.197,1.064-2.218,1.863-3.105c0.843-0.843,1.818-1.552,2.972-2.04c1.153-0.488,2.396-0.754,3.815-0.754
		c1.374,0,2.661,0.266,3.814,0.754c1.108,0.488,2.129,1.197,2.928,2.084c0.798,0.843,1.464,1.863,1.907,3.061
		C139.104,52.76,139.326,54.046,139.326,55.421z M115.861,55.421c0-0.976-0.133-1.819-0.355-2.573s-0.532-1.375-0.976-1.907
		c-0.443-0.577-0.976-0.976-1.597-1.242s-1.331-0.443-2.129-0.443h-2.794v12.287h2.794c0.798,0,1.508-0.133,2.129-0.443
		c0.621-0.266,1.153-0.666,1.597-1.198c0.444-0.532,0.754-1.198,0.976-1.952S115.861,56.353,115.861,55.421z M120.119,55.421
		c0,1.375-0.222,2.617-0.666,3.771c-0.443,1.198-1.109,2.173-1.907,3.061c-0.798,0.843-1.774,1.508-2.928,1.996
		c-1.153,0.443-2.439,0.665-3.814,0.665h-6.964V45.885h6.964c1.375,0,2.661,0.222,3.814,0.709s2.129,1.153,2.928,1.996
		s1.464,1.863,1.907,3.016C119.897,52.76,120.119,54.046,120.119,55.421z"/>
	<polygon fill-rule="evenodd" clip-rule="evenodd" fill="#005AAA" points="164.077,41.848 168.069,41.848 165.718,44.687 
		162.924,44.687 	"/>
	<linearGradient id="SVGID_5_" gradientUnits="userSpaceOnUse" x1="39.7129" y1="9.4229" x2="58.5586" y2="9.4229">
		<stop  offset="0" style="stop-color:#FFE6BF"/>
		<stop  offset="1" style="stop-color:#FF952A"/>
	</linearGradient>
	<circle fill-rule="evenodd" clip-rule="evenodd" fill="url(#SVGID_5_)" cx="49.136" cy="9.423" r="9.423"/>
</g>
</svg>
